<svg width="1146" height="617" viewBox="0 0 1146 617" fill="none" xmlns="http://www.w3.org/2000/svg">
<g opacity="0.8" filter="url(#filter0_f_396_700)">
<ellipse cx="258.9" cy="357.7" rx="141" ry="140.5" fill="#9689E9"/>
</g>
<g opacity="0.8" filter="url(#filter1_f_396_700)">
<ellipse cx="338.4" cy="236.7" rx="124.5" ry="110.5" fill="#EFA2D8"/>
</g>
<g filter="url(#filter2_di_396_700)">
<circle cx="338.4" cy="315.7" r="128.262" transform="rotate(-12.788 338.4 315.7)" fill="url(#paint0_radial_396_700)" shape-rendering="crispEdges"/>
</g>
<g filter="url(#filter3_f_396_700)">
<circle cx="332.39" cy="278.689" r="61.4181" transform="rotate(-12.788 332.39 278.689)" fill="white" fill-opacity="0.3"/>
</g>
<g filter="url(#filter4_f_396_700)">
<path d="M382.285 395.095C389.793 428.174 382.48 435.692 349.401 443.2C264.228 462.532 222.736 368.328 308.796 348.795C341.874 341.286 374.777 362.016 382.285 395.095Z" fill="#C566FC" fill-opacity="0.2"/>
</g>
<g filter="url(#filter5_d_396_700)">
<path d="M283.344 339.2V310.052H287.292V339.2H283.344ZM292.365 319.334L294.969 314.336L296.313 314C296.173 314.308 295.991 314.56 295.767 314.756C295.571 314.952 295.319 315.05 295.011 315.05C294.423 315.05 293.877 314.812 293.373 314.336C292.897 313.832 292.659 313.216 292.659 312.488C292.659 311.704 292.925 311.032 293.457 310.472C294.017 309.912 294.689 309.632 295.473 309.632C296.201 309.632 296.845 309.912 297.405 310.472C297.965 311.032 298.245 311.704 298.245 312.488C298.245 312.796 298.175 313.174 298.035 313.622C297.923 314.042 297.685 314.602 297.321 315.302L294.549 320.51L292.365 319.334ZM300.678 339.2V319.25H304.458V339.2H300.678ZM314.16 339.2V327.146C314.16 325.662 313.698 324.5 312.774 323.66C311.878 322.792 310.744 322.358 309.372 322.358C308.448 322.358 307.622 322.554 306.894 322.946C306.166 323.338 305.578 323.884 305.13 324.584C304.682 325.284 304.458 326.124 304.458 327.104L302.904 326.348C302.904 324.836 303.226 323.52 303.87 322.4C304.542 321.28 305.452 320.412 306.6 319.796C307.748 319.152 309.036 318.83 310.464 318.83C311.864 318.83 313.124 319.138 314.244 319.754C315.392 320.37 316.288 321.238 316.932 322.358C317.604 323.478 317.94 324.808 317.94 326.348V339.2H314.16ZM327.642 339.2V327.146C327.642 325.662 327.18 324.5 326.256 323.66C325.36 322.792 324.24 322.358 322.896 322.358C321.972 322.358 321.132 322.554 320.376 322.946C319.648 323.338 319.06 323.884 318.612 324.584C318.164 325.284 317.94 326.124 317.94 327.104L315.798 326.348C315.882 324.808 316.288 323.492 317.016 322.4C317.772 321.28 318.738 320.412 319.914 319.796C321.09 319.152 322.378 318.83 323.778 318.83C325.234 318.83 326.536 319.138 327.684 319.754C328.832 320.37 329.742 321.238 330.414 322.358C331.114 323.478 331.464 324.822 331.464 326.39V339.2H327.642ZM348.602 339.62C346.922 339.62 345.438 339.298 344.15 338.654C342.89 337.982 341.854 337.086 341.042 335.966L343.814 333.404C344.346 334.188 345.004 334.79 345.788 335.21C346.6 335.63 347.496 335.84 348.476 335.84C349.456 335.84 350.324 335.63 351.08 335.21C351.836 334.79 352.424 334.174 352.844 333.362C353.292 332.522 353.516 331.5 353.516 330.296V310.052H357.464V330.086C357.464 332.018 357.072 333.698 356.288 335.126C355.532 336.554 354.482 337.66 353.138 338.444C351.822 339.228 350.31 339.62 348.602 339.62ZM371.789 339.62C369.801 339.62 368.009 339.172 366.413 338.276C364.817 337.352 363.557 336.106 362.633 334.538C361.709 332.97 361.247 331.192 361.247 329.204C361.247 327.244 361.695 325.48 362.591 323.912C363.515 322.344 364.747 321.112 366.287 320.216C367.855 319.292 369.605 318.83 371.537 318.83C373.385 318.83 375.009 319.25 376.409 320.09C377.837 320.93 378.943 322.092 379.727 323.576C380.539 325.06 380.945 326.74 380.945 328.616C380.945 328.896 380.931 329.204 380.903 329.54C380.875 329.848 380.819 330.212 380.735 330.632H363.893V327.482H378.719L377.333 328.7C377.333 327.356 377.095 326.222 376.619 325.298C376.143 324.346 375.471 323.618 374.603 323.114C373.735 322.582 372.685 322.316 371.453 322.316C370.165 322.316 369.031 322.596 368.051 323.156C367.071 323.716 366.315 324.5 365.783 325.508C365.251 326.516 364.985 327.706 364.985 329.078C364.985 330.478 365.265 331.71 365.825 332.774C366.385 333.81 367.183 334.622 368.219 335.21C369.255 335.77 370.445 336.05 371.789 336.05C372.909 336.05 373.931 335.854 374.855 335.462C375.807 335.07 376.619 334.482 377.291 333.698L379.727 336.176C378.775 337.296 377.599 338.15 376.199 338.738C374.827 339.326 373.357 339.62 371.789 339.62ZM398.379 339.2V327.566C398.379 326.054 397.903 324.808 396.951 323.828C395.999 322.848 394.767 322.358 393.255 322.358C392.247 322.358 391.351 322.582 390.567 323.03C389.783 323.478 389.167 324.094 388.719 324.878C388.271 325.662 388.047 326.558 388.047 327.566L386.493 326.684C386.493 325.172 386.829 323.828 387.501 322.652C388.173 321.476 389.111 320.552 390.315 319.88C391.519 319.18 392.877 318.83 394.389 318.83C395.901 318.83 397.231 319.208 398.379 319.964C399.555 320.72 400.479 321.714 401.151 322.946C401.823 324.15 402.159 325.438 402.159 326.81V339.2H398.379ZM384.267 339.2V319.25H388.047V339.2H384.267ZM420.589 339.2V327.566C420.589 326.054 420.113 324.808 419.161 323.828C418.209 322.848 416.977 322.358 415.465 322.358C414.457 322.358 413.561 322.582 412.777 323.03C411.993 323.478 411.377 324.094 410.929 324.878C410.481 325.662 410.257 326.558 410.257 327.566L408.703 326.684C408.703 325.172 409.039 323.828 409.711 322.652C410.383 321.476 411.321 320.552 412.525 319.88C413.729 319.18 415.087 318.83 416.599 318.83C418.111 318.83 419.441 319.208 420.589 319.964C421.765 320.72 422.689 321.714 423.361 322.946C424.033 324.15 424.369 325.438 424.369 326.81V339.2H420.589ZM406.477 339.2V319.25H410.257V339.2H406.477ZM435.238 339.368L426.586 319.25H430.786L437.212 335H435.868L442.63 319.25H446.83L437.506 339.368H435.238ZM429.526 347.558L435.406 335.504L437.506 339.368L433.726 347.558H429.526Z" fill="white"/>
</g>
<path d="M484.42 339.2V311.68H487.34V339.2H484.42ZM585.489 339.6C583.649 339.6 581.983 339.173 580.489 338.32C579.023 337.44 577.849 336.253 576.969 334.76C576.116 333.267 575.689 331.6 575.689 329.76C575.689 327.92 576.116 326.267 576.969 324.8C577.849 323.307 579.023 322.133 580.489 321.28C581.983 320.427 583.649 320 585.489 320C586.903 320 588.223 320.267 589.449 320.8C590.676 321.333 591.716 322.08 592.569 323.04L590.729 324.92C590.089 324.2 589.316 323.653 588.409 323.28C587.503 322.88 586.529 322.68 585.489 322.68C584.156 322.68 582.969 322.987 581.929 323.6C580.889 324.213 580.076 325.053 579.489 326.12C578.903 327.16 578.609 328.373 578.609 329.76C578.609 331.12 578.903 332.347 579.489 333.44C580.076 334.507 580.889 335.347 581.929 335.96C582.969 336.573 584.156 336.88 585.489 336.88C586.556 336.88 587.543 336.693 588.449 336.32C589.356 335.92 590.129 335.36 590.769 334.64L592.649 336.52C591.769 337.507 590.703 338.267 589.449 338.8C588.223 339.333 586.903 339.6 585.489 339.6ZM595.778 339.2V320.4H598.578V339.2H595.778ZM598.578 328.24L597.418 327.72C597.418 325.347 597.991 323.467 599.138 322.08C600.311 320.693 601.911 320 603.938 320C604.871 320 605.725 320.173 606.498 320.52C607.271 320.84 607.991 321.36 608.658 322.08L606.818 324.04C606.365 323.533 605.858 323.173 605.298 322.96C604.765 322.747 604.151 322.64 603.458 322.64C602.018 322.64 600.845 323.12 599.938 324.08C599.031 325.013 598.578 326.4 598.578 328.24ZM618.333 339.6C616.547 339.6 614.947 339.173 613.533 338.32C612.12 337.44 611 336.267 610.173 334.8C609.373 333.333 608.973 331.68 608.973 329.84C608.973 327.973 609.373 326.307 610.173 324.84C611 323.347 612.12 322.173 613.533 321.32C614.947 320.44 616.533 320 618.293 320C619.733 320 621.013 320.293 622.133 320.88C623.28 321.44 624.2 322.24 624.893 323.28C625.613 324.293 626.053 325.48 626.213 326.84V332.72C626.053 334.08 625.613 335.28 624.893 336.32C624.2 337.36 623.28 338.173 622.133 338.76C621.013 339.32 619.747 339.6 618.333 339.6ZM618.773 336.92C620.72 336.92 622.28 336.267 623.453 334.96C624.653 333.653 625.253 331.933 625.253 329.8C625.253 328.387 624.973 327.147 624.413 326.08C623.88 324.987 623.12 324.147 622.133 323.56C621.173 322.947 620.04 322.64 618.733 322.64C617.4 322.64 616.213 322.947 615.173 323.56C614.16 324.173 613.347 325.027 612.733 326.12C612.147 327.187 611.853 328.413 611.853 329.8C611.853 331.187 612.147 332.413 612.733 333.48C613.347 334.547 614.173 335.387 615.213 336C616.253 336.613 617.44 336.92 618.773 336.92ZM625.093 339.2V334.16L625.653 329.52L625.093 325V320.4H627.893V339.2H625.093ZM635.375 339.2V317.2C635.375 315.893 635.655 314.733 636.215 313.72C636.802 312.707 637.602 311.92 638.615 311.36C639.655 310.773 640.829 310.48 642.135 310.48C643.149 310.48 644.042 310.667 644.815 311.04C645.589 311.387 646.295 311.88 646.935 312.52L645.095 314.36C644.669 313.933 644.215 313.627 643.735 313.44C643.282 313.227 642.749 313.12 642.135 313.12C640.882 313.12 639.909 313.493 639.215 314.24C638.549 314.96 638.215 315.973 638.215 317.28V339.2H635.375ZM630.655 322.92V320.4H644.495V322.92H630.655ZM649.384 339.2V312.48H652.184V339.2H649.384ZM644.624 322.92V320.4H656.904V322.92H644.624ZM659.961 339.2V320.4H662.801V339.2H659.961ZM661.361 316.32C660.827 316.32 660.374 316.133 660.001 315.76C659.627 315.36 659.441 314.893 659.441 314.36C659.441 313.8 659.627 313.333 660.001 312.96C660.374 312.587 660.827 312.4 661.361 312.4C661.947 312.4 662.414 312.587 662.761 312.96C663.134 313.333 663.321 313.8 663.321 314.36C663.321 314.893 663.134 315.36 662.761 315.76C662.414 316.133 661.947 316.32 661.361 316.32ZM681.356 339.2V328.16C681.356 326.507 680.863 325.173 679.876 324.16C678.916 323.12 677.636 322.6 676.036 322.6C674.943 322.6 673.983 322.84 673.156 323.32C672.33 323.8 671.676 324.453 671.196 325.28C670.716 326.107 670.476 327.053 670.476 328.12L669.196 327.4C669.196 325.987 669.53 324.72 670.196 323.6C670.863 322.48 671.756 321.6 672.876 320.96C674.023 320.32 675.33 320 676.796 320C678.236 320 679.516 320.347 680.636 321.04C681.756 321.733 682.623 322.667 683.236 323.84C683.876 325.013 684.196 326.293 684.196 327.68V339.2H681.356ZM667.676 339.2V320.4H670.476V339.2H667.676ZM696.394 347.52C694.501 347.52 692.807 347.16 691.314 346.44C689.847 345.747 688.661 344.76 687.754 343.48L689.594 341.64C690.341 342.653 691.287 343.44 692.434 344C693.581 344.56 694.927 344.84 696.474 344.84C698.607 344.84 700.301 344.267 701.554 343.12C702.834 341.973 703.474 340.413 703.474 338.44V333.76L704.034 329.48L703.474 325.24V320.4H706.274V338.44C706.274 340.253 705.861 341.84 705.034 343.2C704.207 344.56 703.047 345.613 701.554 346.36C700.087 347.133 698.367 347.52 696.394 347.52ZM696.594 339C694.861 339 693.301 338.587 691.914 337.76C690.527 336.933 689.434 335.8 688.634 334.36C687.834 332.92 687.434 331.293 687.434 329.48C687.434 327.667 687.821 326.053 688.594 324.64C689.394 323.2 690.487 322.067 691.874 321.24C693.261 320.413 694.821 320 696.554 320C698.021 320 699.327 320.28 700.474 320.84C701.647 321.4 702.581 322.2 703.274 323.24C703.994 324.253 704.434 325.453 704.594 326.84V332.16C704.434 333.52 703.994 334.72 703.274 335.76C702.554 336.773 701.621 337.573 700.474 338.16C699.327 338.72 698.034 339 696.594 339ZM697.114 336.32C698.421 336.32 699.554 336.04 700.514 335.48C701.501 334.92 702.261 334.133 702.794 333.12C703.354 332.08 703.634 330.867 703.634 329.48C703.634 328.12 703.354 326.933 702.794 325.92C702.261 324.907 701.501 324.107 700.514 323.52C699.527 322.933 698.381 322.64 697.074 322.64C695.767 322.64 694.594 322.933 693.554 323.52C692.541 324.107 691.741 324.907 691.154 325.92C690.594 326.933 690.314 328.12 690.314 329.48C690.314 330.813 690.607 332 691.194 333.04C691.781 334.08 692.581 334.893 693.594 335.48C694.607 336.04 695.781 336.32 697.114 336.32ZM728.629 339.6C727.189 339.6 725.896 339.307 724.749 338.72C723.602 338.133 722.656 337.333 721.909 336.32C721.189 335.28 720.749 334.08 720.589 332.72V326.84C720.749 325.453 721.202 324.253 721.949 323.24C722.696 322.2 723.642 321.4 724.789 320.84C725.962 320.28 727.242 320 728.629 320C730.362 320 731.922 320.44 733.309 321.32C734.696 322.173 735.789 323.347 736.589 324.84C737.416 326.307 737.829 327.973 737.829 329.84C737.829 331.68 737.429 333.333 736.629 334.8C735.829 336.267 734.722 337.44 733.309 338.32C731.922 339.173 730.362 339.6 728.629 339.6ZM728.149 336.92C729.482 336.92 730.656 336.627 731.669 336.04C732.682 335.427 733.469 334.587 734.029 333.52C734.616 332.427 734.909 331.187 734.909 329.8C734.909 328.387 734.616 327.147 734.029 326.08C733.469 325.013 732.682 324.173 731.669 323.56C730.656 322.947 729.496 322.64 728.189 322.64C726.882 322.64 725.722 322.947 724.709 323.56C723.722 324.173 722.949 325.013 722.389 326.08C721.829 327.147 721.549 328.387 721.549 329.8C721.549 331.187 721.829 332.427 722.389 333.52C722.949 334.587 723.722 335.427 724.709 336.04C725.696 336.627 726.842 336.92 728.149 336.92ZM718.909 347.12V320.4H721.709V325.2L721.149 329.76L721.709 334.36V347.12H718.909ZM741.508 339.2V320.4H744.308V339.2H741.508ZM744.308 328.24L743.148 327.72C743.148 325.347 743.721 323.467 744.868 322.08C746.041 320.693 747.641 320 749.668 320C750.601 320 751.454 320.173 752.228 320.52C753.001 320.84 753.721 321.36 754.388 322.08L752.548 324.04C752.094 323.533 751.588 323.173 751.028 322.96C750.494 322.747 749.881 322.64 749.188 322.64C747.748 322.64 746.574 323.12 745.668 324.08C744.761 325.013 744.308 326.4 744.308 328.24ZM764.423 339.6C762.61 339.6 760.956 339.16 759.463 338.28C757.996 337.4 756.823 336.213 755.943 334.72C755.09 333.227 754.663 331.56 754.663 329.72C754.663 327.907 755.09 326.267 755.943 324.8C756.823 323.333 757.996 322.173 759.463 321.32C760.956 320.44 762.61 320 764.423 320C766.263 320 767.916 320.427 769.383 321.28C770.85 322.133 772.01 323.307 772.863 324.8C773.743 326.267 774.183 327.907 774.183 329.72C774.183 331.587 773.743 333.267 772.863 334.76C772.01 336.227 770.85 337.4 769.383 338.28C767.916 339.16 766.263 339.6 764.423 339.6ZM764.423 336.88C765.756 336.88 766.93 336.573 767.943 335.96C768.983 335.347 769.796 334.493 770.383 333.4C770.996 332.307 771.303 331.08 771.303 329.72C771.303 328.36 770.996 327.16 770.383 326.12C769.796 325.053 768.983 324.213 767.943 323.6C766.93 322.987 765.756 322.68 764.423 322.68C763.116 322.68 761.943 322.987 760.903 323.6C759.863 324.213 759.05 325.053 758.463 326.12C757.876 327.16 757.583 328.36 757.583 329.72C757.583 331.107 757.876 332.347 758.463 333.44C759.05 334.507 759.863 335.347 760.903 335.96C761.943 336.573 763.116 336.88 764.423 336.88ZM785.837 339.6C784.104 339.6 782.544 339.173 781.157 338.32C779.771 337.467 778.664 336.307 777.837 334.84C777.037 333.347 776.637 331.68 776.637 329.84C776.637 327.973 777.037 326.307 777.837 324.84C778.664 323.347 779.771 322.173 781.157 321.32C782.544 320.44 784.104 320 785.837 320C787.251 320 788.531 320.28 789.677 320.84C790.824 321.4 791.771 322.2 792.517 323.24C793.291 324.253 793.744 325.453 793.877 326.84V332.72C793.717 334.08 793.264 335.28 792.517 336.32C791.797 337.333 790.864 338.133 789.717 338.72C788.571 339.307 787.277 339.6 785.837 339.6ZM786.317 336.92C787.624 336.92 788.771 336.627 789.757 336.04C790.744 335.427 791.517 334.587 792.077 333.52C792.637 332.427 792.917 331.187 792.917 329.8C792.917 328.387 792.624 327.147 792.037 326.08C791.477 325.013 790.704 324.173 789.717 323.56C788.731 322.947 787.584 322.64 786.277 322.64C784.971 322.64 783.811 322.947 782.797 323.56C781.784 324.173 780.984 325.027 780.397 326.12C779.837 327.187 779.557 328.413 779.557 329.8C779.557 331.187 779.837 332.427 780.397 333.52C780.984 334.587 781.784 335.427 782.797 336.04C783.837 336.627 785.011 336.92 786.317 336.92ZM795.557 339.2H792.757V334.16L793.317 329.52L792.757 325V310.88H795.557V339.2ZM807.876 339.6C806.356 339.6 804.996 339.253 803.796 338.56C802.596 337.84 801.649 336.867 800.956 335.64C800.289 334.413 799.956 332.973 799.956 331.32V320.4H802.796V331.2C802.796 332.347 802.996 333.347 803.396 334.2C803.822 335.053 804.422 335.72 805.196 336.2C805.969 336.68 806.862 336.92 807.876 336.92C809.449 336.92 810.689 336.4 811.596 335.36C812.529 334.32 812.996 332.933 812.996 331.2V320.4H815.796V331.32C815.796 332.947 815.462 334.387 814.796 335.64C814.129 336.893 813.196 337.867 811.996 338.56C810.796 339.253 809.422 339.6 807.876 339.6ZM828.782 339.6C826.942 339.6 825.275 339.173 823.782 338.32C822.315 337.44 821.142 336.253 820.262 334.76C819.408 333.267 818.982 331.6 818.982 329.76C818.982 327.92 819.408 326.267 820.262 324.8C821.142 323.307 822.315 322.133 823.782 321.28C825.275 320.427 826.942 320 828.782 320C830.195 320 831.515 320.267 832.742 320.8C833.968 321.333 835.008 322.08 835.862 323.04L834.022 324.92C833.382 324.2 832.608 323.653 831.702 323.28C830.795 322.88 829.822 322.68 828.782 322.68C827.448 322.68 826.262 322.987 825.222 323.6C824.182 324.213 823.368 325.053 822.782 326.12C822.195 327.16 821.902 328.373 821.902 329.76C821.902 331.12 822.195 332.347 822.782 333.44C823.368 334.507 824.182 335.347 825.222 335.96C826.262 336.573 827.448 336.88 828.782 336.88C829.848 336.88 830.835 336.693 831.742 336.32C832.648 335.92 833.422 335.36 834.062 334.64L835.942 336.52C835.062 337.507 833.995 338.267 832.742 338.8C831.515 339.333 830.195 339.6 828.782 339.6ZM841.834 339.2V312.48H844.634V339.2H841.834ZM837.074 322.92V320.4H849.354V322.92H837.074ZM857.78 339.6C856.767 339.6 855.793 339.467 854.86 339.2C853.927 338.907 853.073 338.507 852.3 338C851.553 337.493 850.9 336.893 850.34 336.2L852.14 334.36C852.887 335.267 853.727 335.947 854.66 336.4C855.62 336.827 856.687 337.04 857.86 337.04C859.113 337.04 860.087 336.8 860.78 336.32C861.5 335.84 861.86 335.173 861.86 334.32C861.86 333.52 861.607 332.893 861.1 332.44C860.593 331.987 859.94 331.627 859.14 331.36C858.367 331.093 857.54 330.84 856.66 330.6C855.78 330.333 854.94 330.013 854.14 329.64C853.34 329.24 852.687 328.693 852.18 328C851.7 327.307 851.46 326.4 851.46 325.28C851.46 324.213 851.713 323.293 852.22 322.52C852.753 321.72 853.5 321.107 854.46 320.68C855.447 320.227 856.607 320 857.94 320C859.353 320 860.633 320.253 861.78 320.76C862.927 321.267 863.847 322.013 864.54 323L862.74 324.8C862.18 324.08 861.473 323.533 860.62 323.16C859.793 322.76 858.86 322.56 857.82 322.56C856.62 322.56 855.7 322.8 855.06 323.28C854.447 323.733 854.14 324.333 854.14 325.08C854.14 325.8 854.393 326.373 854.9 326.8C855.407 327.2 856.047 327.533 856.82 327.8C857.62 328.04 858.46 328.293 859.34 328.56C860.22 328.8 861.06 329.133 861.86 329.56C862.66 329.96 863.3 330.52 863.78 331.24C864.287 331.933 864.54 332.88 864.54 334.08C864.54 335.76 863.927 337.107 862.7 338.12C861.5 339.107 859.86 339.6 857.78 339.6ZM881.207 339.2L873.967 320.4H876.887L882.607 336L881.567 336.04L887.247 320.4H888.887L894.567 336.04L893.527 336L899.207 320.4H902.167L894.887 339.2H893.247L887.447 323.8H888.647L882.887 339.2H881.207ZM904.698 339.2V320.4H907.538V339.2H904.698ZM906.098 316.32C905.565 316.32 905.112 316.133 904.738 315.76C904.365 315.36 904.178 314.893 904.178 314.36C904.178 313.8 904.365 313.333 904.738 312.96C905.112 312.587 905.565 312.4 906.098 312.4C906.685 312.4 907.152 312.587 907.498 312.96C907.872 313.333 908.058 313.8 908.058 314.36C908.058 314.893 907.872 315.36 907.498 315.76C907.152 316.133 906.685 316.32 906.098 316.32ZM915.334 339.2V312.48H918.134V339.2H915.334ZM910.574 322.92V320.4H922.854V322.92H910.574ZM939.591 339.2V328.16C939.591 326.507 939.097 325.173 938.111 324.16C937.151 323.12 935.871 322.6 934.271 322.6C933.177 322.6 932.217 322.84 931.391 323.32C930.564 323.8 929.911 324.453 929.431 325.28C928.951 326.107 928.711 327.053 928.711 328.12L927.431 327.4C927.431 325.987 927.764 324.72 928.431 323.6C929.097 322.48 929.991 321.6 931.111 320.96C932.257 320.32 933.564 320 935.031 320C936.471 320 937.751 320.333 938.871 321C939.991 321.64 940.857 322.533 941.471 323.68C942.111 324.827 942.431 326.16 942.431 327.68V339.2H939.591ZM925.911 339.2V310.88H928.711V339.2H925.911ZM962.822 339.6C961.036 339.6 959.436 339.173 958.022 338.32C956.609 337.44 955.489 336.267 954.662 334.8C953.862 333.333 953.462 331.68 953.462 329.84C953.462 327.973 953.862 326.307 954.662 324.84C955.489 323.347 956.609 322.173 958.022 321.32C959.436 320.44 961.022 320 962.782 320C964.222 320 965.502 320.293 966.622 320.88C967.769 321.44 968.689 322.24 969.382 323.28C970.102 324.293 970.542 325.48 970.702 326.84V332.72C970.542 334.08 970.102 335.28 969.382 336.32C968.689 337.36 967.769 338.173 966.622 338.76C965.502 339.32 964.236 339.6 962.822 339.6ZM963.262 336.92C965.209 336.92 966.769 336.267 967.942 334.96C969.142 333.653 969.742 331.933 969.742 329.8C969.742 328.387 969.462 327.147 968.902 326.08C968.369 324.987 967.609 324.147 966.622 323.56C965.662 322.947 964.529 322.64 963.222 322.64C961.889 322.64 960.702 322.947 959.662 323.56C958.649 324.173 957.836 325.027 957.222 326.12C956.636 327.187 956.342 328.413 956.342 329.8C956.342 331.187 956.636 332.413 957.222 333.48C957.836 334.547 958.662 335.387 959.702 336C960.742 336.613 961.929 336.92 963.262 336.92ZM969.582 339.2V334.16L970.142 329.52L969.582 325V320.4H972.382V339.2H969.582ZM486.5 391.2V369.2C486.5 367.893 486.78 366.733 487.34 365.72C487.927 364.707 488.727 363.92 489.74 363.36C490.78 362.773 491.954 362.48 493.26 362.48C494.274 362.48 495.167 362.667 495.94 363.04C496.714 363.387 497.42 363.88 498.06 364.52L496.22 366.36C495.794 365.933 495.34 365.627 494.86 365.44C494.407 365.227 493.874 365.12 493.26 365.12C492.007 365.12 491.034 365.493 490.34 366.24C489.674 366.96 489.34 367.973 489.34 369.28V391.2H486.5ZM481.78 374.92V372.4H495.62V374.92H481.78ZM505.992 391.6C504.178 391.6 502.525 391.16 501.032 390.28C499.565 389.4 498.392 388.213 497.512 386.72C496.658 385.227 496.232 383.56 496.232 381.72C496.232 379.907 496.658 378.267 497.512 376.8C498.392 375.333 499.565 374.173 501.032 373.32C502.525 372.44 504.178 372 505.992 372C507.832 372 509.485 372.427 510.952 373.28C512.418 374.133 513.578 375.307 514.432 376.8C515.312 378.267 515.752 379.907 515.752 381.72C515.752 383.587 515.312 385.267 514.432 386.76C513.578 388.227 512.418 389.4 510.952 390.28C509.485 391.16 507.832 391.6 505.992 391.6ZM505.992 388.88C507.325 388.88 508.498 388.573 509.512 387.96C510.552 387.347 511.365 386.493 511.952 385.4C512.565 384.307 512.872 383.08 512.872 381.72C512.872 380.36 512.565 379.16 511.952 378.12C511.365 377.053 510.552 376.213 509.512 375.6C508.498 374.987 507.325 374.68 505.992 374.68C504.685 374.68 503.512 374.987 502.472 375.6C501.432 376.213 500.618 377.053 500.032 378.12C499.445 379.16 499.152 380.36 499.152 381.72C499.152 383.107 499.445 384.347 500.032 385.44C500.618 386.507 501.432 387.347 502.472 387.96C503.512 388.573 504.685 388.88 505.992 388.88ZM527.966 391.6C526.126 391.6 524.459 391.173 522.966 390.32C521.499 389.44 520.326 388.253 519.446 386.76C518.593 385.267 518.166 383.6 518.166 381.76C518.166 379.92 518.593 378.267 519.446 376.8C520.326 375.307 521.499 374.133 522.966 373.28C524.459 372.427 526.126 372 527.966 372C529.379 372 530.699 372.267 531.926 372.8C533.153 373.333 534.193 374.08 535.046 375.04L533.206 376.92C532.566 376.2 531.793 375.653 530.886 375.28C529.979 374.88 529.006 374.68 527.966 374.68C526.633 374.68 525.446 374.987 524.406 375.6C523.366 376.213 522.553 377.053 521.966 378.12C521.379 379.16 521.086 380.373 521.086 381.76C521.086 383.12 521.379 384.347 521.966 385.44C522.553 386.507 523.366 387.347 524.406 387.96C525.446 388.573 526.633 388.88 527.966 388.88C529.033 388.88 530.019 388.693 530.926 388.32C531.833 387.92 532.606 387.36 533.246 386.64L535.126 388.52C534.246 389.507 533.179 390.267 531.926 390.8C530.699 391.333 529.379 391.6 527.966 391.6ZM545.694 391.6C544.174 391.6 542.814 391.253 541.614 390.56C540.414 389.84 539.468 388.867 538.774 387.64C538.108 386.413 537.774 384.973 537.774 383.32V372.4H540.614V383.2C540.614 384.347 540.814 385.347 541.214 386.2C541.641 387.053 542.241 387.72 543.014 388.2C543.788 388.68 544.681 388.92 545.694 388.92C547.268 388.92 548.508 388.4 549.414 387.36C550.348 386.32 550.814 384.933 550.814 383.2V372.4H553.614V383.32C553.614 384.947 553.281 386.387 552.614 387.64C551.948 388.893 551.014 389.867 549.814 390.56C548.614 391.253 547.241 391.6 545.694 391.6ZM563.8 391.6C562.787 391.6 561.814 391.467 560.88 391.2C559.947 390.907 559.094 390.507 558.32 390C557.574 389.493 556.92 388.893 556.36 388.2L558.16 386.36C558.907 387.267 559.747 387.947 560.68 388.4C561.64 388.827 562.707 389.04 563.88 389.04C565.134 389.04 566.107 388.8 566.8 388.32C567.52 387.84 567.88 387.173 567.88 386.32C567.88 385.52 567.627 384.893 567.12 384.44C566.614 383.987 565.96 383.627 565.16 383.36C564.387 383.093 563.56 382.84 562.68 382.6C561.8 382.333 560.96 382.013 560.16 381.64C559.36 381.24 558.707 380.693 558.2 380C557.72 379.307 557.48 378.4 557.48 377.28C557.48 376.213 557.734 375.293 558.24 374.52C558.774 373.72 559.52 373.107 560.48 372.68C561.467 372.227 562.627 372 563.96 372C565.374 372 566.654 372.253 567.8 372.76C568.947 373.267 569.867 374.013 570.56 375L568.76 376.8C568.2 376.08 567.494 375.533 566.64 375.16C565.814 374.76 564.88 374.56 563.84 374.56C562.64 374.56 561.72 374.8 561.08 375.28C560.467 375.733 560.16 376.333 560.16 377.08C560.16 377.8 560.414 378.373 560.92 378.8C561.427 379.2 562.067 379.533 562.84 379.8C563.64 380.04 564.48 380.293 565.36 380.56C566.24 380.8 567.08 381.133 567.88 381.56C568.68 381.96 569.32 382.52 569.8 383.24C570.307 383.933 570.56 384.88 570.56 386.08C570.56 387.76 569.947 389.107 568.72 390.12C567.52 391.107 565.88 391.6 563.8 391.6ZM590.507 391.6C588.694 391.6 587.041 391.16 585.547 390.28C584.081 389.4 582.907 388.213 582.027 386.72C581.174 385.227 580.747 383.56 580.747 381.72C580.747 379.907 581.174 378.267 582.027 376.8C582.907 375.333 584.081 374.173 585.547 373.32C587.041 372.44 588.694 372 590.507 372C592.347 372 594.001 372.427 595.467 373.28C596.934 374.133 598.094 375.307 598.947 376.8C599.827 378.267 600.267 379.907 600.267 381.72C600.267 383.587 599.827 385.267 598.947 386.76C598.094 388.227 596.934 389.4 595.467 390.28C594.001 391.16 592.347 391.6 590.507 391.6ZM590.507 388.88C591.841 388.88 593.014 388.573 594.027 387.96C595.067 387.347 595.881 386.493 596.467 385.4C597.081 384.307 597.387 383.08 597.387 381.72C597.387 380.36 597.081 379.16 596.467 378.12C595.881 377.053 595.067 376.213 594.027 375.6C593.014 374.987 591.841 374.68 590.507 374.68C589.201 374.68 588.027 374.987 586.987 375.6C585.947 376.213 585.134 377.053 584.547 378.12C583.961 379.16 583.667 380.36 583.667 381.72C583.667 383.107 583.961 384.347 584.547 385.44C585.134 386.507 585.947 387.347 586.987 387.96C588.027 388.573 589.201 388.88 590.507 388.88ZM617.602 391.2V380.16C617.602 378.507 617.108 377.173 616.122 376.16C615.162 375.12 613.882 374.6 612.282 374.6C611.188 374.6 610.228 374.84 609.402 375.32C608.575 375.8 607.922 376.453 607.442 377.28C606.962 378.107 606.722 379.053 606.722 380.12L605.442 379.4C605.442 377.987 605.775 376.72 606.442 375.6C607.108 374.48 608.002 373.6 609.122 372.96C610.268 372.32 611.575 372 613.042 372C614.482 372 615.762 372.347 616.882 373.04C618.002 373.733 618.868 374.667 619.482 375.84C620.122 377.013 620.442 378.293 620.442 379.68V391.2H617.602ZM603.922 391.2V372.4H606.722V391.2H603.922ZM764.882 391.6C763.095 391.6 761.495 391.173 760.082 390.32C758.668 389.44 757.548 388.267 756.722 386.8C755.922 385.333 755.522 383.68 755.522 381.84C755.522 379.973 755.922 378.307 756.722 376.84C757.548 375.347 758.668 374.173 760.082 373.32C761.495 372.44 763.082 372 764.842 372C766.282 372 767.562 372.293 768.682 372.88C769.828 373.44 770.748 374.24 771.442 375.28C772.162 376.293 772.602 377.48 772.762 378.84V384.72C772.602 386.08 772.162 387.28 771.442 388.32C770.748 389.36 769.828 390.173 768.682 390.76C767.562 391.32 766.295 391.6 764.882 391.6ZM765.322 388.92C767.268 388.92 768.828 388.267 770.002 386.96C771.202 385.653 771.802 383.933 771.802 381.8C771.802 380.387 771.522 379.147 770.962 378.08C770.428 376.987 769.668 376.147 768.682 375.56C767.722 374.947 766.588 374.64 765.282 374.64C763.948 374.64 762.762 374.947 761.722 375.56C760.708 376.173 759.895 377.027 759.282 378.12C758.695 379.187 758.402 380.413 758.402 381.8C758.402 383.187 758.695 384.413 759.282 385.48C759.895 386.547 760.722 387.387 761.762 388C762.802 388.613 763.988 388.92 765.322 388.92ZM771.642 391.2V386.16L772.202 381.52L771.642 377V372.4H774.442V391.2H771.642ZM793 391.2V380.16C793 378.507 792.507 377.173 791.52 376.16C790.56 375.12 789.28 374.6 787.68 374.6C786.587 374.6 785.627 374.84 784.8 375.32C783.973 375.8 783.32 376.453 782.84 377.28C782.36 378.107 782.12 379.053 782.12 380.12L780.84 379.4C780.84 377.987 781.173 376.72 781.84 375.6C782.507 374.48 783.4 373.6 784.52 372.96C785.667 372.32 786.973 372 788.44 372C789.88 372 791.16 372.347 792.28 373.04C793.4 373.733 794.267 374.667 794.88 375.84C795.52 377.013 795.84 378.293 795.84 379.68V391.2H793ZM779.32 391.2V372.4H782.12V391.2H779.32ZM808.278 391.6C806.545 391.6 804.985 391.173 803.598 390.32C802.211 389.467 801.105 388.307 800.278 386.84C799.478 385.347 799.078 383.68 799.078 381.84C799.078 379.973 799.478 378.307 800.278 376.84C801.105 375.347 802.211 374.173 803.598 373.32C804.985 372.44 806.545 372 808.278 372C809.691 372 810.971 372.28 812.118 372.84C813.265 373.4 814.211 374.2 814.958 375.24C815.731 376.253 816.185 377.453 816.318 378.84V384.72C816.158 386.08 815.705 387.28 814.958 388.32C814.238 389.333 813.305 390.133 812.158 390.72C811.011 391.307 809.718 391.6 808.278 391.6ZM808.758 388.92C810.065 388.92 811.211 388.627 812.198 388.04C813.185 387.427 813.958 386.587 814.518 385.52C815.078 384.427 815.358 383.187 815.358 381.8C815.358 380.387 815.065 379.147 814.478 378.08C813.918 377.013 813.145 376.173 812.158 375.56C811.171 374.947 810.025 374.64 808.718 374.64C807.411 374.64 806.251 374.947 805.238 375.56C804.225 376.173 803.425 377.027 802.838 378.12C802.278 379.187 801.998 380.413 801.998 381.8C801.998 383.187 802.278 384.427 802.838 385.52C803.425 386.587 804.225 387.427 805.238 388.04C806.278 388.627 807.451 388.92 808.758 388.92ZM817.998 391.2H815.198V386.16L815.758 381.52L815.198 377V362.88H817.998V391.2Z" fill="#64748B"/>
<path d="M500.695 339.2V310.88H503.495V339.2H500.695ZM516.892 339.6C515.078 339.6 513.425 339.16 511.932 338.28C510.465 337.4 509.292 336.213 508.412 334.72C507.558 333.227 507.132 331.56 507.132 329.72C507.132 327.907 507.558 326.267 508.412 324.8C509.292 323.333 510.465 322.173 511.932 321.32C513.425 320.44 515.078 320 516.892 320C518.732 320 520.385 320.427 521.852 321.28C523.318 322.133 524.478 323.307 525.332 324.8C526.212 326.267 526.652 327.907 526.652 329.72C526.652 331.587 526.212 333.267 525.332 334.76C524.478 336.227 523.318 337.4 521.852 338.28C520.385 339.16 518.732 339.6 516.892 339.6ZM516.892 336.88C518.225 336.88 519.398 336.573 520.412 335.96C521.452 335.347 522.265 334.493 522.852 333.4C523.465 332.307 523.772 331.08 523.772 329.72C523.772 328.36 523.465 327.16 522.852 326.12C522.265 325.053 521.452 324.213 520.412 323.6C519.398 322.987 518.225 322.68 516.892 322.68C515.585 322.68 514.412 322.987 513.372 323.6C512.332 324.213 511.518 325.053 510.932 326.12C510.345 327.16 510.052 328.36 510.052 329.72C510.052 331.107 510.345 332.347 510.932 333.44C511.518 334.507 512.332 335.347 513.372 335.96C514.412 336.573 515.585 336.88 516.892 336.88ZM536.085 339.2L527.405 320.4H530.525L537.845 336.84H536.085L543.445 320.4H546.485L537.725 339.2H536.085ZM557.092 339.6C555.199 339.6 553.506 339.173 552.012 338.32C550.519 337.467 549.332 336.293 548.452 334.8C547.599 333.307 547.172 331.627 547.172 329.76C547.172 327.92 547.599 326.267 548.452 324.8C549.306 323.307 550.466 322.133 551.932 321.28C553.399 320.427 555.039 320 556.852 320C558.559 320 560.066 320.387 561.372 321.16C562.706 321.933 563.746 323.013 564.492 324.4C565.266 325.76 565.652 327.333 565.652 329.12C565.652 329.333 565.639 329.587 565.612 329.88C565.586 330.147 565.532 330.467 565.452 330.84H549.172V328.44H563.932L562.932 329.32C562.959 327.933 562.719 326.747 562.212 325.76C561.732 324.747 561.026 323.973 560.092 323.44C559.186 322.88 558.079 322.6 556.772 322.6C555.412 322.6 554.226 322.893 553.212 323.48C552.199 324.067 551.399 324.893 550.812 325.96C550.252 327 549.972 328.24 549.972 329.68C549.972 331.12 550.266 332.387 550.852 333.48C551.466 334.573 552.306 335.427 553.372 336.04C554.466 336.653 555.719 336.96 557.132 336.96C558.279 336.96 559.332 336.76 560.292 336.36C561.252 335.933 562.066 335.307 562.732 334.48L564.532 336.32C563.652 337.36 562.559 338.173 561.252 338.76C559.972 339.32 558.586 339.6 557.092 339.6ZM642.393 391.6C640.953 391.6 639.66 391.307 638.513 390.72C637.367 390.133 636.42 389.333 635.673 388.32C634.953 387.28 634.513 386.08 634.353 384.72V378.84C634.513 377.453 634.967 376.253 635.713 375.24C636.46 374.2 637.407 373.4 638.553 372.84C639.727 372.28 641.007 372 642.393 372C644.127 372 645.687 372.44 647.073 373.32C648.46 374.173 649.553 375.347 650.353 376.84C651.18 378.307 651.593 379.973 651.593 381.84C651.593 383.68 651.193 385.333 650.393 386.8C649.593 388.267 648.487 389.44 647.073 390.32C645.687 391.173 644.127 391.6 642.393 391.6ZM641.913 388.92C643.247 388.92 644.42 388.627 645.433 388.04C646.447 387.427 647.233 386.587 647.793 385.52C648.38 384.427 648.673 383.187 648.673 381.8C648.673 380.387 648.38 379.147 647.793 378.08C647.233 377.013 646.447 376.173 645.433 375.56C644.42 374.947 643.26 374.64 641.953 374.64C640.647 374.64 639.487 374.947 638.473 375.56C637.487 376.173 636.713 377.013 636.153 378.08C635.593 379.147 635.313 380.387 635.313 381.8C635.313 383.187 635.593 384.427 636.153 385.52C636.713 386.587 637.487 387.427 638.473 388.04C639.46 388.627 640.607 388.92 641.913 388.92ZM632.673 399.12V372.4H635.473V377.2L634.913 381.76L635.473 386.36V399.12H632.673ZM663.952 391.6C662.058 391.6 660.365 391.173 658.872 390.32C657.378 389.467 656.192 388.293 655.312 386.8C654.458 385.307 654.032 383.627 654.032 381.76C654.032 379.92 654.458 378.267 655.312 376.8C656.165 375.307 657.325 374.133 658.792 373.28C660.258 372.427 661.898 372 663.712 372C665.418 372 666.925 372.387 668.232 373.16C669.565 373.933 670.605 375.013 671.352 376.4C672.125 377.76 672.512 379.333 672.512 381.12C672.512 381.333 672.498 381.587 672.472 381.88C672.445 382.147 672.392 382.467 672.312 382.84H656.032V380.44H670.792L669.792 381.32C669.818 379.933 669.578 378.747 669.072 377.76C668.592 376.747 667.885 375.973 666.952 375.44C666.045 374.88 664.938 374.6 663.632 374.6C662.272 374.6 661.085 374.893 660.072 375.48C659.058 376.067 658.258 376.893 657.672 377.96C657.112 379 656.832 380.24 656.832 381.68C656.832 383.12 657.125 384.387 657.712 385.48C658.325 386.573 659.165 387.427 660.232 388.04C661.325 388.653 662.578 388.96 663.992 388.96C665.138 388.96 666.192 388.76 667.152 388.36C668.112 387.933 668.925 387.307 669.592 386.48L671.392 388.32C670.512 389.36 669.418 390.173 668.112 390.76C666.832 391.32 665.445 391.6 663.952 391.6ZM684.515 391.6C682.702 391.6 681.048 391.16 679.555 390.28C678.088 389.4 676.915 388.213 676.035 386.72C675.182 385.227 674.755 383.56 674.755 381.72C674.755 379.907 675.182 378.267 676.035 376.8C676.915 375.333 678.088 374.173 679.555 373.32C681.048 372.44 682.702 372 684.515 372C686.355 372 688.008 372.427 689.475 373.28C690.942 374.133 692.102 375.307 692.955 376.8C693.835 378.267 694.275 379.907 694.275 381.72C694.275 383.587 693.835 385.267 692.955 386.76C692.102 388.227 690.942 389.4 689.475 390.28C688.008 391.16 686.355 391.6 684.515 391.6ZM684.515 388.88C685.848 388.88 687.022 388.573 688.035 387.96C689.075 387.347 689.888 386.493 690.475 385.4C691.088 384.307 691.395 383.08 691.395 381.72C691.395 380.36 691.088 379.16 690.475 378.12C689.888 377.053 689.075 376.213 688.035 375.6C687.022 374.987 685.848 374.68 684.515 374.68C683.208 374.68 682.035 374.987 680.995 375.6C679.955 376.213 679.142 377.053 678.555 378.12C677.968 379.16 677.675 380.36 677.675 381.72C677.675 383.107 677.968 384.347 678.555 385.44C679.142 386.507 679.955 387.347 680.995 387.96C682.035 388.573 683.208 388.88 684.515 388.88ZM707.649 391.6C706.209 391.6 704.916 391.307 703.769 390.72C702.623 390.133 701.676 389.333 700.929 388.32C700.209 387.28 699.769 386.08 699.609 384.72V378.84C699.769 377.453 700.223 376.253 700.969 375.24C701.716 374.2 702.663 373.4 703.809 372.84C704.983 372.28 706.263 372 707.649 372C709.383 372 710.943 372.44 712.329 373.32C713.716 374.173 714.809 375.347 715.609 376.84C716.436 378.307 716.849 379.973 716.849 381.84C716.849 383.68 716.449 385.333 715.649 386.8C714.849 388.267 713.743 389.44 712.329 390.32C710.943 391.173 709.383 391.6 707.649 391.6ZM707.169 388.92C708.503 388.92 709.676 388.627 710.689 388.04C711.703 387.427 712.489 386.587 713.049 385.52C713.636 384.427 713.929 383.187 713.929 381.8C713.929 380.387 713.636 379.147 713.049 378.08C712.489 377.013 711.703 376.173 710.689 375.56C709.676 374.947 708.516 374.64 707.209 374.64C705.903 374.64 704.743 374.947 703.729 375.56C702.743 376.173 701.969 377.013 701.409 378.08C700.849 379.147 700.569 380.387 700.569 381.8C700.569 383.187 700.849 384.427 701.409 385.52C701.969 386.587 702.743 387.427 703.729 388.04C704.716 388.627 705.863 388.92 707.169 388.92ZM697.929 399.12V372.4H700.729V377.2L700.169 381.76L700.729 386.36V399.12H697.929ZM720.528 391.2V362.88H723.328V391.2H720.528ZM736.884 391.6C734.991 391.6 733.298 391.173 731.804 390.32C730.311 389.467 729.124 388.293 728.244 386.8C727.391 385.307 726.964 383.627 726.964 381.76C726.964 379.92 727.391 378.267 728.244 376.8C729.098 375.307 730.258 374.133 731.724 373.28C733.191 372.427 734.831 372 736.644 372C738.351 372 739.858 372.387 741.164 373.16C742.498 373.933 743.538 375.013 744.284 376.4C745.058 377.76 745.444 379.333 745.444 381.12C745.444 381.333 745.431 381.587 745.404 381.88C745.378 382.147 745.324 382.467 745.244 382.84H728.964V380.44H743.724L742.724 381.32C742.751 379.933 742.511 378.747 742.004 377.76C741.524 376.747 740.818 375.973 739.884 375.44C738.978 374.88 737.871 374.6 736.564 374.6C735.204 374.6 734.018 374.893 733.004 375.48C731.991 376.067 731.191 376.893 730.604 377.96C730.044 379 729.764 380.24 729.764 381.68C729.764 383.12 730.058 384.387 730.644 385.48C731.258 386.573 732.098 387.427 733.164 388.04C734.258 388.653 735.511 388.96 736.924 388.96C738.071 388.96 739.124 388.76 740.084 388.36C741.044 387.933 741.858 387.307 742.524 386.48L744.324 388.32C743.444 389.36 742.351 390.173 741.044 390.76C739.764 391.32 738.378 391.6 736.884 391.6ZM838.11 391.6C836.59 391.6 835.23 391.253 834.03 390.56C832.83 389.84 831.883 388.867 831.19 387.64C830.523 386.413 830.19 384.973 830.19 383.32V372.4H833.03V383.2C833.03 384.347 833.23 385.347 833.63 386.2C834.057 387.053 834.657 387.72 835.43 388.2C836.203 388.68 837.097 388.92 838.11 388.92C839.683 388.92 840.923 388.4 841.83 387.36C842.763 386.32 843.23 384.933 843.23 383.2V372.4H846.03V383.32C846.03 384.947 845.697 386.387 845.03 387.64C844.363 388.893 843.43 389.867 842.23 390.56C841.03 391.253 839.657 391.6 838.11 391.6ZM856.216 391.6C855.203 391.6 854.229 391.467 853.296 391.2C852.363 390.907 851.509 390.507 850.736 390C849.989 389.493 849.336 388.893 848.776 388.2L850.576 386.36C851.323 387.267 852.163 387.947 853.096 388.4C854.056 388.827 855.123 389.04 856.296 389.04C857.549 389.04 858.523 388.8 859.216 388.32C859.936 387.84 860.296 387.173 860.296 386.32C860.296 385.52 860.043 384.893 859.536 384.44C859.029 383.987 858.376 383.627 857.576 383.36C856.803 383.093 855.976 382.84 855.096 382.6C854.216 382.333 853.376 382.013 852.576 381.64C851.776 381.24 851.123 380.693 850.616 380C850.136 379.307 849.896 378.4 849.896 377.28C849.896 376.213 850.149 375.293 850.656 374.52C851.189 373.72 851.936 373.107 852.896 372.68C853.883 372.227 855.043 372 856.376 372C857.789 372 859.069 372.253 860.216 372.76C861.363 373.267 862.283 374.013 862.976 375L861.176 376.8C860.616 376.08 859.909 375.533 859.056 375.16C858.229 374.76 857.296 374.56 856.256 374.56C855.056 374.56 854.136 374.8 853.496 375.28C852.883 375.733 852.576 376.333 852.576 377.08C852.576 377.8 852.829 378.373 853.336 378.8C853.843 379.2 854.483 379.533 855.256 379.8C856.056 380.04 856.896 380.293 857.776 380.56C858.656 380.8 859.496 381.133 860.296 381.56C861.096 381.96 861.736 382.52 862.216 383.24C862.723 383.933 862.976 384.88 862.976 386.08C862.976 387.76 862.363 389.107 861.136 390.12C859.936 391.107 858.296 391.6 856.216 391.6ZM874.769 391.6C872.982 391.6 871.382 391.173 869.969 390.32C868.556 389.44 867.436 388.267 866.609 386.8C865.809 385.333 865.409 383.68 865.409 381.84C865.409 379.973 865.809 378.307 866.609 376.84C867.436 375.347 868.556 374.173 869.969 373.32C871.382 372.44 872.969 372 874.729 372C876.169 372 877.449 372.293 878.569 372.88C879.716 373.44 880.636 374.24 881.329 375.28C882.049 376.293 882.489 377.48 882.649 378.84V384.72C882.489 386.08 882.049 387.28 881.329 388.32C880.636 389.36 879.716 390.173 878.569 390.76C877.449 391.32 876.182 391.6 874.769 391.6ZM875.209 388.92C877.156 388.92 878.716 388.267 879.889 386.96C881.089 385.653 881.689 383.933 881.689 381.8C881.689 380.387 881.409 379.147 880.849 378.08C880.316 376.987 879.556 376.147 878.569 375.56C877.609 374.947 876.476 374.64 875.169 374.64C873.836 374.64 872.649 374.947 871.609 375.56C870.596 376.173 869.782 377.027 869.169 378.12C868.582 379.187 868.289 380.413 868.289 381.8C868.289 383.187 868.582 384.413 869.169 385.48C869.782 386.547 870.609 387.387 871.649 388C872.689 388.613 873.876 388.92 875.209 388.92ZM881.529 391.2V386.16L882.089 381.52L881.529 377V372.4H884.329V391.2H881.529ZM898.928 391.6C897.488 391.6 896.194 391.307 895.048 390.72C893.901 390.133 892.954 389.333 892.208 388.32C891.488 387.28 891.048 386.08 890.888 384.72V378.84C891.048 377.453 891.501 376.253 892.248 375.24C892.994 374.2 893.941 373.4 895.088 372.84C896.261 372.28 897.541 372 898.928 372C900.661 372 902.221 372.44 903.608 373.32C904.994 374.173 906.088 375.347 906.888 376.84C907.714 378.307 908.128 379.973 908.128 381.84C908.128 383.68 907.728 385.333 906.928 386.8C906.128 388.267 905.021 389.44 903.608 390.32C902.221 391.173 900.661 391.6 898.928 391.6ZM898.448 388.92C899.781 388.92 900.954 388.627 901.968 388.04C902.981 387.427 903.768 386.587 904.328 385.52C904.914 384.427 905.208 383.187 905.208 381.8C905.208 380.387 904.914 379.147 904.328 378.08C903.768 377.013 902.981 376.173 901.968 375.56C900.954 374.947 899.794 374.64 898.488 374.64C897.181 374.64 896.021 374.947 895.008 375.56C894.021 376.173 893.248 377.013 892.688 378.08C892.128 379.147 891.848 380.387 891.848 381.8C891.848 383.187 892.128 384.427 892.688 385.52C893.248 386.587 894.021 387.427 895.008 388.04C895.994 388.627 897.141 388.92 898.448 388.92ZM889.208 391.2V362.88H892.008V377L891.448 381.52L892.008 386.16V391.2H889.208ZM911.806 391.2V372.4H914.646V391.2H911.806ZM913.206 368.32C912.673 368.32 912.219 368.133 911.846 367.76C911.473 367.36 911.286 366.893 911.286 366.36C911.286 365.8 911.473 365.333 911.846 364.96C912.219 364.587 912.673 364.4 913.206 364.4C913.793 364.4 914.259 364.587 914.606 364.96C914.979 365.333 915.166 365.8 915.166 366.36C915.166 366.893 914.979 367.36 914.606 367.76C914.259 368.133 913.793 368.32 913.206 368.32ZM919.522 391.2V362.88H922.322V391.2H919.522ZM927.198 391.2V372.4H930.038V391.2H927.198ZM928.598 368.32C928.065 368.32 927.612 368.133 927.238 367.76C926.865 367.36 926.678 366.893 926.678 366.36C926.678 365.8 926.865 365.333 927.238 364.96C927.612 364.587 928.065 364.4 928.598 364.4C929.185 364.4 929.652 364.587 929.998 364.96C930.372 365.333 930.558 365.8 930.558 366.36C930.558 366.893 930.372 367.36 929.998 367.76C929.652 368.133 929.185 368.32 928.598 368.32ZM937.834 391.2V364.48H940.634V391.2H937.834ZM933.074 374.92V372.4H945.354V374.92H933.074ZM954.691 391.28L946.451 372.4H949.531L956.171 388.16H955.011L962.011 372.4H965.131L956.291 391.28H954.691ZM949.571 399.12L954.731 388.44L956.291 391.28L952.651 399.12H949.571Z" fill="#C566FC"/>
<defs>
<filter id="filter0_f_396_700" x="0.000389099" y="99.3" width="517.8" height="516.8" filterUnits="userSpaceOnUse" color-interpolation-filters="sRGB">
<feFlood flood-opacity="0" result="BackgroundImageFix"/>
<feBlend mode="normal" in="SourceGraphic" in2="BackgroundImageFix" result="shape"/>
<feGaussianBlur stdDeviation="58.95" result="effect1_foregroundBlur_396_700"/>
</filter>
<filter id="filter1_f_396_700" x="87.7004" y="1.52588e-05" width="501.4" height="473.4" filterUnits="userSpaceOnUse" color-interpolation-filters="sRGB">
<feFlood flood-opacity="0" result="BackgroundImageFix"/>
<feBlend mode="normal" in="SourceGraphic" in2="BackgroundImageFix" result="shape"/>
<feGaussianBlur stdDeviation="63.1" result="effect1_foregroundBlur_396_700"/>
</filter>
<filter id="filter2_di_396_700" x="154.009" y="140.31" width="336.781" height="336.781" filterUnits="userSpaceOnUse" color-interpolation-filters="sRGB">
<feFlood flood-opacity="0" result="BackgroundImageFix"/>
<feColorMatrix in="SourceAlpha" type="matrix" values="0 0 0 0 0 0 0 0 0 0 0 0 0 0 0 0 0 0 127 0" result="hardAlpha"/>
<feOffset dx="-16" dy="-7"/>
<feGaussianBlur stdDeviation="20.05"/>
<feComposite in2="hardAlpha" operator="out"/>
<feColorMatrix type="matrix" values="0 0 0 0 0.136133 0 0 0 0 0.0249646 0 0 0 0 0.18765 0 0 0 0.1 0"/>
<feBlend mode="normal" in2="BackgroundImageFix" result="effect1_dropShadow_396_700"/>
<feBlend mode="normal" in="SourceGraphic" in2="effect1_dropShadow_396_700" result="shape"/>
<feColorMatrix in="SourceAlpha" type="matrix" values="0 0 0 0 0 0 0 0 0 0 0 0 0 0 0 0 0 0 127 0" result="hardAlpha"/>
<feOffset dx="-1"/>
<feGaussianBlur stdDeviation="3.8"/>
<feComposite in2="hardAlpha" operator="arithmetic" k2="-1" k3="1"/>
<feColorMatrix type="matrix" values="0 0 0 0 0.636606 0 0 0 0 0.274199 0 0 0 0 0.413122 0 0 0 0.06 0"/>
<feBlend mode="normal" in2="shape" result="effect2_innerShadow_396_700"/>
</filter>
<filter id="filter3_f_396_700" x="230.858" y="177.158" width="203.063" height="203.063" filterUnits="userSpaceOnUse" color-interpolation-filters="sRGB">
<feFlood flood-opacity="0" result="BackgroundImageFix"/>
<feBlend mode="normal" in="SourceGraphic" in2="BackgroundImageFix" result="shape"/>
<feGaussianBlur stdDeviation="20.05" result="effect1_foregroundBlur_396_700"/>
</filter>
<filter id="filter4_f_396_700" x="215.029" y="300.958" width="216.251" height="191.142" filterUnits="userSpaceOnUse" color-interpolation-filters="sRGB">
<feFlood flood-opacity="0" result="BackgroundImageFix"/>
<feBlend mode="normal" in="SourceGraphic" in2="BackgroundImageFix" result="shape"/>
<feGaussianBlur stdDeviation="23.15" result="effect1_foregroundBlur_396_700"/>
</filter>
<filter id="filter5_d_396_700" x="279.345" y="305.632" width="171.485" height="45.926" filterUnits="userSpaceOnUse" color-interpolation-filters="sRGB">
<feFlood flood-opacity="0" result="BackgroundImageFix"/>
<feColorMatrix in="SourceAlpha" type="matrix" values="0 0 0 0 0 0 0 0 0 0 0 0 0 0 0 0 0 0 127 0" result="hardAlpha"/>
<feOffset/>
<feGaussianBlur stdDeviation="2"/>
<feComposite in2="hardAlpha" operator="out"/>
<feColorMatrix type="matrix" values="0 0 0 0 0 0 0 0 0 0 0 0 0 0 0 0 0 0 0.05 0"/>
<feBlend mode="normal" in2="BackgroundImageFix" result="effect1_dropShadow_396_700"/>
<feBlend mode="normal" in="SourceGraphic" in2="effect1_dropShadow_396_700" result="shape"/>
</filter>
<radialGradient id="paint0_radial_396_700" cx="0" cy="0" r="1" gradientUnits="userSpaceOnUse" gradientTransform="translate(365.768 308.069) rotate(52.0963) scale(213.894)">
<stop offset="0.54275" stop-color="white" stop-opacity="0.1"/>
<stop offset="0.966346" stop-color="white" stop-opacity="0.5"/>
</radialGradient>
</defs>
</svg>
