<svg width="275" height="246" viewBox="0 0 275 246" fill="none" xmlns="http://www.w3.org/2000/svg">
<path d="M228.41 90.8517C228.407 53.7471 205.828 20.3727 171.376 6.54653C136.924 -7.27968 97.5217 1.22072 71.8436 28.019C46.1655 54.8172 39.372 94.528 54.6829 128.33H220.319C225.663 116.558 228.422 103.779 228.41 90.8517Z" fill="black" fill-opacity="0.03"/>
<path d="M48.8647 128.33H226.137" stroke="#A2AEBA" stroke-width="2" stroke-linecap="round" stroke-linejoin="round"/>
<ellipse cx="136.09" cy="151" rx="33.5" ry="7" fill="black" fill-opacity="0.03"/>
<ellipse cx="183.09" cy="163" rx="33.5" ry="7" fill="black" fill-opacity="0.03"/>
<path d="M188.137 63.2766C188.137 61.0919 187.268 58.997 185.72 57.4543C184.172 55.9117 182.073 55.048 179.887 55.054H95.1147C92.9288 55.048 90.8303 55.9117 89.2825 57.4543C87.7347 58.997 86.8647 61.0919 86.8647 63.2766V119.449H188.137V63.2766Z" fill="#F6EDEE"/>
<path d="M154.524 55.054H95.1147C92.9288 55.048 90.8303 55.9117 89.2825 57.4543C87.7347 58.997 86.8647 61.0919 86.8647 63.2766V119.449H90.092L154.524 55.054Z" fill="white"/>
<path d="M149.774 143.98H125.229L126.751 131.715H148.251L149.774 143.98V143.98Z" fill="white"/>
<path fill-rule="evenodd" clip-rule="evenodd" d="M149.774 143.98H125.229L126.751 131.715H148.251L149.774 143.98V143.98Z" stroke="#A2AEBA" stroke-width="2" stroke-linecap="round" stroke-linejoin="round"/>
<path d="M155.069 150.113H119.933C119.289 150.119 118.685 149.8 118.327 149.264C117.97 148.728 117.907 148.048 118.16 147.456C119.181 145.334 121.327 143.983 123.683 143.98H151.319C153.675 143.983 155.821 145.334 156.842 147.456C157.095 148.048 157.033 148.728 156.675 149.264C156.318 149.8 155.714 150.119 155.069 150.113V150.113Z" fill="white" stroke="#A2AEBA" stroke-width="2" stroke-linecap="round" stroke-linejoin="round"/>
<path d="M179.887 131.715C182.073 131.721 184.172 130.857 185.72 129.314C187.268 127.772 188.137 125.677 188.137 123.492V119.449H86.8647V123.492C86.8647 125.677 87.7347 127.772 89.2825 129.314C90.8303 130.857 92.9288 131.721 95.1147 131.715H179.887Z" fill="white" stroke="#A2AEBA" stroke-width="2" stroke-linecap="round" stroke-linejoin="round"/>
<path fill-rule="evenodd" clip-rule="evenodd" d="M188.137 63.2766C188.137 61.0919 187.268 58.997 185.72 57.4543C184.172 55.9117 182.073 55.048 179.887 55.054H95.1147C92.9288 55.048 90.8303 55.9117 89.2825 57.4543C87.7347 58.997 86.8647 61.0919 86.8647 63.2766V119.449H188.137V63.2766Z" stroke="#A2AEBA" stroke-width="2" stroke-linecap="round" stroke-linejoin="round"/>
<path fill-rule="evenodd" clip-rule="evenodd" d="M138.865 125.582C138.865 126.335 138.254 126.945 137.501 126.945C136.748 126.945 136.138 126.335 136.138 125.582C136.138 124.829 136.748 124.219 137.501 124.219C138.254 124.219 138.865 124.829 138.865 125.582Z" stroke="#A2AEBA" stroke-width="2" stroke-linecap="round" stroke-linejoin="round"/>
<rect x="206.638" y="163" width="44" height="69" rx="6" transform="rotate(-180 206.638 163)" fill="white" stroke="#A2AEBA" stroke-width="2" stroke-linecap="round" stroke-linejoin="round"/>
<rect x="203.638" y="153" width="38" height="56" rx="4" transform="rotate(-180 203.638 153)" stroke="#A2AEBA" stroke-width="2" stroke-linecap="round" stroke-linejoin="round"/>
<rect width="16" height="1.39876e-06" rx="6.99382e-07" transform="matrix(-1 -8.74228e-08 -8.74228e-08 1 192.638 158)" stroke="#A2AEBA" stroke-width="2" stroke-linecap="round" stroke-linejoin="round"/>
<path d="M184.995 134.652C182.96 134.652 181.31 133.002 181.31 130.966C181.31 128.93 182.96 127.28 184.995 127.28C187.031 127.28 188.681 128.93 188.681 130.966C188.681 133.002 187.031 134.652 184.995 134.652Z" stroke="#A2AEBA" stroke-width="2"/>
<path d="M194.382 123.26L189.691 119.579L194.382 116.074" stroke="#A2AEBA" stroke-width="2" stroke-linecap="round" stroke-linejoin="round"/>
<path d="M175.608 123.26L180.299 119.579L175.608 116.074" stroke="#A2AEBA" stroke-width="2" stroke-linecap="round" stroke-linejoin="round"/>
<path d="M50.701 208V195.508H52.393V208H50.701ZM51.853 202.51V200.962H58.369V202.51H51.853ZM51.853 197.056V195.508H58.675V197.056H51.853ZM63.3803 208.18C62.5403 208.18 61.7843 207.982 61.1123 207.586C60.4403 207.19 59.9063 206.656 59.5103 205.984C59.1143 205.3 58.9163 204.538 58.9163 203.698C58.9163 202.87 59.1143 202.126 59.5103 201.466C59.9063 200.794 60.4403 200.26 61.1123 199.864C61.7843 199.468 62.5403 199.27 63.3803 199.27C64.2083 199.27 64.9583 199.468 65.6303 199.864C66.3143 200.248 66.8543 200.776 67.2503 201.448C67.6463 202.12 67.8443 202.87 67.8443 203.698C67.8443 204.538 67.6463 205.3 67.2503 205.984C66.8543 206.656 66.3143 207.19 65.6303 207.586C64.9583 207.982 64.2083 208.18 63.3803 208.18ZM63.3803 206.614C63.9203 206.614 64.4003 206.488 64.8203 206.236C65.2403 205.984 65.5703 205.642 65.8103 205.21C66.0503 204.766 66.1703 204.262 66.1703 203.698C66.1703 203.146 66.0443 202.654 65.7923 202.222C65.5523 201.79 65.2223 201.454 64.8023 201.214C64.3943 200.962 63.9203 200.836 63.3803 200.836C62.8403 200.836 62.3603 200.962 61.9403 201.214C61.5203 201.454 61.1903 201.79 60.9503 202.222C60.7103 202.654 60.5903 203.146 60.5903 203.698C60.5903 204.262 60.7103 204.766 60.9503 205.21C61.1903 205.642 61.5203 205.984 61.9403 206.236C62.3603 206.488 62.8403 206.614 63.3803 206.614ZM68.8696 208V199.45H70.4896V208H68.8696ZM70.4896 203.122L69.8776 202.852C69.8776 201.76 70.1296 200.89 70.6336 200.242C71.1376 199.594 71.8636 199.27 72.8116 199.27C73.2436 199.27 73.6336 199.348 73.9816 199.504C74.3296 199.648 74.6536 199.894 74.9536 200.242L73.8916 201.34C73.7116 201.148 73.5136 201.01 73.2976 200.926C73.0816 200.842 72.8296 200.8 72.5416 200.8C71.9416 200.8 71.4496 200.992 71.0656 201.376C70.6816 201.76 70.4896 202.342 70.4896 203.122ZM79.8688 208V195.868H81.4888V208H79.8688ZM77.7628 200.926V199.45H83.5948V200.926H77.7628ZM90.4297 208V203.014C90.4297 202.366 90.2257 201.832 89.8177 201.412C89.4097 200.992 88.8817 200.782 88.2337 200.782C87.8017 200.782 87.4177 200.878 87.0817 201.07C86.7457 201.262 86.4817 201.526 86.2897 201.862C86.0977 202.198 86.0017 202.582 86.0017 203.014L85.3357 202.636C85.3357 201.988 85.4797 201.412 85.7677 200.908C86.0557 200.404 86.4577 200.008 86.9737 199.72C87.4897 199.42 88.0717 199.27 88.7197 199.27C89.3677 199.27 89.9377 199.414 90.4297 199.702C90.9337 199.99 91.3297 200.392 91.6177 200.908C91.9057 201.424 92.0497 202.018 92.0497 202.69V208H90.4297ZM84.3817 208V195.148H86.0017V208H84.3817ZM97.4031 208.18C96.5511 208.18 95.7831 207.988 95.0991 207.604C94.4151 207.208 93.8751 206.674 93.4791 206.002C93.0831 205.33 92.8851 204.568 92.8851 203.716C92.8851 202.876 93.0771 202.12 93.4611 201.448C93.8571 200.776 94.3851 200.248 95.0451 199.864C95.7171 199.468 96.4671 199.27 97.2951 199.27C98.0871 199.27 98.7831 199.45 99.3831 199.81C99.9951 200.17 100.469 200.668 100.805 201.304C101.153 201.94 101.327 202.66 101.327 203.464C101.327 203.584 101.321 203.716 101.309 203.86C101.297 203.992 101.273 204.148 101.237 204.328H94.0191V202.978H100.373L99.7791 203.5C99.7791 202.924 99.6771 202.438 99.4731 202.042C99.2691 201.634 98.9811 201.322 98.6091 201.106C98.2371 200.878 97.7871 200.764 97.2591 200.764C96.7071 200.764 96.2211 200.884 95.8011 201.124C95.3811 201.364 95.0571 201.7 94.8291 202.132C94.6011 202.564 94.4871 203.074 94.4871 203.662C94.4871 204.262 94.6071 204.79 94.8471 205.246C95.0871 205.69 95.4291 206.038 95.8731 206.29C96.3171 206.53 96.8271 206.65 97.4031 206.65C97.8831 206.65 98.3211 206.566 98.7171 206.398C99.1251 206.23 99.4731 205.978 99.7611 205.642L100.805 206.704C100.397 207.184 99.8931 207.55 99.2931 207.802C98.7051 208.054 98.0751 208.18 97.4031 208.18ZM109.738 208.18C109.09 208.18 108.502 208.048 107.974 207.784C107.458 207.508 107.044 207.13 106.732 206.65C106.42 206.17 106.246 205.624 106.21 205.012V202.438C106.246 201.814 106.42 201.268 106.732 200.8C107.056 200.32 107.476 199.948 107.992 199.684C108.52 199.408 109.102 199.27 109.738 199.27C110.518 199.27 111.22 199.468 111.844 199.864C112.48 200.26 112.978 200.794 113.338 201.466C113.698 202.138 113.878 202.894 113.878 203.734C113.878 204.574 113.698 205.33 113.338 206.002C112.978 206.674 112.48 207.208 111.844 207.604C111.22 207.988 110.518 208.18 109.738 208.18ZM109.468 206.65C110.008 206.65 110.482 206.524 110.89 206.272C111.298 206.02 111.622 205.678 111.862 205.246C112.102 204.802 112.222 204.292 112.222 203.716C112.222 203.152 112.102 202.648 111.862 202.204C111.622 201.76 111.298 201.418 110.89 201.178C110.482 200.926 110.014 200.8 109.486 200.8C108.946 200.8 108.472 200.926 108.064 201.178C107.656 201.418 107.338 201.76 107.11 202.204C106.882 202.648 106.768 203.158 106.768 203.734C106.768 204.298 106.876 204.802 107.092 205.246C107.32 205.678 107.638 206.02 108.046 206.272C108.466 206.524 108.94 206.65 109.468 206.65ZM105.238 208V195.148H106.858V201.538L106.552 203.608L106.858 205.696V208H105.238ZM118.874 208.18C118.022 208.18 117.254 207.988 116.57 207.604C115.886 207.208 115.346 206.674 114.95 206.002C114.554 205.33 114.356 204.568 114.356 203.716C114.356 202.876 114.548 202.12 114.932 201.448C115.328 200.776 115.856 200.248 116.516 199.864C117.188 199.468 117.938 199.27 118.766 199.27C119.558 199.27 120.254 199.45 120.854 199.81C121.466 200.17 121.94 200.668 122.276 201.304C122.624 201.94 122.798 202.66 122.798 203.464C122.798 203.584 122.792 203.716 122.78 203.86C122.768 203.992 122.744 204.148 122.708 204.328H115.49V202.978H121.844L121.25 203.5C121.25 202.924 121.148 202.438 120.944 202.042C120.74 201.634 120.452 201.322 120.08 201.106C119.708 200.878 119.258 200.764 118.73 200.764C118.178 200.764 117.692 200.884 117.272 201.124C116.852 201.364 116.528 201.7 116.3 202.132C116.072 202.564 115.958 203.074 115.958 203.662C115.958 204.262 116.078 204.79 116.318 205.246C116.558 205.69 116.9 206.038 117.344 206.29C117.788 206.53 118.298 206.65 118.874 206.65C119.354 206.65 119.792 206.566 120.188 206.398C120.596 206.23 120.944 205.978 121.232 205.642L122.276 206.704C121.868 207.184 121.364 207.55 120.764 207.802C120.176 208.054 119.546 208.18 118.874 208.18ZM126.483 208.18C126.003 208.18 125.547 208.12 125.115 208C124.695 207.868 124.305 207.688 123.945 207.46C123.585 207.22 123.273 206.938 123.009 206.614L124.053 205.57C124.365 205.954 124.725 206.242 125.133 206.434C125.541 206.614 125.997 206.704 126.501 206.704C127.005 206.704 127.395 206.62 127.671 206.452C127.947 206.272 128.085 206.026 128.085 205.714C128.085 205.402 127.971 205.162 127.743 204.994C127.527 204.814 127.245 204.67 126.897 204.562C126.549 204.442 126.177 204.328 125.781 204.22C125.397 204.1 125.031 203.95 124.683 203.77C124.335 203.59 124.047 203.344 123.819 203.032C123.603 202.72 123.495 202.306 123.495 201.79C123.495 201.274 123.621 200.83 123.873 200.458C124.125 200.074 124.473 199.78 124.917 199.576C125.373 199.372 125.919 199.27 126.555 199.27C127.227 199.27 127.821 199.39 128.337 199.63C128.865 199.858 129.297 200.206 129.633 200.674L128.589 201.718C128.349 201.406 128.049 201.166 127.689 200.998C127.341 200.83 126.945 200.746 126.501 200.746C126.033 200.746 125.673 200.83 125.421 200.998C125.181 201.154 125.061 201.376 125.061 201.664C125.061 201.952 125.169 202.174 125.385 202.33C125.601 202.486 125.883 202.618 126.231 202.726C126.591 202.834 126.963 202.948 127.347 203.068C127.731 203.176 128.097 203.326 128.445 203.518C128.793 203.71 129.075 203.968 129.291 204.292C129.519 204.616 129.633 205.042 129.633 205.57C129.633 206.374 129.345 207.01 128.769 207.478C128.205 207.946 127.443 208.18 126.483 208.18ZM131.96 208V195.868H133.58V208H131.96ZM129.854 200.926V199.45H135.686V200.926H129.854ZM143.377 208.18C142.525 208.18 141.757 207.988 141.073 207.604C140.389 207.208 139.849 206.674 139.453 206.002C139.057 205.33 138.859 204.568 138.859 203.716C138.859 202.876 139.051 202.12 139.435 201.448C139.831 200.776 140.359 200.248 141.019 199.864C141.691 199.468 142.441 199.27 143.269 199.27C144.061 199.27 144.757 199.45 145.357 199.81C145.969 200.17 146.443 200.668 146.779 201.304C147.127 201.94 147.301 202.66 147.301 203.464C147.301 203.584 147.295 203.716 147.283 203.86C147.271 203.992 147.247 204.148 147.211 204.328H139.993V202.978H146.347L145.753 203.5C145.753 202.924 145.651 202.438 145.447 202.042C145.243 201.634 144.955 201.322 144.583 201.106C144.211 200.878 143.761 200.764 143.233 200.764C142.681 200.764 142.195 200.884 141.775 201.124C141.355 201.364 141.031 201.7 140.803 202.132C140.575 202.564 140.461 203.074 140.461 203.662C140.461 204.262 140.581 204.79 140.821 205.246C141.061 205.69 141.403 206.038 141.847 206.29C142.291 206.53 142.801 206.65 143.377 206.65C143.857 206.65 144.295 206.566 144.691 206.398C145.099 206.23 145.447 205.978 145.735 205.642L146.779 206.704C146.371 207.184 145.867 207.55 145.267 207.802C144.679 208.054 144.049 208.18 143.377 208.18ZM153.62 208L150.956 204.256L150.65 203.968L147.284 199.45H149.246L151.676 202.78L151.982 203.032L155.582 208H153.62ZM147.122 208L150.65 203.248L151.568 204.436L149.03 208H147.122ZM152.108 203.95L151.172 202.798L153.53 199.45H155.42L152.108 203.95ZM160.774 208.18C160.126 208.18 159.538 208.048 159.01 207.784C158.494 207.508 158.08 207.13 157.768 206.65C157.456 206.17 157.282 205.624 157.246 205.012V202.438C157.282 201.814 157.456 201.268 157.768 200.8C158.092 200.32 158.512 199.948 159.028 199.684C159.556 199.408 160.138 199.27 160.774 199.27C161.554 199.27 162.256 199.468 162.88 199.864C163.516 200.26 164.014 200.794 164.374 201.466C164.734 202.138 164.914 202.894 164.914 203.734C164.914 204.574 164.734 205.33 164.374 206.002C164.014 206.674 163.516 207.208 162.88 207.604C162.256 207.988 161.554 208.18 160.774 208.18ZM160.504 206.65C161.044 206.65 161.518 206.524 161.926 206.272C162.334 206.02 162.658 205.678 162.898 205.246C163.138 204.802 163.258 204.292 163.258 203.716C163.258 203.152 163.138 202.648 162.898 202.204C162.658 201.76 162.334 201.418 161.926 201.178C161.518 200.926 161.05 200.8 160.522 200.8C159.982 200.8 159.508 200.926 159.1 201.178C158.692 201.418 158.374 201.76 158.146 202.204C157.918 202.648 157.804 203.158 157.804 203.734C157.804 204.298 157.912 204.802 158.128 205.246C158.356 205.678 158.674 206.02 159.082 206.272C159.502 206.524 159.976 206.65 160.504 206.65ZM156.274 211.582V199.45H157.894V201.7L157.588 203.77L157.894 205.858V211.582H156.274ZM169.911 208.18C169.059 208.18 168.291 207.988 167.607 207.604C166.923 207.208 166.383 206.674 165.987 206.002C165.591 205.33 165.393 204.568 165.393 203.716C165.393 202.876 165.585 202.12 165.969 201.448C166.365 200.776 166.893 200.248 167.553 199.864C168.225 199.468 168.975 199.27 169.803 199.27C170.595 199.27 171.291 199.45 171.891 199.81C172.503 200.17 172.977 200.668 173.313 201.304C173.661 201.94 173.835 202.66 173.835 203.464C173.835 203.584 173.829 203.716 173.817 203.86C173.805 203.992 173.781 204.148 173.745 204.328H166.527V202.978H172.881L172.287 203.5C172.287 202.924 172.185 202.438 171.981 202.042C171.777 201.634 171.489 201.322 171.117 201.106C170.745 200.878 170.295 200.764 169.767 200.764C169.215 200.764 168.729 200.884 168.309 201.124C167.889 201.364 167.565 201.7 167.337 202.132C167.109 202.564 166.995 203.074 166.995 203.662C166.995 204.262 167.115 204.79 167.355 205.246C167.595 205.69 167.937 206.038 168.381 206.29C168.825 206.53 169.335 206.65 169.911 206.65C170.391 206.65 170.829 206.566 171.225 206.398C171.633 206.23 171.981 205.978 172.269 205.642L173.313 206.704C172.905 207.184 172.401 207.55 171.801 207.802C171.213 208.054 170.583 208.18 169.911 208.18ZM174.801 208V199.45H176.421V208H174.801ZM176.421 203.122L175.809 202.852C175.809 201.76 176.061 200.89 176.565 200.242C177.069 199.594 177.795 199.27 178.743 199.27C179.175 199.27 179.565 199.348 179.913 199.504C180.261 199.648 180.585 199.894 180.885 200.242L179.823 201.34C179.643 201.148 179.445 201.01 179.229 200.926C179.013 200.842 178.761 200.8 178.473 200.8C177.873 200.8 177.381 200.992 176.997 201.376C176.613 201.76 176.421 202.342 176.421 203.122ZM181.244 208V199.45H182.864V208H181.244ZM182.054 197.74C181.754 197.74 181.508 197.644 181.316 197.452C181.124 197.248 181.028 196.996 181.028 196.696C181.028 196.408 181.124 196.168 181.316 195.976C181.508 195.772 181.754 195.67 182.054 195.67C182.354 195.67 182.6 195.772 182.792 195.976C182.984 196.168 183.08 196.408 183.08 196.696C183.08 196.996 182.984 197.248 182.792 197.452C182.6 197.644 182.354 197.74 182.054 197.74ZM188.411 208.18C187.559 208.18 186.791 207.988 186.107 207.604C185.423 207.208 184.883 206.674 184.487 206.002C184.091 205.33 183.893 204.568 183.893 203.716C183.893 202.876 184.085 202.12 184.469 201.448C184.865 200.776 185.393 200.248 186.053 199.864C186.725 199.468 187.475 199.27 188.303 199.27C189.095 199.27 189.791 199.45 190.391 199.81C191.003 200.17 191.477 200.668 191.813 201.304C192.161 201.94 192.335 202.66 192.335 203.464C192.335 203.584 192.329 203.716 192.317 203.86C192.305 203.992 192.281 204.148 192.245 204.328H185.027V202.978H191.381L190.787 203.5C190.787 202.924 190.685 202.438 190.481 202.042C190.277 201.634 189.989 201.322 189.617 201.106C189.245 200.878 188.795 200.764 188.267 200.764C187.715 200.764 187.229 200.884 186.809 201.124C186.389 201.364 186.065 201.7 185.837 202.132C185.609 202.564 185.495 203.074 185.495 203.662C185.495 204.262 185.615 204.79 185.855 205.246C186.095 205.69 186.437 206.038 186.881 206.29C187.325 206.53 187.835 206.65 188.411 206.65C188.891 206.65 189.329 206.566 189.725 206.398C190.133 206.23 190.481 205.978 190.769 205.642L191.813 206.704C191.405 207.184 190.901 207.55 190.301 207.802C189.713 208.054 189.083 208.18 188.411 208.18ZM199.35 208V203.014C199.35 202.366 199.146 201.832 198.738 201.412C198.33 200.992 197.802 200.782 197.154 200.782C196.722 200.782 196.338 200.878 196.002 201.07C195.666 201.262 195.402 201.526 195.21 201.862C195.018 202.198 194.922 202.582 194.922 203.014L194.256 202.636C194.256 201.988 194.4 201.412 194.688 200.908C194.976 200.404 195.378 200.008 195.894 199.72C196.41 199.42 196.992 199.27 197.64 199.27C198.288 199.27 198.858 199.432 199.35 199.756C199.854 200.08 200.25 200.506 200.538 201.034C200.826 201.55 200.97 202.102 200.97 202.69V208H199.35ZM193.302 208V199.45H194.922V208H193.302ZM206.269 208.18C205.429 208.18 204.667 207.982 203.983 207.586C203.311 207.19 202.777 206.656 202.381 205.984C201.997 205.3 201.805 204.544 201.805 203.716C201.805 202.876 201.997 202.12 202.381 201.448C202.777 200.776 203.311 200.248 203.983 199.864C204.667 199.468 205.429 199.27 206.269 199.27C206.929 199.27 207.541 199.396 208.105 199.648C208.669 199.888 209.155 200.242 209.563 200.71L208.483 201.79C208.219 201.478 207.895 201.244 207.511 201.088C207.139 200.92 206.725 200.836 206.269 200.836C205.729 200.836 205.249 200.962 204.829 201.214C204.409 201.454 204.079 201.79 203.839 202.222C203.599 202.654 203.479 203.152 203.479 203.716C203.479 204.28 203.599 204.778 203.839 205.21C204.079 205.642 204.409 205.984 204.829 206.236C205.249 206.488 205.729 206.614 206.269 206.614C206.725 206.614 207.139 206.536 207.511 206.38C207.895 206.212 208.225 205.972 208.501 205.66L209.563 206.74C209.167 207.196 208.681 207.55 208.105 207.802C207.541 208.054 206.929 208.18 206.269 208.18ZM214.171 208.18C213.319 208.18 212.551 207.988 211.867 207.604C211.183 207.208 210.643 206.674 210.247 206.002C209.851 205.33 209.653 204.568 209.653 203.716C209.653 202.876 209.845 202.12 210.229 201.448C210.625 200.776 211.153 200.248 211.813 199.864C212.485 199.468 213.235 199.27 214.063 199.27C214.855 199.27 215.551 199.45 216.151 199.81C216.763 200.17 217.237 200.668 217.573 201.304C217.921 201.94 218.095 202.66 218.095 203.464C218.095 203.584 218.089 203.716 218.077 203.86C218.065 203.992 218.041 204.148 218.005 204.328H210.787V202.978H217.141L216.547 203.5C216.547 202.924 216.445 202.438 216.241 202.042C216.037 201.634 215.749 201.322 215.377 201.106C215.005 200.878 214.555 200.764 214.027 200.764C213.475 200.764 212.989 200.884 212.569 201.124C212.149 201.364 211.825 201.7 211.597 202.132C211.369 202.564 211.255 203.074 211.255 203.662C211.255 204.262 211.375 204.79 211.615 205.246C211.855 205.69 212.197 206.038 212.641 206.29C213.085 206.53 213.595 206.65 214.171 206.65C214.651 206.65 215.089 206.566 215.485 206.398C215.893 206.23 216.241 205.978 216.529 205.642L217.573 206.704C217.165 207.184 216.661 207.55 216.061 207.802C215.473 208.054 214.843 208.18 214.171 208.18ZM219.152 209.98L220.268 207.838L220.844 207.694C220.784 207.826 220.706 207.934 220.61 208.018C220.526 208.102 220.418 208.144 220.286 208.144C220.034 208.144 219.8 208.042 219.584 207.838C219.38 207.622 219.278 207.358 219.278 207.046C219.278 206.698 219.392 206.41 219.62 206.182C219.848 205.942 220.136 205.822 220.484 205.822C220.796 205.822 221.072 205.942 221.312 206.182C221.552 206.41 221.672 206.698 221.672 207.046C221.672 207.178 221.642 207.34 221.582 207.532C221.534 207.712 221.432 207.946 221.276 208.234L220.088 210.484L219.152 209.98ZM6.03839 238.18C5.39039 238.18 4.80239 238.048 4.27439 237.784C3.75839 237.508 3.34439 237.13 3.03239 236.65C2.72039 236.17 2.54639 235.624 2.51039 235.012V232.438C2.54639 231.814 2.72039 231.268 3.03239 230.8C3.35639 230.32 3.77639 229.948 4.29239 229.684C4.82039 229.408 5.40239 229.27 6.03839 229.27C6.81839 229.27 7.52039 229.468 8.14439 229.864C8.78039 230.26 9.27839 230.794 9.63839 231.466C9.99839 232.138 10.1784 232.894 10.1784 233.734C10.1784 234.574 9.99839 235.33 9.63839 236.002C9.27839 236.674 8.78039 237.208 8.14439 237.604C7.52039 237.988 6.81839 238.18 6.03839 238.18ZM5.76839 236.65C6.30839 236.65 6.78239 236.524 7.19039 236.272C7.59839 236.02 7.92239 235.678 8.16239 235.246C8.40239 234.802 8.52239 234.292 8.52239 233.716C8.52239 233.152 8.40239 232.648 8.16239 232.204C7.92239 231.76 7.59839 231.418 7.19039 231.178C6.78239 230.926 6.31439 230.8 5.78639 230.8C5.24639 230.8 4.77239 230.926 4.36439 231.178C3.95639 231.418 3.63839 231.76 3.41039 232.204C3.18239 232.648 3.06839 233.158 3.06839 233.734C3.06839 234.298 3.17639 234.802 3.39239 235.246C3.62039 235.678 3.93839 236.02 4.34639 236.272C4.76639 236.524 5.24039 236.65 5.76839 236.65ZM1.53839 241.582V229.45H3.15839V231.7L2.85239 233.77L3.15839 235.858V241.582H1.53839ZM11.2149 238V225.148H12.8349V238H11.2149ZM18.3652 238.18C17.5132 238.18 16.7452 237.988 16.0612 237.604C15.3772 237.208 14.8372 236.674 14.4412 236.002C14.0452 235.33 13.8472 234.568 13.8472 233.716C13.8472 232.876 14.0392 232.12 14.4232 231.448C14.8192 230.776 15.3472 230.248 16.0072 229.864C16.6792 229.468 17.4292 229.27 18.2572 229.27C19.0492 229.27 19.7452 229.45 20.3452 229.81C20.9572 230.17 21.4312 230.668 21.7672 231.304C22.1152 231.94 22.2892 232.66 22.2892 233.464C22.2892 233.584 22.2832 233.716 22.2712 233.86C22.2592 233.992 22.2352 234.148 22.1992 234.328H14.9812V232.978H21.3352L20.7412 233.5C20.7412 232.924 20.6392 232.438 20.4352 232.042C20.2312 231.634 19.9432 231.322 19.5712 231.106C19.1992 230.878 18.7492 230.764 18.2212 230.764C17.6692 230.764 17.1832 230.884 16.7632 231.124C16.3432 231.364 16.0192 231.7 15.7912 232.132C15.5632 232.564 15.4492 233.074 15.4492 233.662C15.4492 234.262 15.5692 234.79 15.8092 235.246C16.0492 235.69 16.3912 236.038 16.8352 236.29C17.2792 236.53 17.7892 236.65 18.3652 236.65C18.8452 236.65 19.2832 236.566 19.6792 236.398C20.0872 236.23 20.4352 235.978 20.7232 235.642L21.7672 236.704C21.3592 237.184 20.8552 237.55 20.2552 237.802C19.6672 238.054 19.0372 238.18 18.3652 238.18ZM26.8916 238.18C26.1116 238.18 25.4036 237.988 24.7676 237.604C24.1316 237.208 23.6276 236.674 23.2556 236.002C22.8956 235.33 22.7156 234.574 22.7156 233.734C22.7156 232.894 22.8956 232.138 23.2556 231.466C23.6276 230.794 24.1256 230.26 24.7496 229.864C25.3856 229.468 26.0996 229.27 26.8916 229.27C27.5396 229.27 28.1156 229.408 28.6196 229.684C29.1356 229.948 29.5496 230.32 29.8616 230.8C30.1736 231.268 30.3476 231.814 30.3836 232.438V235.012C30.3476 235.624 30.1736 236.17 29.8616 236.65C29.5616 237.13 29.1536 237.508 28.6376 237.784C28.1336 238.048 27.5516 238.18 26.8916 238.18ZM27.1616 236.65C27.9656 236.65 28.6136 236.38 29.1056 235.84C29.5976 235.288 29.8436 234.586 29.8436 233.734C29.8436 233.146 29.7296 232.636 29.5016 232.204C29.2856 231.76 28.9736 231.418 28.5656 231.178C28.1576 230.926 27.6836 230.8 27.1436 230.8C26.6036 230.8 26.1236 230.926 25.7036 231.178C25.2956 231.43 24.9716 231.778 24.7316 232.222C24.5036 232.654 24.3896 233.152 24.3896 233.716C24.3896 234.292 24.5036 234.802 24.7316 235.246C24.9716 235.678 25.3016 236.02 25.7216 236.272C26.1416 236.524 26.6216 236.65 27.1616 236.65ZM29.7356 238V235.696L30.0416 233.608L29.7356 231.538V229.45H31.3736V238H29.7356ZM35.6501 238.18C35.1701 238.18 34.7141 238.12 34.2821 238C33.8621 237.868 33.4721 237.688 33.1121 237.46C32.7521 237.22 32.4401 236.938 32.1761 236.614L33.2201 235.57C33.5321 235.954 33.8921 236.242 34.3001 236.434C34.7081 236.614 35.1641 236.704 35.6681 236.704C36.1721 236.704 36.5621 236.62 36.8381 236.452C37.1141 236.272 37.2521 236.026 37.2521 235.714C37.2521 235.402 37.1381 235.162 36.9101 234.994C36.6941 234.814 36.4121 234.67 36.0641 234.562C35.7161 234.442 35.3441 234.328 34.9481 234.22C34.5641 234.1 34.1981 233.95 33.8501 233.77C33.5021 233.59 33.2141 233.344 32.9861 233.032C32.7701 232.72 32.6621 232.306 32.6621 231.79C32.6621 231.274 32.7881 230.83 33.0401 230.458C33.2921 230.074 33.6401 229.78 34.0841 229.576C34.5401 229.372 35.0861 229.27 35.7221 229.27C36.3941 229.27 36.9881 229.39 37.5041 229.63C38.0321 229.858 38.4641 230.206 38.8001 230.674L37.7561 231.718C37.5161 231.406 37.2161 231.166 36.8561 230.998C36.5081 230.83 36.1121 230.746 35.6681 230.746C35.2001 230.746 34.8401 230.83 34.5881 230.998C34.3481 231.154 34.2281 231.376 34.2281 231.664C34.2281 231.952 34.3361 232.174 34.5521 232.33C34.7681 232.486 35.0501 232.618 35.3981 232.726C35.7581 232.834 36.1301 232.948 36.5141 233.068C36.8981 233.176 37.2641 233.326 37.6121 233.518C37.9601 233.71 38.2421 233.968 38.4581 234.292C38.6861 234.616 38.8001 235.042 38.8001 235.57C38.8001 236.374 38.5121 237.01 37.9361 237.478C37.3721 237.946 36.6101 238.18 35.6501 238.18ZM43.7738 238.18C42.9218 238.18 42.1538 237.988 41.4698 237.604C40.7858 237.208 40.2458 236.674 39.8498 236.002C39.4538 235.33 39.2558 234.568 39.2558 233.716C39.2558 232.876 39.4478 232.12 39.8318 231.448C40.2278 230.776 40.7558 230.248 41.4158 229.864C42.0878 229.468 42.8378 229.27 43.6658 229.27C44.4578 229.27 45.1538 229.45 45.7538 229.81C46.3658 230.17 46.8398 230.668 47.1758 231.304C47.5238 231.94 47.6978 232.66 47.6978 233.464C47.6978 233.584 47.6918 233.716 47.6798 233.86C47.6678 233.992 47.6438 234.148 47.6078 234.328H40.3898V232.978H46.7438L46.1498 233.5C46.1498 232.924 46.0478 232.438 45.8438 232.042C45.6398 231.634 45.3518 231.322 44.9798 231.106C44.6078 230.878 44.1578 230.764 43.6298 230.764C43.0778 230.764 42.5918 230.884 42.1718 231.124C41.7518 231.364 41.4278 231.7 41.1998 232.132C40.9718 232.564 40.8578 233.074 40.8578 233.662C40.8578 234.262 40.9778 234.79 41.2178 235.246C41.4578 235.69 41.7998 236.038 42.2438 236.29C42.6878 236.53 43.1978 236.65 43.7738 236.65C44.2538 236.65 44.6918 236.566 45.0878 236.398C45.4958 236.23 45.8438 235.978 46.1318 235.642L47.1758 236.704C46.7678 237.184 46.2638 237.55 45.6638 237.802C45.0758 238.054 44.4458 238.18 43.7738 238.18ZM54.5423 238L50.6183 229.45H52.4183L55.5683 236.668H54.5243L57.6923 229.45H59.4203L55.4963 238H54.5423ZM60.0197 238V229.45H61.6397V238H60.0197ZM60.8297 227.74C60.5297 227.74 60.2837 227.644 60.0917 227.452C59.8997 227.248 59.8037 226.996 59.8037 226.696C59.8037 226.408 59.8997 226.168 60.0917 225.976C60.2837 225.772 60.5297 225.67 60.8297 225.67C61.1297 225.67 61.3757 225.772 61.5677 225.976C61.7597 226.168 61.8557 226.408 61.8557 226.696C61.8557 226.996 61.7597 227.248 61.5677 227.452C61.3757 227.644 61.1297 227.74 60.8297 227.74ZM67.1871 238.18C66.3351 238.18 65.5671 237.988 64.8831 237.604C64.1991 237.208 63.6591 236.674 63.2631 236.002C62.8671 235.33 62.6691 234.568 62.6691 233.716C62.6691 232.876 62.8611 232.12 63.2451 231.448C63.6411 230.776 64.1691 230.248 64.8291 229.864C65.5011 229.468 66.2511 229.27 67.0791 229.27C67.8711 229.27 68.5671 229.45 69.1671 229.81C69.7791 230.17 70.2531 230.668 70.5891 231.304C70.9371 231.94 71.1111 232.66 71.1111 233.464C71.1111 233.584 71.1051 233.716 71.0931 233.86C71.0811 233.992 71.0571 234.148 71.0211 234.328H63.8031V232.978H70.1571L69.5631 233.5C69.5631 232.924 69.4611 232.438 69.2571 232.042C69.0531 231.634 68.7651 231.322 68.3931 231.106C68.0211 230.878 67.5711 230.764 67.0431 230.764C66.4911 230.764 66.0051 230.884 65.5851 231.124C65.1651 231.364 64.8411 231.7 64.6131 232.132C64.3851 232.564 64.2711 233.074 64.2711 233.662C64.2711 234.262 64.3911 234.79 64.6311 235.246C64.8711 235.69 65.2131 236.038 65.6571 236.29C66.1011 236.53 66.6111 236.65 67.1871 236.65C67.6671 236.65 68.1051 236.566 68.5011 236.398C68.9091 236.23 69.2571 235.978 69.5451 235.642L70.5891 236.704C70.1811 237.184 69.6771 237.55 69.0771 237.802C68.4891 238.054 67.8591 238.18 67.1871 238.18ZM74.42 238L71.036 229.45H72.728L75.176 236.11H74.636L77.066 229.45H78.002L80.432 236.11H79.892L82.34 229.45H84.032L80.666 238H79.712L77.246 231.538H77.84L75.356 238H74.42ZM88.9301 238V225.868H90.5501V238H88.9301ZM86.8241 230.926V229.45H92.6561V230.926H86.8241ZM99.4911 238V233.014C99.4911 232.366 99.2871 231.832 98.8791 231.412C98.4711 230.992 97.9431 230.782 97.2951 230.782C96.8631 230.782 96.4791 230.878 96.1431 231.07C95.8071 231.262 95.5431 231.526 95.3511 231.862C95.1591 232.198 95.0631 232.582 95.0631 233.014L94.3971 232.636C94.3971 231.988 94.5411 231.412 94.8291 230.908C95.1171 230.404 95.5191 230.008 96.0351 229.72C96.5511 229.42 97.1331 229.27 97.7811 229.27C98.4291 229.27 98.9991 229.414 99.4911 229.702C99.9951 229.99 100.391 230.392 100.679 230.908C100.967 231.424 101.111 232.018 101.111 232.69V238H99.4911ZM93.4431 238V225.148H95.0631V238H93.4431ZM106.464 238.18C105.612 238.18 104.844 237.988 104.16 237.604C103.476 237.208 102.936 236.674 102.54 236.002C102.144 235.33 101.946 234.568 101.946 233.716C101.946 232.876 102.138 232.12 102.522 231.448C102.918 230.776 103.446 230.248 104.106 229.864C104.778 229.468 105.528 229.27 106.356 229.27C107.148 229.27 107.844 229.45 108.444 229.81C109.056 230.17 109.53 230.668 109.866 231.304C110.214 231.94 110.388 232.66 110.388 233.464C110.388 233.584 110.382 233.716 110.37 233.86C110.358 233.992 110.334 234.148 110.298 234.328H103.08V232.978H109.434L108.84 233.5C108.84 232.924 108.738 232.438 108.534 232.042C108.33 231.634 108.042 231.322 107.67 231.106C107.298 230.878 106.848 230.764 106.32 230.764C105.768 230.764 105.282 230.884 104.862 231.124C104.442 231.364 104.118 231.7 103.89 232.132C103.662 232.564 103.548 233.074 103.548 233.662C103.548 234.262 103.668 234.79 103.908 235.246C104.148 235.69 104.49 236.038 104.934 236.29C105.378 236.53 105.888 236.65 106.464 236.65C106.944 236.65 107.382 236.566 107.778 236.398C108.186 236.23 108.534 235.978 108.822 235.642L109.866 236.704C109.458 237.184 108.954 237.55 108.354 237.802C107.766 238.054 107.136 238.18 106.464 238.18ZM118.799 238.18C118.151 238.18 117.563 238.048 117.035 237.784C116.519 237.508 116.105 237.13 115.793 236.65C115.481 236.17 115.307 235.624 115.271 235.012V232.438C115.307 231.814 115.481 231.268 115.793 230.8C116.117 230.32 116.537 229.948 117.053 229.684C117.581 229.408 118.163 229.27 118.799 229.27C119.579 229.27 120.281 229.468 120.905 229.864C121.541 230.26 122.039 230.794 122.399 231.466C122.759 232.138 122.939 232.894 122.939 233.734C122.939 234.574 122.759 235.33 122.399 236.002C122.039 236.674 121.541 237.208 120.905 237.604C120.281 237.988 119.579 238.18 118.799 238.18ZM118.529 236.65C119.069 236.65 119.543 236.524 119.951 236.272C120.359 236.02 120.683 235.678 120.923 235.246C121.163 234.802 121.283 234.292 121.283 233.716C121.283 233.152 121.163 232.648 120.923 232.204C120.683 231.76 120.359 231.418 119.951 231.178C119.543 230.926 119.075 230.8 118.547 230.8C118.007 230.8 117.533 230.926 117.125 231.178C116.717 231.418 116.399 231.76 116.171 232.204C115.943 232.648 115.829 233.158 115.829 233.734C115.829 234.298 115.937 234.802 116.153 235.246C116.381 235.678 116.699 236.02 117.107 236.272C117.527 236.524 118.001 236.65 118.529 236.65ZM114.299 241.582V229.45H115.919V231.7L115.613 233.77L115.919 235.858V241.582H114.299ZM127.881 238.18C127.041 238.18 126.285 237.982 125.613 237.586C124.941 237.19 124.407 236.656 124.011 235.984C123.615 235.3 123.417 234.538 123.417 233.698C123.417 232.87 123.615 232.126 124.011 231.466C124.407 230.794 124.941 230.26 125.613 229.864C126.285 229.468 127.041 229.27 127.881 229.27C128.709 229.27 129.459 229.468 130.131 229.864C130.815 230.248 131.355 230.776 131.751 231.448C132.147 232.12 132.345 232.87 132.345 233.698C132.345 234.538 132.147 235.3 131.751 235.984C131.355 236.656 130.815 237.19 130.131 237.586C129.459 237.982 128.709 238.18 127.881 238.18ZM127.881 236.614C128.421 236.614 128.901 236.488 129.321 236.236C129.741 235.984 130.071 235.642 130.311 235.21C130.551 234.766 130.671 234.262 130.671 233.698C130.671 233.146 130.545 232.654 130.293 232.222C130.053 231.79 129.723 231.454 129.303 231.214C128.895 230.962 128.421 230.836 127.881 230.836C127.341 230.836 126.861 230.962 126.441 231.214C126.021 231.454 125.691 231.79 125.451 232.222C125.211 232.654 125.091 233.146 125.091 233.698C125.091 234.262 125.211 234.766 125.451 235.21C125.691 235.642 126.021 235.984 126.441 236.236C126.861 236.488 127.341 236.614 127.881 236.614ZM133.371 238V229.45H134.991V238H133.371ZM134.991 233.122L134.379 232.852C134.379 231.76 134.631 230.89 135.135 230.242C135.639 229.594 136.365 229.27 137.313 229.27C137.745 229.27 138.135 229.348 138.483 229.504C138.831 229.648 139.155 229.894 139.455 230.242L138.393 231.34C138.213 231.148 138.015 231.01 137.799 230.926C137.583 230.842 137.331 230.8 137.043 230.8C136.443 230.8 135.951 230.992 135.567 231.376C135.183 231.76 134.991 232.342 134.991 233.122ZM141.092 238V225.868H142.712V238H141.092ZM138.986 230.926V229.45H144.818V230.926H138.986ZM146.512 238V228.172C146.512 227.536 146.65 226.984 146.926 226.516C147.202 226.036 147.58 225.658 148.06 225.382C148.552 225.106 149.122 224.968 149.77 224.968C150.262 224.968 150.688 225.052 151.048 225.22C151.408 225.388 151.738 225.634 152.038 225.958L150.976 227.002C150.82 226.834 150.646 226.708 150.454 226.624C150.262 226.528 150.028 226.48 149.752 226.48C149.236 226.48 148.834 226.63 148.546 226.93C148.27 227.23 148.132 227.644 148.132 228.172V238H146.512ZM144.406 230.926V229.45H150.85V230.926H144.406ZM155.092 238.18C154.252 238.18 153.496 237.982 152.824 237.586C152.152 237.19 151.618 236.656 151.222 235.984C150.826 235.3 150.628 234.538 150.628 233.698C150.628 232.87 150.826 232.126 151.222 231.466C151.618 230.794 152.152 230.26 152.824 229.864C153.496 229.468 154.252 229.27 155.092 229.27C155.92 229.27 156.67 229.468 157.342 229.864C158.026 230.248 158.566 230.776 158.962 231.448C159.358 232.12 159.556 232.87 159.556 233.698C159.556 234.538 159.358 235.3 158.962 235.984C158.566 236.656 158.026 237.19 157.342 237.586C156.67 237.982 155.92 238.18 155.092 238.18ZM155.092 236.614C155.632 236.614 156.112 236.488 156.532 236.236C156.952 235.984 157.282 235.642 157.522 235.21C157.762 234.766 157.882 234.262 157.882 233.698C157.882 233.146 157.756 232.654 157.504 232.222C157.264 231.79 156.934 231.454 156.514 231.214C156.106 230.962 155.632 230.836 155.092 230.836C154.552 230.836 154.072 230.962 153.652 231.214C153.232 231.454 152.902 231.79 152.662 232.222C152.422 232.654 152.302 233.146 152.302 233.698C152.302 234.262 152.422 234.766 152.662 235.21C152.902 235.642 153.232 235.984 153.652 236.236C154.072 236.488 154.552 236.614 155.092 236.614ZM160.581 238V225.148H162.201V238H160.581ZM163.789 238V229.45H165.409V238H163.789ZM164.599 227.74C164.299 227.74 164.053 227.644 163.861 227.452C163.669 227.248 163.573 226.996 163.573 226.696C163.573 226.408 163.669 226.168 163.861 225.976C164.053 225.772 164.299 225.67 164.599 225.67C164.899 225.67 165.145 225.772 165.337 225.976C165.529 226.168 165.625 226.408 165.625 226.696C165.625 226.996 165.529 227.248 165.337 227.452C165.145 227.644 164.899 227.74 164.599 227.74ZM170.903 238.18C170.063 238.18 169.307 237.982 168.635 237.586C167.963 237.19 167.429 236.656 167.033 235.984C166.637 235.3 166.439 234.538 166.439 233.698C166.439 232.87 166.637 232.126 167.033 231.466C167.429 230.794 167.963 230.26 168.635 229.864C169.307 229.468 170.063 229.27 170.903 229.27C171.731 229.27 172.481 229.468 173.153 229.864C173.837 230.248 174.377 230.776 174.773 231.448C175.169 232.12 175.367 232.87 175.367 233.698C175.367 234.538 175.169 235.3 174.773 235.984C174.377 236.656 173.837 237.19 173.153 237.586C172.481 237.982 171.731 238.18 170.903 238.18ZM170.903 236.614C171.443 236.614 171.923 236.488 172.343 236.236C172.763 235.984 173.093 235.642 173.333 235.21C173.573 234.766 173.693 234.262 173.693 233.698C173.693 233.146 173.567 232.654 173.315 232.222C173.075 231.79 172.745 231.454 172.325 231.214C171.917 230.962 171.443 230.836 170.903 230.836C170.363 230.836 169.883 230.962 169.463 231.214C169.043 231.454 168.713 231.79 168.473 232.222C168.233 232.654 168.113 233.146 168.113 233.698C168.113 234.262 168.233 234.766 168.473 235.21C168.713 235.642 169.043 235.984 169.463 236.236C169.883 236.488 170.363 236.614 170.903 236.614ZM183.242 238.18C182.402 238.18 181.646 237.982 180.974 237.586C180.302 237.19 179.768 236.656 179.372 235.984C178.976 235.3 178.778 234.538 178.778 233.698C178.778 232.87 178.976 232.126 179.372 231.466C179.768 230.794 180.302 230.26 180.974 229.864C181.646 229.468 182.402 229.27 183.242 229.27C184.07 229.27 184.82 229.468 185.492 229.864C186.176 230.248 186.716 230.776 187.112 231.448C187.508 232.12 187.706 232.87 187.706 233.698C187.706 234.538 187.508 235.3 187.112 235.984C186.716 236.656 186.176 237.19 185.492 237.586C184.82 237.982 184.07 238.18 183.242 238.18ZM183.242 236.614C183.782 236.614 184.262 236.488 184.682 236.236C185.102 235.984 185.432 235.642 185.672 235.21C185.912 234.766 186.032 234.262 186.032 233.698C186.032 233.146 185.906 232.654 185.654 232.222C185.414 231.79 185.084 231.454 184.664 231.214C184.256 230.962 183.782 230.836 183.242 230.836C182.702 230.836 182.222 230.962 181.802 231.214C181.382 231.454 181.052 231.79 180.812 232.222C180.572 232.654 180.452 233.146 180.452 233.698C180.452 234.262 180.572 234.766 180.812 235.21C181.052 235.642 181.382 235.984 181.802 236.236C182.222 236.488 182.702 236.614 183.242 236.614ZM194.779 238V233.014C194.779 232.366 194.575 231.832 194.167 231.412C193.759 230.992 193.231 230.782 192.583 230.782C192.151 230.782 191.767 230.878 191.431 231.07C191.095 231.262 190.831 231.526 190.639 231.862C190.447 232.198 190.351 232.582 190.351 233.014L189.685 232.636C189.685 231.988 189.829 231.412 190.117 230.908C190.405 230.404 190.807 230.008 191.323 229.72C191.839 229.42 192.421 229.27 193.069 229.27C193.717 229.27 194.287 229.432 194.779 229.756C195.283 230.08 195.679 230.506 195.967 231.034C196.255 231.55 196.399 232.102 196.399 232.69V238H194.779ZM188.731 238V229.45H190.351V238H188.731ZM204.373 238.18C203.593 238.18 202.885 237.988 202.249 237.604C201.613 237.208 201.109 236.674 200.737 236.002C200.377 235.33 200.197 234.574 200.197 233.734C200.197 232.894 200.377 232.138 200.737 231.466C201.109 230.794 201.607 230.26 202.231 229.864C202.867 229.468 203.581 229.27 204.373 229.27C205.021 229.27 205.597 229.408 206.101 229.684C206.617 229.948 207.031 230.32 207.343 230.8C207.655 231.268 207.829 231.814 207.865 232.438V235.012C207.829 235.624 207.655 236.17 207.343 236.65C207.043 237.13 206.635 237.508 206.119 237.784C205.615 238.048 205.033 238.18 204.373 238.18ZM204.643 236.65C205.447 236.65 206.095 236.38 206.587 235.84C207.079 235.288 207.325 234.586 207.325 233.734C207.325 233.146 207.211 232.636 206.983 232.204C206.767 231.76 206.455 231.418 206.047 231.178C205.639 230.926 205.165 230.8 204.625 230.8C204.085 230.8 203.605 230.926 203.185 231.178C202.777 231.43 202.453 231.778 202.213 232.222C201.985 232.654 201.871 233.152 201.871 233.716C201.871 234.292 201.985 234.802 202.213 235.246C202.453 235.678 202.783 236.02 203.203 236.272C203.623 236.524 204.103 236.65 204.643 236.65ZM207.217 238V235.696L207.523 233.608L207.217 231.538V229.45H208.855V238H207.217ZM216.976 238.18C216.184 238.18 215.476 237.988 214.852 237.604C214.228 237.208 213.73 236.674 213.358 236.002C212.998 235.33 212.818 234.574 212.818 233.734C212.818 232.894 212.998 232.138 213.358 231.466C213.73 230.794 214.228 230.26 214.852 229.864C215.476 229.468 216.184 229.27 216.976 229.27C217.612 229.27 218.188 229.408 218.704 229.684C219.22 229.948 219.634 230.32 219.946 230.8C220.27 231.268 220.45 231.814 220.486 232.438V235.012C220.45 235.624 220.276 236.17 219.964 236.65C219.652 237.13 219.238 237.508 218.722 237.784C218.206 238.048 217.624 238.18 216.976 238.18ZM217.246 236.65C217.786 236.65 218.254 236.524 218.65 236.272C219.058 236.02 219.376 235.678 219.604 235.246C219.832 234.802 219.946 234.298 219.946 233.734C219.946 233.146 219.826 232.636 219.586 232.204C219.358 231.772 219.04 231.43 218.632 231.178C218.236 230.926 217.768 230.8 217.228 230.8C216.688 230.8 216.214 230.926 215.806 231.178C215.398 231.43 215.074 231.778 214.834 232.222C214.606 232.654 214.492 233.152 214.492 233.716C214.492 234.292 214.606 234.802 214.834 235.246C215.074 235.678 215.398 236.02 215.806 236.272C216.226 236.524 216.706 236.65 217.246 236.65ZM221.476 238H219.838V235.696L220.144 233.608L219.838 231.538V225.148H221.476V238ZM226.994 238.18C226.142 238.18 225.374 237.988 224.69 237.604C224.006 237.208 223.466 236.674 223.07 236.002C222.674 235.33 222.476 234.568 222.476 233.716C222.476 232.876 222.668 232.12 223.052 231.448C223.448 230.776 223.976 230.248 224.636 229.864C225.308 229.468 226.058 229.27 226.886 229.27C227.678 229.27 228.374 229.45 228.974 229.81C229.586 230.17 230.06 230.668 230.396 231.304C230.744 231.94 230.918 232.66 230.918 233.464C230.918 233.584 230.912 233.716 230.9 233.86C230.888 233.992 230.864 234.148 230.828 234.328H223.61V232.978H229.964L229.37 233.5C229.37 232.924 229.268 232.438 229.064 232.042C228.86 231.634 228.572 231.322 228.2 231.106C227.828 230.878 227.378 230.764 226.85 230.764C226.298 230.764 225.812 230.884 225.392 231.124C224.972 231.364 224.648 231.7 224.42 232.132C224.192 232.564 224.078 233.074 224.078 233.662C224.078 234.262 224.198 234.79 224.438 235.246C224.678 235.69 225.02 236.038 225.464 236.29C225.908 236.53 226.418 236.65 226.994 236.65C227.474 236.65 227.912 236.566 228.308 236.398C228.716 236.23 229.064 235.978 229.352 235.642L230.396 236.704C229.988 237.184 229.484 237.55 228.884 237.802C228.296 238.054 227.666 238.18 226.994 238.18ZM234.602 238.18C234.122 238.18 233.666 238.12 233.234 238C232.814 237.868 232.424 237.688 232.064 237.46C231.704 237.22 231.392 236.938 231.128 236.614L232.172 235.57C232.484 235.954 232.844 236.242 233.252 236.434C233.66 236.614 234.116 236.704 234.62 236.704C235.124 236.704 235.514 236.62 235.79 236.452C236.066 236.272 236.204 236.026 236.204 235.714C236.204 235.402 236.09 235.162 235.862 234.994C235.646 234.814 235.364 234.67 235.016 234.562C234.668 234.442 234.296 234.328 233.9 234.22C233.516 234.1 233.15 233.95 232.802 233.77C232.454 233.59 232.166 233.344 231.938 233.032C231.722 232.72 231.614 232.306 231.614 231.79C231.614 231.274 231.74 230.83 231.992 230.458C232.244 230.074 232.592 229.78 233.036 229.576C233.492 229.372 234.038 229.27 234.674 229.27C235.346 229.27 235.94 229.39 236.456 229.63C236.984 229.858 237.416 230.206 237.752 230.674L236.708 231.718C236.468 231.406 236.168 231.166 235.808 230.998C235.46 230.83 235.064 230.746 234.62 230.746C234.152 230.746 233.792 230.83 233.54 230.998C233.3 231.154 233.18 231.376 233.18 231.664C233.18 231.952 233.288 232.174 233.504 232.33C233.72 232.486 234.002 232.618 234.35 232.726C234.71 232.834 235.082 232.948 235.466 233.068C235.85 233.176 236.216 233.326 236.564 233.518C236.912 233.71 237.194 233.968 237.41 234.292C237.638 234.616 237.752 235.042 237.752 235.57C237.752 236.374 237.464 237.01 236.888 237.478C236.324 237.946 235.562 238.18 234.602 238.18ZM244.238 238L240.242 233.626L244.202 229.45H246.164L241.754 234.058L241.826 233.122L246.326 238H244.238ZM238.766 238V225.148H240.386V238H238.766ZM247.63 238V225.868H249.25V238H247.63ZM245.524 230.926V229.45H251.356V230.926H245.524ZM255.785 238.18C254.945 238.18 254.189 237.982 253.517 237.586C252.845 237.19 252.311 236.656 251.915 235.984C251.519 235.3 251.321 234.538 251.321 233.698C251.321 232.87 251.519 232.126 251.915 231.466C252.311 230.794 252.845 230.26 253.517 229.864C254.189 229.468 254.945 229.27 255.785 229.27C256.613 229.27 257.363 229.468 258.035 229.864C258.719 230.248 259.259 230.776 259.655 231.448C260.051 232.12 260.249 232.87 260.249 233.698C260.249 234.538 260.051 235.3 259.655 235.984C259.259 236.656 258.719 237.19 258.035 237.586C257.363 237.982 256.613 238.18 255.785 238.18ZM255.785 236.614C256.325 236.614 256.805 236.488 257.225 236.236C257.645 235.984 257.975 235.642 258.215 235.21C258.455 234.766 258.575 234.262 258.575 233.698C258.575 233.146 258.449 232.654 258.197 232.222C257.957 231.79 257.627 231.454 257.207 231.214C256.799 230.962 256.325 230.836 255.785 230.836C255.245 230.836 254.765 230.962 254.345 231.214C253.925 231.454 253.595 231.79 253.355 232.222C253.115 232.654 252.995 233.146 252.995 233.698C252.995 234.262 253.115 234.766 253.355 235.21C253.595 235.642 253.925 235.984 254.345 236.236C254.765 236.488 255.245 236.614 255.785 236.614ZM265.774 238.18C265.126 238.18 264.538 238.048 264.01 237.784C263.494 237.508 263.08 237.13 262.768 236.65C262.456 236.17 262.282 235.624 262.246 235.012V232.438C262.282 231.814 262.456 231.268 262.768 230.8C263.092 230.32 263.512 229.948 264.028 229.684C264.556 229.408 265.138 229.27 265.774 229.27C266.554 229.27 267.256 229.468 267.88 229.864C268.516 230.26 269.014 230.794 269.374 231.466C269.734 232.138 269.914 232.894 269.914 233.734C269.914 234.574 269.734 235.33 269.374 236.002C269.014 236.674 268.516 237.208 267.88 237.604C267.256 237.988 266.554 238.18 265.774 238.18ZM265.504 236.65C266.044 236.65 266.518 236.524 266.926 236.272C267.334 236.02 267.658 235.678 267.898 235.246C268.138 234.802 268.258 234.292 268.258 233.716C268.258 233.152 268.138 232.648 267.898 232.204C267.658 231.76 267.334 231.418 266.926 231.178C266.518 230.926 266.05 230.8 265.522 230.8C264.982 230.8 264.508 230.926 264.1 231.178C263.692 231.418 263.374 231.76 263.146 232.204C262.918 232.648 262.804 233.158 262.804 233.734C262.804 234.298 262.912 234.802 263.128 235.246C263.356 235.678 263.674 236.02 264.082 236.272C264.502 236.524 264.976 236.65 265.504 236.65ZM261.274 241.582V229.45H262.894V231.7L262.588 233.77L262.894 235.858V241.582H261.274ZM272.039 238.18C271.703 238.18 271.421 238.066 271.193 237.838C270.977 237.598 270.869 237.316 270.869 236.992C270.869 236.656 270.977 236.38 271.193 236.164C271.421 235.936 271.703 235.822 272.039 235.822C272.375 235.822 272.651 235.936 272.867 236.164C273.095 236.38 273.209 236.656 273.209 236.992C273.209 237.316 273.095 237.598 272.867 237.838C272.651 238.066 272.375 238.18 272.039 238.18Z" fill="#075985"/>
</svg>
