<svg width="275" height="246" viewBox="0 0 275 246" fill="none" xmlns="http://www.w3.org/2000/svg">
<path d="M228.41 90.8517C228.407 53.7471 205.828 20.3727 171.376 6.54653C136.924 -7.27968 97.5217 1.22072 71.8436 28.019C46.1655 54.8172 39.372 94.528 54.6829 128.33H220.319C225.663 116.558 228.422 103.779 228.41 90.8517Z" fill="black" fill-opacity="0.03"/>
<path d="M48.8647 128.33H226.137" stroke="#A2AEBA" stroke-width="2" stroke-linecap="round" stroke-linejoin="round"/>
<ellipse cx="136.09" cy="151" rx="33.5" ry="7" fill="black" fill-opacity="0.03"/>
<ellipse cx="183.09" cy="163" rx="33.5" ry="7" fill="black" fill-opacity="0.03"/>
<path d="M188.137 63.2766C188.137 61.0919 187.268 58.997 185.72 57.4543C184.172 55.9117 182.073 55.048 179.887 55.054H95.1147C92.9288 55.048 90.8303 55.9117 89.2825 57.4543C87.7347 58.997 86.8647 61.0919 86.8647 63.2766V119.449H188.137V63.2766Z" fill="#F6EDEE"/>
<path d="M154.524 55.054H95.1147C92.9288 55.048 90.8303 55.9117 89.2825 57.4543C87.7347 58.997 86.8647 61.0919 86.8647 63.2766V119.449H90.092L154.524 55.054Z" fill="white"/>
<path d="M149.774 143.98H125.229L126.751 131.715H148.251L149.774 143.98V143.98Z" fill="white"/>
<path fill-rule="evenodd" clip-rule="evenodd" d="M149.774 143.98H125.229L126.751 131.715H148.251L149.774 143.98V143.98Z" stroke="#A2AEBA" stroke-width="2" stroke-linecap="round" stroke-linejoin="round"/>
<path d="M155.069 150.113H119.933C119.289 150.119 118.685 149.8 118.327 149.264C117.97 148.728 117.907 148.048 118.16 147.456C119.181 145.334 121.327 143.983 123.683 143.98H151.319C153.675 143.983 155.821 145.334 156.842 147.456C157.095 148.048 157.033 148.728 156.675 149.264C156.318 149.8 155.714 150.119 155.069 150.113V150.113Z" fill="white" stroke="#A2AEBA" stroke-width="2" stroke-linecap="round" stroke-linejoin="round"/>
<path d="M179.887 131.715C182.073 131.721 184.172 130.857 185.72 129.314C187.268 127.772 188.137 125.677 188.137 123.492V119.449H86.8647V123.492C86.8647 125.677 87.7347 127.772 89.2825 129.314C90.8303 130.857 92.9288 131.721 95.1147 131.715H179.887Z" fill="white" stroke="#A2AEBA" stroke-width="2" stroke-linecap="round" stroke-linejoin="round"/>
<path fill-rule="evenodd" clip-rule="evenodd" d="M188.137 63.2766C188.137 61.0919 187.268 58.997 185.72 57.4543C184.172 55.9117 182.073 55.048 179.887 55.054H95.1147C92.9288 55.048 90.8303 55.9117 89.2825 57.4543C87.7347 58.997 86.8647 61.0919 86.8647 63.2766V119.449H188.137V63.2766Z" stroke="#A2AEBA" stroke-width="2" stroke-linecap="round" stroke-linejoin="round"/>
<path fill-rule="evenodd" clip-rule="evenodd" d="M138.865 125.582C138.865 126.335 138.254 126.945 137.501 126.945C136.748 126.945 136.138 126.335 136.138 125.582C136.138 124.829 136.748 124.219 137.501 124.219C138.254 124.219 138.865 124.829 138.865 125.582Z" stroke="#A2AEBA" stroke-width="2" stroke-linecap="round" stroke-linejoin="round"/>
<rect x="206.638" y="163" width="44" height="69" rx="6" transform="rotate(-180 206.638 163)" fill="white" stroke="#A2AEBA" stroke-width="2" stroke-linecap="round" stroke-linejoin="round"/>
<rect x="203.638" y="153" width="38" height="56" rx="4" transform="rotate(-180 203.638 153)" stroke="#A2AEBA" stroke-width="2" stroke-linecap="round" stroke-linejoin="round"/>
<rect width="16" height="1.39876e-06" rx="6.99382e-07" transform="matrix(-1 -8.74228e-08 -8.74228e-08 1 192.638 158)" stroke="#A2AEBA" stroke-width="2" stroke-linecap="round" stroke-linejoin="round"/>
<path d="M184.995 134.652C182.96 134.652 181.31 133.002 181.31 130.966C181.31 128.93 182.96 127.28 184.995 127.28C187.031 127.28 188.681 128.93 188.681 130.966C188.681 133.002 187.031 134.652 184.995 134.652Z" stroke="#A2AEBA" stroke-width="2"/>
<path d="M194.382 123.26L189.691 119.579L194.382 116.074" stroke="#A2AEBA" stroke-width="2" stroke-linecap="round" stroke-linejoin="round"/>
<path d="M175.608 123.26L180.299 119.579L175.608 116.074" stroke="#A2AEBA" stroke-width="2" stroke-linecap="round" stroke-linejoin="round"/>
<path d="M7.74234 208V194.12H9.62234V208H7.74234ZM9.02234 201.9V200.18H16.2623V201.9H9.02234ZM9.02234 195.84V194.12H16.6023V195.84H9.02234ZM22.3194 208.2C21.386 208.2 20.546 207.98 19.7994 207.54C19.0527 207.1 18.4594 206.507 18.0194 205.76C17.5794 205 17.3594 204.153 17.3594 203.22C17.3594 202.3 17.5794 201.473 18.0194 200.74C18.4594 199.993 19.0527 199.4 19.7994 198.96C20.546 198.52 21.386 198.3 22.3194 198.3C23.2394 198.3 24.0727 198.52 24.8194 198.96C25.5794 199.387 26.1794 199.973 26.6194 200.72C27.0594 201.467 27.2794 202.3 27.2794 203.22C27.2794 204.153 27.0594 205 26.6194 205.76C26.1794 206.507 25.5794 207.1 24.8194 207.54C24.0727 207.98 23.2394 208.2 22.3194 208.2ZM22.3194 206.46C22.9194 206.46 23.4527 206.32 23.9194 206.04C24.386 205.76 24.7527 205.38 25.0194 204.9C25.286 204.407 25.4194 203.847 25.4194 203.22C25.4194 202.607 25.2794 202.06 24.9994 201.58C24.7327 201.1 24.366 200.727 23.8994 200.46C23.446 200.18 22.9194 200.04 22.3194 200.04C21.7194 200.04 21.186 200.18 20.7194 200.46C20.2527 200.727 19.886 201.1 19.6194 201.58C19.3527 202.06 19.2194 202.607 19.2194 203.22C19.2194 203.847 19.3527 204.407 19.6194 204.9C19.886 205.38 20.2527 205.76 20.7194 206.04C21.186 206.32 21.7194 206.46 22.3194 206.46ZM28.9075 208V198.5H30.7075V208H28.9075ZM30.7075 202.58L30.0275 202.28C30.0275 201.067 30.3075 200.1 30.8675 199.38C31.4275 198.66 32.2342 198.3 33.2875 198.3C33.7675 198.3 34.2008 198.387 34.5875 198.56C34.9742 198.72 35.3342 198.993 35.6675 199.38L34.4875 200.6C34.2875 200.387 34.0675 200.233 33.8275 200.14C33.5875 200.047 33.3075 200 32.9875 200C32.3208 200 31.7742 200.213 31.3475 200.64C30.9208 201.067 30.7075 201.713 30.7075 202.58ZM42.1066 208V194.52H43.9066V208H42.1066ZM39.7666 200.14V198.5H46.2466V200.14H39.7666ZM54.3298 208V202.46C54.3298 201.74 54.1032 201.147 53.6498 200.68C53.1965 200.213 52.6098 199.98 51.8898 199.98C51.4098 199.98 50.9832 200.087 50.6098 200.3C50.2365 200.513 49.9432 200.807 49.7298 201.18C49.5165 201.553 49.4098 201.98 49.4098 202.46L48.6698 202.04C48.6698 201.32 48.8298 200.68 49.1498 200.12C49.4698 199.56 49.9165 199.12 50.4898 198.8C51.0632 198.467 51.7098 198.3 52.4298 198.3C53.1498 198.3 53.7832 198.46 54.3298 198.78C54.8898 199.1 55.3298 199.547 55.6498 200.12C55.9698 200.693 56.1298 201.353 56.1298 202.1V208H54.3298ZM47.6098 208V193.72H49.4098V208H47.6098ZM62.5669 208.2C61.6202 208.2 60.7669 207.987 60.0069 207.56C59.2469 207.12 58.6469 206.527 58.2069 205.78C57.7669 205.033 57.5469 204.187 57.5469 203.24C57.5469 202.307 57.7602 201.467 58.1869 200.72C58.6269 199.973 59.2135 199.387 59.9469 198.96C60.6935 198.52 61.5269 198.3 62.4469 198.3C63.3269 198.3 64.1002 198.5 64.7669 198.9C65.4469 199.3 65.9735 199.853 66.3469 200.56C66.7335 201.267 66.9269 202.067 66.9269 202.96C66.9269 203.093 66.9202 203.24 66.9069 203.4C66.8935 203.547 66.8669 203.72 66.8269 203.92H58.8069V202.42H65.8669L65.2069 203C65.2069 202.36 65.0935 201.82 64.8669 201.38C64.6402 200.927 64.3202 200.58 63.9069 200.34C63.4935 200.087 62.9935 199.96 62.4069 199.96C61.7935 199.96 61.2535 200.093 60.7869 200.36C60.3202 200.627 59.9602 201 59.7069 201.48C59.4535 201.96 59.3269 202.527 59.3269 203.18C59.3269 203.847 59.4602 204.433 59.7269 204.94C59.9935 205.433 60.3735 205.82 60.8669 206.1C61.3602 206.367 61.9269 206.5 62.5669 206.5C63.1002 206.5 63.5869 206.407 64.0269 206.22C64.4802 206.033 64.8669 205.753 65.1869 205.38L66.3469 206.56C65.8935 207.093 65.3335 207.5 64.6669 207.78C64.0135 208.06 63.3135 208.2 62.5669 208.2ZM77.2497 208.2C76.5297 208.2 75.8764 208.053 75.2897 207.76C74.7164 207.453 74.2564 207.033 73.9097 206.5C73.563 205.967 73.3697 205.36 73.3297 204.68V201.82C73.3697 201.127 73.563 200.52 73.9097 200C74.2697 199.467 74.7364 199.053 75.3097 198.76C75.8964 198.453 76.543 198.3 77.2497 198.3C78.1164 198.3 78.8964 198.52 79.5897 198.96C80.2964 199.4 80.8497 199.993 81.2497 200.74C81.6497 201.487 81.8497 202.327 81.8497 203.26C81.8497 204.193 81.6497 205.033 81.2497 205.78C80.8497 206.527 80.2964 207.12 79.5897 207.56C78.8964 207.987 78.1164 208.2 77.2497 208.2ZM76.9497 206.5C77.5497 206.5 78.0764 206.36 78.5297 206.08C78.983 205.8 79.343 205.42 79.6097 204.94C79.8764 204.447 80.0097 203.88 80.0097 203.24C80.0097 202.613 79.8764 202.053 79.6097 201.56C79.343 201.067 78.983 200.687 78.5297 200.42C78.0764 200.14 77.5564 200 76.9697 200C76.3697 200 75.843 200.14 75.3897 200.42C74.9364 200.687 74.583 201.067 74.3297 201.56C74.0764 202.053 73.9497 202.62 73.9497 203.26C73.9497 203.887 74.0697 204.447 74.3097 204.94C74.563 205.42 74.9164 205.8 75.3697 206.08C75.8364 206.36 76.363 206.5 76.9497 206.5ZM72.2497 208V193.72H74.0497V200.82L73.7097 203.12L74.0497 205.44V208H72.2497ZM87.8903 208.2C86.9436 208.2 86.0903 207.987 85.3303 207.56C84.5703 207.12 83.9703 206.527 83.5303 205.78C83.0903 205.033 82.8703 204.187 82.8703 203.24C82.8703 202.307 83.0836 201.467 83.5103 200.72C83.9503 199.973 84.537 199.387 85.2703 198.96C86.017 198.52 86.8503 198.3 87.7703 198.3C88.6503 198.3 89.4236 198.5 90.0903 198.9C90.7703 199.3 91.297 199.853 91.6703 200.56C92.057 201.267 92.2503 202.067 92.2503 202.96C92.2503 203.093 92.2436 203.24 92.2303 203.4C92.217 203.547 92.1903 203.72 92.1503 203.92H84.1303V202.42H91.1903L90.5303 203C90.5303 202.36 90.417 201.82 90.1903 201.38C89.9636 200.927 89.6436 200.58 89.2303 200.34C88.817 200.087 88.317 199.96 87.7303 199.96C87.117 199.96 86.577 200.093 86.1103 200.36C85.6436 200.627 85.2836 201 85.0303 201.48C84.777 201.96 84.6503 202.527 84.6503 203.18C84.6503 203.847 84.7836 204.433 85.0503 204.94C85.317 205.433 85.697 205.82 86.1903 206.1C86.6836 206.367 87.2503 206.5 87.8903 206.5C88.4236 206.5 88.9103 206.407 89.3503 206.22C89.8036 206.033 90.1903 205.753 90.5103 205.38L91.6703 206.56C91.217 207.093 90.657 207.5 89.9903 207.78C89.337 208.06 88.637 208.2 87.8903 208.2ZM96.833 208.2C96.2996 208.2 95.793 208.133 95.313 208C94.8463 207.853 94.413 207.653 94.013 207.4C93.613 207.133 93.2663 206.82 92.973 206.46L94.133 205.3C94.4796 205.727 94.8796 206.047 95.333 206.26C95.7863 206.46 96.293 206.56 96.853 206.56C97.413 206.56 97.8463 206.467 98.153 206.28C98.4596 206.08 98.613 205.807 98.613 205.46C98.613 205.113 98.4863 204.847 98.233 204.66C97.993 204.46 97.6796 204.3 97.293 204.18C96.9063 204.047 96.493 203.92 96.053 203.8C95.6263 203.667 95.2196 203.5 94.833 203.3C94.4463 203.1 94.1263 202.827 93.873 202.48C93.633 202.133 93.513 201.673 93.513 201.1C93.513 200.527 93.653 200.033 93.933 199.62C94.213 199.193 94.5996 198.867 95.093 198.64C95.5996 198.413 96.2063 198.3 96.913 198.3C97.6596 198.3 98.3196 198.433 98.893 198.7C99.4796 198.953 99.9596 199.34 100.333 199.86L99.173 201.02C98.9063 200.673 98.573 200.407 98.173 200.22C97.7863 200.033 97.3463 199.94 96.853 199.94C96.333 199.94 95.933 200.033 95.653 200.22C95.3863 200.393 95.253 200.64 95.253 200.96C95.253 201.28 95.373 201.527 95.613 201.7C95.853 201.873 96.1663 202.02 96.553 202.14C96.953 202.26 97.3663 202.387 97.793 202.52C98.2196 202.64 98.6263 202.807 99.013 203.02C99.3996 203.233 99.713 203.52 99.953 203.88C100.206 204.24 100.333 204.713 100.333 205.3C100.333 206.193 100.013 206.9 99.373 207.42C98.7463 207.94 97.8996 208.2 96.833 208.2ZM103.408 208V194.52H105.208V208H103.408ZM101.068 200.14V198.5H107.548V200.14H101.068ZM117.072 208.2C116.125 208.2 115.272 207.987 114.512 207.56C113.752 207.12 113.152 206.527 112.712 205.78C112.272 205.033 112.052 204.187 112.052 203.24C112.052 202.307 112.265 201.467 112.692 200.72C113.132 199.973 113.718 199.387 114.452 198.96C115.198 198.52 116.032 198.3 116.952 198.3C117.832 198.3 118.605 198.5 119.272 198.9C119.952 199.3 120.478 199.853 120.852 200.56C121.238 201.267 121.432 202.067 121.432 202.96C121.432 203.093 121.425 203.24 121.412 203.4C121.398 203.547 121.372 203.72 121.332 203.92H113.312V202.42H120.372L119.712 203C119.712 202.36 119.598 201.82 119.372 201.38C119.145 200.927 118.825 200.58 118.412 200.34C117.998 200.087 117.498 199.96 116.912 199.96C116.298 199.96 115.758 200.093 115.292 200.36C114.825 200.627 114.465 201 114.212 201.48C113.958 201.96 113.832 202.527 113.832 203.18C113.832 203.847 113.965 204.433 114.232 204.94C114.498 205.433 114.878 205.82 115.372 206.1C115.865 206.367 116.432 206.5 117.072 206.5C117.605 206.5 118.092 206.407 118.532 206.22C118.985 206.033 119.372 205.753 119.692 205.38L120.852 206.56C120.398 207.093 119.838 207.5 119.172 207.78C118.518 208.06 117.818 208.2 117.072 208.2ZM128.941 208L125.981 203.84L125.641 203.52L121.901 198.5H124.081L126.781 202.2L127.121 202.48L131.121 208H128.941ZM121.721 208L125.641 202.72L126.661 204.04L123.841 208H121.721ZM127.261 203.5L126.221 202.22L128.841 198.5H130.941L127.261 203.5ZM137.379 208.2C136.659 208.2 136.006 208.053 135.419 207.76C134.846 207.453 134.386 207.033 134.039 206.5C133.693 205.967 133.499 205.36 133.459 204.68V201.82C133.499 201.127 133.693 200.52 134.039 200C134.399 199.467 134.866 199.053 135.439 198.76C136.026 198.453 136.673 198.3 137.379 198.3C138.246 198.3 139.026 198.52 139.719 198.96C140.426 199.4 140.979 199.993 141.379 200.74C141.779 201.487 141.979 202.327 141.979 203.26C141.979 204.193 141.779 205.033 141.379 205.78C140.979 206.527 140.426 207.12 139.719 207.56C139.026 207.987 138.246 208.2 137.379 208.2ZM137.079 206.5C137.679 206.5 138.206 206.36 138.659 206.08C139.113 205.8 139.473 205.42 139.739 204.94C140.006 204.447 140.139 203.88 140.139 203.24C140.139 202.613 140.006 202.053 139.739 201.56C139.473 201.067 139.113 200.687 138.659 200.42C138.206 200.14 137.686 200 137.099 200C136.499 200 135.973 200.14 135.519 200.42C135.066 200.687 134.713 201.067 134.459 201.56C134.206 202.053 134.079 202.62 134.079 203.26C134.079 203.887 134.199 204.447 134.439 204.94C134.693 205.42 135.046 205.8 135.499 206.08C135.966 206.36 136.493 206.5 137.079 206.5ZM132.379 211.98V198.5H134.179V201L133.839 203.3L134.179 205.62V211.98H132.379ZM148.02 208.2C147.073 208.2 146.22 207.987 145.46 207.56C144.7 207.12 144.1 206.527 143.66 205.78C143.22 205.033 143 204.187 143 203.24C143 202.307 143.213 201.467 143.64 200.72C144.08 199.973 144.667 199.387 145.4 198.96C146.147 198.52 146.98 198.3 147.9 198.3C148.78 198.3 149.553 198.5 150.22 198.9C150.9 199.3 151.427 199.853 151.8 200.56C152.187 201.267 152.38 202.067 152.38 202.96C152.38 203.093 152.373 203.24 152.36 203.4C152.347 203.547 152.32 203.72 152.28 203.92H144.26V202.42H151.32L150.66 203C150.66 202.36 150.547 201.82 150.32 201.38C150.093 200.927 149.773 200.58 149.36 200.34C148.947 200.087 148.447 199.96 147.86 199.96C147.247 199.96 146.707 200.093 146.24 200.36C145.773 200.627 145.413 201 145.16 201.48C144.907 201.96 144.78 202.527 144.78 203.18C144.78 203.847 144.913 204.433 145.18 204.94C145.447 205.433 145.827 205.82 146.32 206.1C146.813 206.367 147.38 206.5 148.02 206.5C148.553 206.5 149.04 206.407 149.48 206.22C149.933 206.033 150.32 205.753 150.64 205.38L151.8 206.56C151.347 207.093 150.787 207.5 150.12 207.78C149.467 208.06 148.767 208.2 148.02 208.2ZM153.943 208V198.5H155.743V208H153.943ZM155.743 202.58L155.063 202.28C155.063 201.067 155.343 200.1 155.903 199.38C156.463 198.66 157.269 198.3 158.323 198.3C158.803 198.3 159.236 198.387 159.623 198.56C160.009 198.72 160.369 198.993 160.703 199.38L159.523 200.6C159.323 200.387 159.103 200.233 158.863 200.14C158.623 200.047 158.343 200 158.023 200C157.356 200 156.809 200.213 156.383 200.64C155.956 201.067 155.743 201.713 155.743 202.58ZM161.59 208V198.5H163.39V208H161.59ZM162.49 196.6C162.157 196.6 161.883 196.493 161.67 196.28C161.457 196.053 161.35 195.773 161.35 195.44C161.35 195.12 161.457 194.853 161.67 194.64C161.883 194.413 162.157 194.3 162.49 194.3C162.823 194.3 163.097 194.413 163.31 194.64C163.523 194.853 163.63 195.12 163.63 195.44C163.63 195.773 163.523 196.053 163.31 196.28C163.097 196.493 162.823 196.6 162.49 196.6ZM170.043 208.2C169.096 208.2 168.243 207.987 167.483 207.56C166.723 207.12 166.123 206.527 165.683 205.78C165.243 205.033 165.023 204.187 165.023 203.24C165.023 202.307 165.236 201.467 165.663 200.72C166.103 199.973 166.689 199.387 167.423 198.96C168.169 198.52 169.003 198.3 169.923 198.3C170.803 198.3 171.576 198.5 172.243 198.9C172.923 199.3 173.449 199.853 173.823 200.56C174.209 201.267 174.403 202.067 174.403 202.96C174.403 203.093 174.396 203.24 174.383 203.4C174.369 203.547 174.343 203.72 174.303 203.92H166.283V202.42H173.343L172.683 203C172.683 202.36 172.569 201.82 172.343 201.38C172.116 200.927 171.796 200.58 171.383 200.34C170.969 200.087 170.469 199.96 169.883 199.96C169.269 199.96 168.729 200.093 168.263 200.36C167.796 200.627 167.436 201 167.183 201.48C166.929 201.96 166.803 202.527 166.803 203.18C166.803 203.847 166.936 204.433 167.203 204.94C167.469 205.433 167.849 205.82 168.343 206.1C168.836 206.367 169.403 206.5 170.043 206.5C170.576 206.5 171.063 206.407 171.503 206.22C171.956 206.033 172.343 205.753 172.663 205.38L173.823 206.56C173.369 207.093 172.809 207.5 172.143 207.78C171.489 208.06 170.789 208.2 170.043 208.2ZM182.685 208V202.46C182.685 201.74 182.459 201.147 182.005 200.68C181.552 200.213 180.965 199.98 180.245 199.98C179.765 199.98 179.339 200.087 178.965 200.3C178.592 200.513 178.299 200.807 178.085 201.18C177.872 201.553 177.765 201.98 177.765 202.46L177.025 202.04C177.025 201.32 177.185 200.68 177.505 200.12C177.825 199.56 178.272 199.12 178.845 198.8C179.419 198.467 180.065 198.3 180.785 198.3C181.505 198.3 182.139 198.48 182.685 198.84C183.245 199.2 183.685 199.673 184.005 200.26C184.325 200.833 184.485 201.447 184.485 202.1V208H182.685ZM175.965 208V198.5H177.765V208H175.965ZM190.862 208.2C189.929 208.2 189.082 207.98 188.322 207.54C187.576 207.1 186.982 206.507 186.542 205.76C186.116 205 185.902 204.16 185.902 203.24C185.902 202.307 186.116 201.467 186.542 200.72C186.982 199.973 187.576 199.387 188.322 198.96C189.082 198.52 189.929 198.3 190.862 198.3C191.596 198.3 192.276 198.44 192.902 198.72C193.529 198.987 194.069 199.38 194.522 199.9L193.322 201.1C193.029 200.753 192.669 200.493 192.242 200.32C191.829 200.133 191.369 200.04 190.862 200.04C190.262 200.04 189.729 200.18 189.262 200.46C188.796 200.727 188.429 201.1 188.162 201.58C187.896 202.06 187.762 202.613 187.762 203.24C187.762 203.867 187.896 204.42 188.162 204.9C188.429 205.38 188.796 205.76 189.262 206.04C189.729 206.32 190.262 206.46 190.862 206.46C191.369 206.46 191.829 206.373 192.242 206.2C192.669 206.013 193.036 205.747 193.342 205.4L194.522 206.6C194.082 207.107 193.542 207.5 192.902 207.78C192.276 208.06 191.596 208.2 190.862 208.2ZM200.132 208.2C199.185 208.2 198.332 207.987 197.572 207.56C196.812 207.12 196.212 206.527 195.772 205.78C195.332 205.033 195.112 204.187 195.112 203.24C195.112 202.307 195.325 201.467 195.752 200.72C196.192 199.973 196.778 199.387 197.512 198.96C198.258 198.52 199.092 198.3 200.012 198.3C200.892 198.3 201.665 198.5 202.332 198.9C203.012 199.3 203.538 199.853 203.912 200.56C204.298 201.267 204.492 202.067 204.492 202.96C204.492 203.093 204.485 203.24 204.472 203.4C204.458 203.547 204.432 203.72 204.392 203.92H196.372V202.42H203.432L202.772 203C202.772 202.36 202.658 201.82 202.432 201.38C202.205 200.927 201.885 200.58 201.472 200.34C201.058 200.087 200.558 199.96 199.972 199.96C199.358 199.96 198.818 200.093 198.352 200.36C197.885 200.627 197.525 201 197.272 201.48C197.018 201.96 196.892 202.527 196.892 203.18C196.892 203.847 197.025 204.433 197.292 204.94C197.558 205.433 197.938 205.82 198.432 206.1C198.925 206.367 199.492 206.5 200.132 206.5C200.665 206.5 201.152 206.407 201.592 206.22C202.045 206.033 202.432 205.753 202.752 205.38L203.912 206.56C203.458 207.093 202.898 207.5 202.232 207.78C201.578 208.06 200.878 208.2 200.132 208.2ZM206.154 210.2L207.394 207.82L208.034 207.66C207.968 207.807 207.881 207.927 207.774 208.02C207.681 208.113 207.561 208.16 207.414 208.16C207.134 208.16 206.874 208.047 206.634 207.82C206.408 207.58 206.294 207.287 206.294 206.94C206.294 206.553 206.421 206.233 206.674 205.98C206.928 205.713 207.248 205.58 207.634 205.58C207.981 205.58 208.288 205.713 208.554 205.98C208.821 206.233 208.954 206.553 208.954 206.94C208.954 207.087 208.921 207.267 208.854 207.48C208.801 207.68 208.688 207.94 208.514 208.26L207.194 210.76L206.154 210.2ZM219.922 208.2C219.202 208.2 218.549 208.053 217.962 207.76C217.389 207.453 216.929 207.033 216.582 206.5C216.236 205.967 216.042 205.36 216.002 204.68V201.82C216.042 201.127 216.236 200.52 216.582 200C216.942 199.467 217.409 199.053 217.982 198.76C218.569 198.453 219.216 198.3 219.922 198.3C220.789 198.3 221.569 198.52 222.262 198.96C222.969 199.4 223.522 199.993 223.922 200.74C224.322 201.487 224.522 202.327 224.522 203.26C224.522 204.193 224.322 205.033 223.922 205.78C223.522 206.527 222.969 207.12 222.262 207.56C221.569 207.987 220.789 208.2 219.922 208.2ZM219.622 206.5C220.222 206.5 220.749 206.36 221.202 206.08C221.656 205.8 222.016 205.42 222.282 204.94C222.549 204.447 222.682 203.88 222.682 203.24C222.682 202.613 222.549 202.053 222.282 201.56C222.016 201.067 221.656 200.687 221.202 200.42C220.749 200.14 220.229 200 219.642 200C219.042 200 218.516 200.14 218.062 200.42C217.609 200.687 217.256 201.067 217.002 201.56C216.749 202.053 216.622 202.62 216.622 203.26C216.622 203.887 216.742 204.447 216.982 204.94C217.236 205.42 217.589 205.8 218.042 206.08C218.509 206.36 219.036 206.5 219.622 206.5ZM214.922 211.98V198.5H216.722V201L216.382 203.3L216.722 205.62V211.98H214.922ZM226.163 208V193.72H227.963V208H226.163ZM234.597 208.2C233.65 208.2 232.797 207.987 232.037 207.56C231.277 207.12 230.677 206.527 230.237 205.78C229.797 205.033 229.577 204.187 229.577 203.24C229.577 202.307 229.79 201.467 230.217 200.72C230.657 199.973 231.243 199.387 231.977 198.96C232.723 198.52 233.557 198.3 234.477 198.3C235.357 198.3 236.13 198.5 236.797 198.9C237.477 199.3 238.003 199.853 238.377 200.56C238.763 201.267 238.957 202.067 238.957 202.96C238.957 203.093 238.95 203.24 238.937 203.4C238.923 203.547 238.897 203.72 238.857 203.92H230.837V202.42H237.897L237.237 203C237.237 202.36 237.123 201.82 236.897 201.38C236.67 200.927 236.35 200.58 235.937 200.34C235.523 200.087 235.023 199.96 234.437 199.96C233.823 199.96 233.283 200.093 232.817 200.36C232.35 200.627 231.99 201 231.737 201.48C231.483 201.96 231.357 202.527 231.357 203.18C231.357 203.847 231.49 204.433 231.757 204.94C232.023 205.433 232.403 205.82 232.897 206.1C233.39 206.367 233.957 206.5 234.597 206.5C235.13 206.5 235.617 206.407 236.057 206.22C236.51 206.033 236.897 205.753 237.217 205.38L238.377 206.56C237.923 207.093 237.363 207.5 236.697 207.78C236.043 208.06 235.343 208.2 234.597 208.2ZM244.559 208.2C243.693 208.2 242.906 207.987 242.199 207.56C241.493 207.12 240.933 206.527 240.519 205.78C240.119 205.033 239.919 204.193 239.919 203.26C239.919 202.327 240.119 201.487 240.519 200.74C240.933 199.993 241.486 199.4 242.179 198.96C242.886 198.52 243.679 198.3 244.559 198.3C245.279 198.3 245.919 198.453 246.479 198.76C247.053 199.053 247.513 199.467 247.859 200C248.206 200.52 248.399 201.127 248.439 201.82V204.68C248.399 205.36 248.206 205.967 247.859 206.5C247.526 207.033 247.073 207.453 246.499 207.76C245.939 208.053 245.293 208.2 244.559 208.2ZM244.859 206.5C245.753 206.5 246.473 206.2 247.019 205.6C247.566 204.987 247.839 204.207 247.839 203.26C247.839 202.607 247.713 202.04 247.459 201.56C247.219 201.067 246.873 200.687 246.419 200.42C245.966 200.14 245.439 200 244.839 200C244.239 200 243.706 200.14 243.239 200.42C242.786 200.7 242.426 201.087 242.159 201.58C241.906 202.06 241.779 202.613 241.779 203.24C241.779 203.88 241.906 204.447 242.159 204.94C242.426 205.42 242.793 205.8 243.259 206.08C243.726 206.36 244.259 206.5 244.859 206.5ZM247.719 208V205.44L248.059 203.12L247.719 200.82V198.5H249.539V208H247.719ZM254.78 208.2C254.247 208.2 253.74 208.133 253.26 208C252.793 207.853 252.36 207.653 251.96 207.4C251.56 207.133 251.213 206.82 250.92 206.46L252.08 205.3C252.427 205.727 252.827 206.047 253.28 206.26C253.733 206.46 254.24 206.56 254.8 206.56C255.36 206.56 255.793 206.467 256.1 206.28C256.407 206.08 256.56 205.807 256.56 205.46C256.56 205.113 256.433 204.847 256.18 204.66C255.94 204.46 255.627 204.3 255.24 204.18C254.853 204.047 254.44 203.92 254 203.8C253.573 203.667 253.167 203.5 252.78 203.3C252.393 203.1 252.073 202.827 251.82 202.48C251.58 202.133 251.46 201.673 251.46 201.1C251.46 200.527 251.6 200.033 251.88 199.62C252.16 199.193 252.547 198.867 253.04 198.64C253.547 198.413 254.153 198.3 254.86 198.3C255.607 198.3 256.267 198.433 256.84 198.7C257.427 198.953 257.907 199.34 258.28 199.86L257.12 201.02C256.853 200.673 256.52 200.407 256.12 200.22C255.733 200.033 255.293 199.94 254.8 199.94C254.28 199.94 253.88 200.033 253.6 200.22C253.333 200.393 253.2 200.64 253.2 200.96C253.2 201.28 253.32 201.527 253.56 201.7C253.8 201.873 254.113 202.02 254.5 202.14C254.9 202.26 255.313 202.387 255.74 202.52C256.167 202.64 256.573 202.807 256.96 203.02C257.347 203.233 257.66 203.52 257.9 203.88C258.153 204.24 258.28 204.713 258.28 205.3C258.28 206.193 257.96 206.9 257.32 207.42C256.693 207.94 255.847 208.2 254.78 208.2ZM264.295 208.2C263.348 208.2 262.495 207.987 261.735 207.56C260.975 207.12 260.375 206.527 259.935 205.78C259.495 205.033 259.275 204.187 259.275 203.24C259.275 202.307 259.488 201.467 259.915 200.72C260.355 199.973 260.942 199.387 261.675 198.96C262.422 198.52 263.255 198.3 264.175 198.3C265.055 198.3 265.828 198.5 266.495 198.9C267.175 199.3 267.702 199.853 268.075 200.56C268.462 201.267 268.655 202.067 268.655 202.96C268.655 203.093 268.648 203.24 268.635 203.4C268.622 203.547 268.595 203.72 268.555 203.92H260.535V202.42H267.595L266.935 203C266.935 202.36 266.822 201.82 266.595 201.38C266.368 200.927 266.048 200.58 265.635 200.34C265.222 200.087 264.722 199.96 264.135 199.96C263.522 199.96 262.982 200.093 262.515 200.36C262.048 200.627 261.688 201 261.435 201.48C261.182 201.96 261.055 202.527 261.055 203.18C261.055 203.847 261.188 204.433 261.455 204.94C261.722 205.433 262.102 205.82 262.595 206.1C263.088 206.367 263.655 206.5 264.295 206.5C264.828 206.5 265.315 206.407 265.755 206.22C266.208 206.033 266.595 205.753 266.915 205.38L268.075 206.56C267.622 207.093 267.062 207.5 266.395 207.78C265.742 208.06 265.042 208.2 264.295 208.2ZM9.93039 238L5.57039 228.5H7.57039L11.0704 236.52H9.91039L13.4304 228.5H15.3504L10.9904 238H9.93039ZM16.5052 238V228.5H18.3052V238H16.5052ZM17.4052 226.6C17.0719 226.6 16.7986 226.493 16.5852 226.28C16.3719 226.053 16.2652 225.773 16.2652 225.44C16.2652 225.12 16.3719 224.853 16.5852 224.64C16.7986 224.413 17.0719 224.3 17.4052 224.3C17.7386 224.3 18.0119 224.413 18.2252 224.64C18.4386 224.853 18.5452 225.12 18.5452 225.44C18.5452 225.773 18.4386 226.053 18.2252 226.28C18.0119 226.493 17.7386 226.6 17.4052 226.6ZM24.9579 238.2C24.0112 238.2 23.1579 237.987 22.3979 237.56C21.6379 237.12 21.0379 236.527 20.5979 235.78C20.1579 235.033 19.9379 234.187 19.9379 233.24C19.9379 232.307 20.1512 231.467 20.5779 230.72C21.0179 229.973 21.6046 229.387 22.3379 228.96C23.0846 228.52 23.9179 228.3 24.8379 228.3C25.7179 228.3 26.4912 228.5 27.1579 228.9C27.8379 229.3 28.3646 229.853 28.7379 230.56C29.1246 231.267 29.3179 232.067 29.3179 232.96C29.3179 233.093 29.3112 233.24 29.2979 233.4C29.2846 233.547 29.2579 233.72 29.2179 233.92H21.1979V232.42H28.2579L27.5979 233C27.5979 232.36 27.4846 231.82 27.2579 231.38C27.0312 230.927 26.7112 230.58 26.2979 230.34C25.8846 230.087 25.3846 229.96 24.7979 229.96C24.1846 229.96 23.6446 230.093 23.1779 230.36C22.7112 230.627 22.3512 231 22.0979 231.48C21.8446 231.96 21.7179 232.527 21.7179 233.18C21.7179 233.847 21.8512 234.433 22.1179 234.94C22.3846 235.433 22.7646 235.82 23.2579 236.1C23.7512 236.367 24.3179 236.5 24.9579 236.5C25.4912 236.5 25.9779 236.407 26.4179 236.22C26.8712 236.033 27.2579 235.753 27.5779 235.38L28.7379 236.56C28.2846 237.093 27.7246 237.5 27.0579 237.78C26.4046 238.06 25.7046 238.2 24.9579 238.2ZM33.4834 238L29.7234 228.5H31.6034L34.3234 235.9H33.7234L36.4234 228.5H37.4634L40.1634 235.9H39.5634L42.2834 228.5H44.1634L40.4234 238H39.3634L36.6234 230.82H37.2834L34.5234 238H33.4834ZM50.5835 238V224.52H52.3835V238H50.5835ZM48.2435 230.14V228.5H54.7235V230.14H48.2435ZM62.8068 238V232.46C62.8068 231.74 62.5801 231.147 62.1268 230.68C61.6735 230.213 61.0868 229.98 60.3668 229.98C59.8868 229.98 59.4601 230.087 59.0868 230.3C58.7135 230.513 58.4201 230.807 58.2068 231.18C57.9935 231.553 57.8868 231.98 57.8868 232.46L57.1468 232.04C57.1468 231.32 57.3068 230.68 57.6268 230.12C57.9468 229.56 58.3935 229.12 58.9668 228.8C59.5401 228.467 60.1868 228.3 60.9068 228.3C61.6268 228.3 62.2601 228.46 62.8068 228.78C63.3668 229.1 63.8068 229.547 64.1268 230.12C64.4468 230.693 64.6068 231.353 64.6068 232.1V238H62.8068ZM56.0868 238V223.72H57.8868V238H56.0868ZM71.0438 238.2C70.0972 238.2 69.2438 237.987 68.4838 237.56C67.7238 237.12 67.1238 236.527 66.6838 235.78C66.2438 235.033 66.0238 234.187 66.0238 233.24C66.0238 232.307 66.2372 231.467 66.6638 230.72C67.1038 229.973 67.6905 229.387 68.4238 228.96C69.1705 228.52 70.0038 228.3 70.9238 228.3C71.8038 228.3 72.5772 228.5 73.2438 228.9C73.9238 229.3 74.4505 229.853 74.8238 230.56C75.2105 231.267 75.4038 232.067 75.4038 232.96C75.4038 233.093 75.3972 233.24 75.3838 233.4C75.3705 233.547 75.3438 233.72 75.3038 233.92H67.2838V232.42H74.3438L73.6838 233C73.6838 232.36 73.5705 231.82 73.3438 231.38C73.1172 230.927 72.7972 230.58 72.3838 230.34C71.9705 230.087 71.4705 229.96 70.8838 229.96C70.2705 229.96 69.7305 230.093 69.2638 230.36C68.7972 230.627 68.4372 231 68.1838 231.48C67.9305 231.96 67.8038 232.527 67.8038 233.18C67.8038 233.847 67.9372 234.433 68.2038 234.94C68.4705 235.433 68.8505 235.82 69.3438 236.1C69.8372 236.367 70.4038 236.5 71.0438 236.5C71.5772 236.5 72.0638 236.407 72.5038 236.22C72.9572 236.033 73.3438 235.753 73.6638 235.38L74.8238 236.56C74.3705 237.093 73.8105 237.5 73.1438 237.78C72.4905 238.06 71.7905 238.2 71.0438 238.2ZM85.7266 238.2C85.0066 238.2 84.3533 238.053 83.7666 237.76C83.1933 237.453 82.7333 237.033 82.3866 236.5C82.04 235.967 81.8466 235.36 81.8066 234.68V231.82C81.8466 231.127 82.04 230.52 82.3866 230C82.7466 229.467 83.2133 229.053 83.7866 228.76C84.3733 228.453 85.02 228.3 85.7266 228.3C86.5933 228.3 87.3733 228.52 88.0666 228.96C88.7733 229.4 89.3266 229.993 89.7266 230.74C90.1266 231.487 90.3266 232.327 90.3266 233.26C90.3266 234.193 90.1266 235.033 89.7266 235.78C89.3266 236.527 88.7733 237.12 88.0666 237.56C87.3733 237.987 86.5933 238.2 85.7266 238.2ZM85.4266 236.5C86.0266 236.5 86.5533 236.36 87.0066 236.08C87.46 235.8 87.82 235.42 88.0866 234.94C88.3533 234.447 88.4866 233.88 88.4866 233.24C88.4866 232.613 88.3533 232.053 88.0866 231.56C87.82 231.067 87.46 230.687 87.0066 230.42C86.5533 230.14 86.0333 230 85.4466 230C84.8466 230 84.32 230.14 83.8666 230.42C83.4133 230.687 83.06 231.067 82.8066 231.56C82.5533 232.053 82.4266 232.62 82.4266 233.26C82.4266 233.887 82.5466 234.447 82.7866 234.94C83.04 235.42 83.3933 235.8 83.8466 236.08C84.3133 236.36 84.84 236.5 85.4266 236.5ZM80.7266 241.98V228.5H82.5266V231L82.1866 233.3L82.5266 235.62V241.98H80.7266ZM96.3073 238.2C95.3739 238.2 94.5339 237.98 93.7873 237.54C93.0406 237.1 92.4473 236.507 92.0073 235.76C91.5673 235 91.3473 234.153 91.3473 233.22C91.3473 232.3 91.5673 231.473 92.0073 230.74C92.4473 229.993 93.0406 229.4 93.7873 228.96C94.5339 228.52 95.3739 228.3 96.3073 228.3C97.2273 228.3 98.0606 228.52 98.8073 228.96C99.5673 229.387 100.167 229.973 100.607 230.72C101.047 231.467 101.267 232.3 101.267 233.22C101.267 234.153 101.047 235 100.607 235.76C100.167 236.507 99.5673 237.1 98.8073 237.54C98.0606 237.98 97.2273 238.2 96.3073 238.2ZM96.3073 236.46C96.9073 236.46 97.4406 236.32 97.9073 236.04C98.3739 235.76 98.7406 235.38 99.0073 234.9C99.2739 234.407 99.4073 233.847 99.4073 233.22C99.4073 232.607 99.2673 232.06 98.9873 231.58C98.7206 231.1 98.3539 230.727 97.8873 230.46C97.4339 230.18 96.9073 230.04 96.3073 230.04C95.7073 230.04 95.1739 230.18 94.7073 230.46C94.2406 230.727 93.8739 231.1 93.6073 231.58C93.3406 232.06 93.2073 232.607 93.2073 233.22C93.2073 233.847 93.3406 234.407 93.6073 234.9C93.8739 235.38 94.2406 235.76 94.7073 236.04C95.1739 236.32 95.7073 236.46 96.3073 236.46ZM102.895 238V228.5H104.695V238H102.895ZM104.695 232.58L104.015 232.28C104.015 231.067 104.295 230.1 104.855 229.38C105.415 228.66 106.222 228.3 107.275 228.3C107.755 228.3 108.189 228.387 108.575 228.56C108.962 228.72 109.322 228.993 109.655 229.38L108.475 230.6C108.275 230.387 108.055 230.233 107.815 230.14C107.575 230.047 107.295 230 106.975 230C106.309 230 105.762 230.213 105.335 230.64C104.909 231.067 104.695 231.713 104.695 232.58ZM111.963 238V224.52H113.763V238H111.963ZM109.623 230.14V228.5H116.103V230.14H109.623ZM118.475 238V227.08C118.475 226.373 118.628 225.76 118.935 225.24C119.242 224.707 119.662 224.287 120.195 223.98C120.742 223.673 121.375 223.52 122.095 223.52C122.642 223.52 123.115 223.613 123.515 223.8C123.915 223.987 124.282 224.26 124.615 224.62L123.435 225.78C123.262 225.593 123.068 225.453 122.855 225.36C122.642 225.253 122.382 225.2 122.075 225.2C121.502 225.2 121.055 225.367 120.735 225.7C120.428 226.033 120.275 226.493 120.275 227.08V238H118.475ZM116.135 230.14V228.5H123.295V230.14H116.135ZM128.496 238.2C127.563 238.2 126.723 237.98 125.976 237.54C125.23 237.1 124.636 236.507 124.196 235.76C123.756 235 123.536 234.153 123.536 233.22C123.536 232.3 123.756 231.473 124.196 230.74C124.636 229.993 125.23 229.4 125.976 228.96C126.723 228.52 127.563 228.3 128.496 228.3C129.416 228.3 130.25 228.52 130.996 228.96C131.756 229.387 132.356 229.973 132.796 230.72C133.236 231.467 133.456 232.3 133.456 233.22C133.456 234.153 133.236 235 132.796 235.76C132.356 236.507 131.756 237.1 130.996 237.54C130.25 237.98 129.416 238.2 128.496 238.2ZM128.496 236.46C129.096 236.46 129.63 236.32 130.096 236.04C130.563 235.76 130.93 235.38 131.196 234.9C131.463 234.407 131.596 233.847 131.596 233.22C131.596 232.607 131.456 232.06 131.176 231.58C130.91 231.1 130.543 230.727 130.076 230.46C129.623 230.18 129.096 230.04 128.496 230.04C127.896 230.04 127.363 230.18 126.896 230.46C126.43 230.727 126.063 231.1 125.796 231.58C125.53 232.06 125.396 232.607 125.396 233.22C125.396 233.847 125.53 234.407 125.796 234.9C126.063 235.38 126.43 235.76 126.896 236.04C127.363 236.32 127.896 236.46 128.496 236.46ZM135.084 238V223.72H136.884V238H135.084ZM139.138 238V228.5H140.938V238H139.138ZM140.038 226.6C139.705 226.6 139.431 226.493 139.218 226.28C139.005 226.053 138.898 225.773 138.898 225.44C138.898 225.12 139.005 224.853 139.218 224.64C139.431 224.413 139.705 224.3 140.038 224.3C140.371 224.3 140.645 224.413 140.858 224.64C141.071 224.853 141.178 225.12 141.178 225.44C141.178 225.773 141.071 226.053 140.858 226.28C140.645 226.493 140.371 226.6 140.038 226.6ZM147.531 238.2C146.597 238.2 145.757 237.98 145.011 237.54C144.264 237.1 143.671 236.507 143.231 235.76C142.791 235 142.571 234.153 142.571 233.22C142.571 232.3 142.791 231.473 143.231 230.74C143.671 229.993 144.264 229.4 145.011 228.96C145.757 228.52 146.597 228.3 147.531 228.3C148.451 228.3 149.284 228.52 150.031 228.96C150.791 229.387 151.391 229.973 151.831 230.72C152.271 231.467 152.491 232.3 152.491 233.22C152.491 234.153 152.271 235 151.831 235.76C151.391 236.507 150.791 237.1 150.031 237.54C149.284 237.98 148.451 238.2 147.531 238.2ZM147.531 236.46C148.131 236.46 148.664 236.32 149.131 236.04C149.597 235.76 149.964 235.38 150.231 234.9C150.497 234.407 150.631 233.847 150.631 233.22C150.631 232.607 150.491 232.06 150.211 231.58C149.944 231.1 149.577 230.727 149.111 230.46C148.657 230.18 148.131 230.04 147.531 230.04C146.931 230.04 146.397 230.18 145.931 230.46C145.464 230.727 145.097 231.1 144.831 231.58C144.564 232.06 144.431 232.607 144.431 233.22C144.431 233.847 144.564 234.407 144.831 234.9C145.097 235.38 145.464 235.76 145.931 236.04C146.397 236.32 146.931 236.46 147.531 236.46ZM162.219 238.2C161.286 238.2 160.446 237.98 159.699 237.54C158.952 237.1 158.359 236.507 157.919 235.76C157.479 235 157.259 234.153 157.259 233.22C157.259 232.3 157.479 231.473 157.919 230.74C158.359 229.993 158.952 229.4 159.699 228.96C160.446 228.52 161.286 228.3 162.219 228.3C163.139 228.3 163.972 228.52 164.719 228.96C165.479 229.387 166.079 229.973 166.519 230.72C166.959 231.467 167.179 232.3 167.179 233.22C167.179 234.153 166.959 235 166.519 235.76C166.079 236.507 165.479 237.1 164.719 237.54C163.972 237.98 163.139 238.2 162.219 238.2ZM162.219 236.46C162.819 236.46 163.352 236.32 163.819 236.04C164.286 235.76 164.652 235.38 164.919 234.9C165.186 234.407 165.319 233.847 165.319 233.22C165.319 232.607 165.179 232.06 164.899 231.58C164.632 231.1 164.266 230.727 163.799 230.46C163.346 230.18 162.819 230.04 162.219 230.04C161.619 230.04 161.086 230.18 160.619 230.46C160.152 230.727 159.786 231.1 159.519 231.58C159.252 232.06 159.119 232.607 159.119 233.22C159.119 233.847 159.252 234.407 159.519 234.9C159.786 235.38 160.152 235.76 160.619 236.04C161.086 236.32 161.619 236.46 162.219 236.46ZM175.527 238V232.46C175.527 231.74 175.3 231.147 174.847 230.68C174.394 230.213 173.807 229.98 173.087 229.98C172.607 229.98 172.18 230.087 171.807 230.3C171.434 230.513 171.14 230.807 170.927 231.18C170.714 231.553 170.607 231.98 170.607 232.46L169.867 232.04C169.867 231.32 170.027 230.68 170.347 230.12C170.667 229.56 171.114 229.12 171.687 228.8C172.26 228.467 172.907 228.3 173.627 228.3C174.347 228.3 174.98 228.48 175.527 228.84C176.087 229.2 176.527 229.673 176.847 230.26C177.167 230.833 177.327 231.447 177.327 232.1V238H175.527ZM168.807 238V228.5H170.607V238H168.807ZM187.164 238.2C186.298 238.2 185.511 237.987 184.804 237.56C184.098 237.12 183.538 236.527 183.124 235.78C182.724 235.033 182.524 234.193 182.524 233.26C182.524 232.327 182.724 231.487 183.124 230.74C183.538 229.993 184.091 229.4 184.784 228.96C185.491 228.52 186.284 228.3 187.164 228.3C187.884 228.3 188.524 228.453 189.084 228.76C189.658 229.053 190.118 229.467 190.464 230C190.811 230.52 191.004 231.127 191.044 231.82V234.68C191.004 235.36 190.811 235.967 190.464 236.5C190.131 237.033 189.678 237.453 189.104 237.76C188.544 238.053 187.898 238.2 187.164 238.2ZM187.464 236.5C188.358 236.5 189.078 236.2 189.624 235.6C190.171 234.987 190.444 234.207 190.444 233.26C190.444 232.607 190.318 232.04 190.064 231.56C189.824 231.067 189.478 230.687 189.024 230.42C188.571 230.14 188.044 230 187.444 230C186.844 230 186.311 230.14 185.844 230.42C185.391 230.7 185.031 231.087 184.764 231.58C184.511 232.06 184.384 232.613 184.384 233.24C184.384 233.88 184.511 234.447 184.764 234.94C185.031 235.42 185.398 235.8 185.864 236.08C186.331 236.36 186.864 236.5 187.464 236.5ZM190.324 238V235.44L190.664 233.12L190.324 230.82V228.5H192.144V238H190.324ZM202.145 238.2C201.265 238.2 200.478 237.987 199.785 237.56C199.092 237.12 198.538 236.527 198.125 235.78C197.725 235.033 197.525 234.193 197.525 233.26C197.525 232.327 197.725 231.487 198.125 230.74C198.538 229.993 199.092 229.4 199.785 228.96C200.478 228.52 201.265 228.3 202.145 228.3C202.852 228.3 203.492 228.453 204.065 228.76C204.638 229.053 205.098 229.467 205.445 230C205.805 230.52 206.005 231.127 206.045 231.82V234.68C206.005 235.36 205.812 235.967 205.465 236.5C205.118 237.033 204.658 237.453 204.085 237.76C203.512 238.053 202.865 238.2 202.145 238.2ZM202.445 236.5C203.045 236.5 203.565 236.36 204.005 236.08C204.458 235.8 204.812 235.42 205.065 234.94C205.318 234.447 205.445 233.887 205.445 233.26C205.445 232.607 205.312 232.04 205.045 231.56C204.792 231.08 204.438 230.7 203.985 230.42C203.545 230.14 203.025 230 202.425 230C201.825 230 201.298 230.14 200.845 230.42C200.392 230.7 200.032 231.087 199.765 231.58C199.512 232.06 199.385 232.613 199.385 233.24C199.385 233.88 199.512 234.447 199.765 234.94C200.032 235.42 200.392 235.8 200.845 236.08C201.312 236.36 201.845 236.5 202.445 236.5ZM207.145 238H205.325V235.44L205.665 233.12L205.325 230.82V223.72H207.145V238ZM213.766 238.2C212.819 238.2 211.966 237.987 211.206 237.56C210.446 237.12 209.846 236.527 209.406 235.78C208.966 235.033 208.746 234.187 208.746 233.24C208.746 232.307 208.959 231.467 209.386 230.72C209.826 229.973 210.412 229.387 211.146 228.96C211.892 228.52 212.726 228.3 213.646 228.3C214.526 228.3 215.299 228.5 215.966 228.9C216.646 229.3 217.172 229.853 217.546 230.56C217.932 231.267 218.126 232.067 218.126 232.96C218.126 233.093 218.119 233.24 218.106 233.4C218.092 233.547 218.066 233.72 218.026 233.92H210.006V232.42H217.066L216.406 233C216.406 232.36 216.292 231.82 216.066 231.38C215.839 230.927 215.519 230.58 215.106 230.34C214.692 230.087 214.192 229.96 213.606 229.96C212.992 229.96 212.452 230.093 211.986 230.36C211.519 230.627 211.159 231 210.906 231.48C210.652 231.96 210.526 232.527 210.526 233.18C210.526 233.847 210.659 234.433 210.926 234.94C211.192 235.433 211.572 235.82 212.066 236.1C212.559 236.367 213.126 236.5 213.766 236.5C214.299 236.5 214.786 236.407 215.226 236.22C215.679 236.033 216.066 235.753 216.386 235.38L217.546 236.56C217.092 237.093 216.532 237.5 215.866 237.78C215.212 238.06 214.512 238.2 213.766 238.2ZM222.708 238.2C222.175 238.2 221.668 238.133 221.188 238C220.722 237.853 220.288 237.653 219.888 237.4C219.488 237.133 219.142 236.82 218.848 236.46L220.008 235.3C220.355 235.727 220.755 236.047 221.208 236.26C221.662 236.46 222.168 236.56 222.728 236.56C223.288 236.56 223.722 236.467 224.028 236.28C224.335 236.08 224.488 235.807 224.488 235.46C224.488 235.113 224.362 234.847 224.108 234.66C223.868 234.46 223.555 234.3 223.168 234.18C222.782 234.047 222.368 233.92 221.928 233.8C221.502 233.667 221.095 233.5 220.708 233.3C220.322 233.1 220.002 232.827 219.748 232.48C219.508 232.133 219.388 231.673 219.388 231.1C219.388 230.527 219.528 230.033 219.808 229.62C220.088 229.193 220.475 228.867 220.968 228.64C221.475 228.413 222.082 228.3 222.788 228.3C223.535 228.3 224.195 228.433 224.768 228.7C225.355 228.953 225.835 229.34 226.208 229.86L225.048 231.02C224.782 230.673 224.448 230.407 224.048 230.22C223.662 230.033 223.222 229.94 222.728 229.94C222.208 229.94 221.808 230.033 221.528 230.22C221.262 230.393 221.128 230.64 221.128 230.96C221.128 231.28 221.248 231.527 221.488 231.7C221.728 231.873 222.042 232.02 222.428 232.14C222.828 232.26 223.242 232.387 223.668 232.52C224.095 232.64 224.502 232.807 224.888 233.02C225.275 233.233 225.588 233.52 225.828 233.88C226.082 234.24 226.208 234.713 226.208 235.3C226.208 236.193 225.888 236.9 225.248 237.42C224.622 237.94 223.775 238.2 222.708 238.2ZM233.904 238L229.464 233.14L233.864 228.5H236.044L231.144 233.62L231.224 232.58L236.224 238H233.904ZM227.824 238V223.72H229.624V238H227.824ZM238.161 238V224.52H239.961V238H238.161ZM235.821 230.14V228.5H242.301V230.14H235.821ZM247.711 238.2C246.778 238.2 245.938 237.98 245.191 237.54C244.444 237.1 243.851 236.507 243.411 235.76C242.971 235 242.751 234.153 242.751 233.22C242.751 232.3 242.971 231.473 243.411 230.74C243.851 229.993 244.444 229.4 245.191 228.96C245.938 228.52 246.778 228.3 247.711 228.3C248.631 228.3 249.464 228.52 250.211 228.96C250.971 229.387 251.571 229.973 252.011 230.72C252.451 231.467 252.671 232.3 252.671 233.22C252.671 234.153 252.451 235 252.011 235.76C251.571 236.507 250.971 237.1 250.211 237.54C249.464 237.98 248.631 238.2 247.711 238.2ZM247.711 236.46C248.311 236.46 248.844 236.32 249.311 236.04C249.778 235.76 250.144 235.38 250.411 234.9C250.678 234.407 250.811 233.847 250.811 233.22C250.811 232.607 250.671 232.06 250.391 231.58C250.124 231.1 249.758 230.727 249.291 230.46C248.838 230.18 248.311 230.04 247.711 230.04C247.111 230.04 246.578 230.18 246.111 230.46C245.644 230.727 245.278 231.1 245.011 231.58C244.744 232.06 244.611 232.607 244.611 233.22C244.611 233.847 244.744 234.407 245.011 234.9C245.278 235.38 245.644 235.76 246.111 236.04C246.578 236.32 247.111 236.46 247.711 236.46ZM259.299 238.2C258.579 238.2 257.926 238.053 257.339 237.76C256.766 237.453 256.306 237.033 255.959 236.5C255.613 235.967 255.419 235.36 255.379 234.68V231.82C255.419 231.127 255.613 230.52 255.959 230C256.319 229.467 256.786 229.053 257.359 228.76C257.946 228.453 258.593 228.3 259.299 228.3C260.166 228.3 260.946 228.52 261.639 228.96C262.346 229.4 262.899 229.993 263.299 230.74C263.699 231.487 263.899 232.327 263.899 233.26C263.899 234.193 263.699 235.033 263.299 235.78C262.899 236.527 262.346 237.12 261.639 237.56C260.946 237.987 260.166 238.2 259.299 238.2ZM258.999 236.5C259.599 236.5 260.126 236.36 260.579 236.08C261.033 235.8 261.393 235.42 261.659 234.94C261.926 234.447 262.059 233.88 262.059 233.24C262.059 232.613 261.926 232.053 261.659 231.56C261.393 231.067 261.033 230.687 260.579 230.42C260.126 230.14 259.606 230 259.019 230C258.419 230 257.893 230.14 257.439 230.42C256.986 230.687 256.633 231.067 256.379 231.56C256.126 232.053 255.999 232.62 255.999 233.26C255.999 233.887 256.119 234.447 256.359 234.94C256.613 235.42 256.966 235.8 257.419 236.08C257.886 236.36 258.413 236.5 258.999 236.5ZM254.299 241.98V228.5H256.099V231L255.759 233.3L256.099 235.62V241.98H254.299ZM266.749 238.2C266.375 238.2 266.062 238.073 265.809 237.82C265.569 237.553 265.449 237.24 265.449 236.88C265.449 236.507 265.569 236.2 265.809 235.96C266.062 235.707 266.375 235.58 266.749 235.58C267.122 235.58 267.429 235.707 267.669 235.96C267.922 236.2 268.049 236.507 268.049 236.88C268.049 237.24 267.922 237.553 267.669 237.82C267.429 238.073 267.122 238.2 266.749 238.2Z" fill="#075985"/>
</svg>
