<svg width="543" height="211" viewBox="0 0 543 211" fill="none" xmlns="http://www.w3.org/2000/svg">
<path d="M542.337 29.5303C468.153 46.945 361.018 72.1398 266.311 94.5C326.269 88.8388 387.094 83.1117 431.459 78.9404L438.072 107.941L289.767 162.862L378.189 150.896L382.213 180.626L159.301 210.792L152.079 181.861L320.388 119.531C280.959 123.249 239.731 127.142 201.86 130.727C162.705 134.433 127.141 137.811 100.863 140.325C87.7237 141.583 76.9131 142.624 69.1387 143.382C65.2499 143.761 62.1311 144.069 59.8652 144.297C58.7314 144.411 57.8245 144.504 57.1475 144.575C56.8088 144.611 56.5394 144.639 56.335 144.662C56.2331 144.673 56.1539 144.683 56.0957 144.689C56.048 144.695 56.0244 144.698 56.0195 144.698C55.8454 144.72 55.551 144.755 55.1924 144.782C54.9743 144.799 54.1099 144.867 53.0166 144.795C52.3651 144.738 50.6049 144.44 49.5088 144.142C47.3794 143.292 42.0204 138.874 39.8076 134.73C38.9847 129.502 41.2945 121.818 43.002 119.6C43.9619 118.656 45.6061 117.373 46.2344 116.972C47.2734 116.344 48.1667 115.984 48.3613 115.904C48.7127 115.761 49.0058 115.656 49.1748 115.597C49.5198 115.477 49.8253 115.383 50.0107 115.327C50.7148 115.115 51.6799 114.857 52.6621 114.603C54.7649 114.057 58.0375 113.242 62.3008 112.196C70.8596 110.097 83.6847 107.006 99.7803 103.156C131.983 95.4539 177.384 84.6874 228.179 72.6816C256.265 66.0433 286.004 59.0261 316.078 51.9365C279.351 55.5612 242.716 59.1803 208.147 62.6045C152.505 68.1161 102.223 73.1182 65.5293 76.8057C47.1808 78.6496 32.2416 80.1633 21.7324 81.248C16.4746 81.7908 12.345 82.2238 9.45898 82.5361C5.9872 82.9119 5.30164 83.0182 5.81836 82.916L0 53.4854C1.16655 53.2547 3.85754 52.9678 6.23145 52.7109C9.19229 52.3905 13.3804 51.9514 18.6523 51.4072C29.2028 50.3182 44.1747 48.8007 62.5303 46.9561C99.2453 43.2664 149.544 38.263 205.189 32.751C316.483 21.7267 449.19 8.66513 537.443 0L542.337 29.5303Z" fill="#76B2AC"/>
</svg>
