<svg width="1792" height="1020" viewBox="0 0 1792 1020" fill="none" xmlns="http://www.w3.org/2000/svg">
<path fill-rule="evenodd" clip-rule="evenodd" d="M274.256 938L274.256 1019.78L192.477 1019.78L192.477 1011.02C192.477 970.69 225.168 938 265.494 938L274.256 938Z" fill="white"/>
<path fill-rule="evenodd" clip-rule="evenodd" d="M274.256 926L274.256 844.222L192.477 844.221L192.477 852.983C192.477 893.309 225.168 926 265.494 926L274.256 926Z" fill="white"/>
<path fill-rule="evenodd" clip-rule="evenodd" d="M192.479 830L192.479 749.219L274.257 749.219L274.257 757.874C274.257 797.708 241.566 830 201.24 830L192.479 830Z" fill="white"/>
<path fill-rule="evenodd" clip-rule="evenodd" d="M192.479 655L192.479 736.778L274.257 736.778L274.257 728.016C274.257 687.69 241.566 655 201.24 655L192.479 655Z" fill="white"/>
<path fill-rule="evenodd" clip-rule="evenodd" d="M369 655L369 736.778L287.222 736.778L287.222 728.016C287.222 687.69 319.912 655 360.238 655L369 655Z" fill="white"/>
<path fill-rule="evenodd" clip-rule="evenodd" d="M287.221 831L287.221 749.222L368.999 749.222L368.999 757.983C368.999 798.309 336.309 831 295.983 831L287.221 831Z" fill="white"/>
<path fill-rule="evenodd" clip-rule="evenodd" d="M287.221 925L287.221 844.219L368.999 844.219L368.999 852.874C368.999 892.708 336.309 925 295.983 925L287.221 925Z" fill="white"/>
<path d="M288.721 1018.28L367.499 1018.28L367.499 1011.02C367.499 971.519 335.48 939.5 295.982 939.5L288.721 939.5L288.721 1018.28Z" stroke="white" stroke-width="3"/>
<path d="M80.2793 829.278L1.50097 829.278L1.50097 822.016C1.50098 782.519 33.5202 750.5 73.0176 750.5L80.2793 750.5L80.2793 829.278Z" stroke="white" stroke-width="3"/>
<path fill-rule="evenodd" clip-rule="evenodd" d="M81.7793 737L81.7793 655.222L0.000924893 655.221L0.00092451 663.983C0.000922747 704.309 32.6915 737 73.0173 737L81.7793 737Z" fill="white"/>
<path fill-rule="evenodd" clip-rule="evenodd" d="M0 643.532L3.53105e-06 562.751L81.7784 562.751L81.7784 571.407C81.7784 611.241 49.0878 643.532 8.76197 643.532L0 643.532Z" fill="white"/>
<path fill-rule="evenodd" clip-rule="evenodd" d="M0 471L-3.57465e-06 552.778L81.7784 552.778L81.7784 544.016C81.7784 503.691 49.0878 471 8.76197 471L0 471Z" fill="white"/>
<path d="M175.021 551.278L96.2432 551.278L96.2432 544.017C96.2432 504.519 128.262 472.5 167.76 472.5L175.021 472.5L175.021 551.278Z" stroke="white" stroke-width="3"/>
<path fill-rule="evenodd" clip-rule="evenodd" d="M94.7441 642.535L94.7441 560.757L176.523 560.757L176.523 569.519C176.523 609.845 143.832 642.535 103.506 642.535L94.7441 642.535Z" fill="white"/>
<path d="M1.5 939.722L80.2783 939.722L80.2783 946.983C80.2783 986.481 48.2591 1018.5 8.76172 1018.5L1.5 1018.5L1.5 939.722Z" stroke="white" stroke-width="3"/>
<path fill-rule="evenodd" clip-rule="evenodd" d="M0 844L-3.53105e-06 924.781L81.7784 924.781L81.7784 916.126C81.7784 876.292 49.0878 844 8.76197 844L0 844Z" fill="white"/>
<path fill-rule="evenodd" clip-rule="evenodd" d="M176.521 844L176.521 924.781L94.7431 924.781L94.7431 916.126C94.7431 876.292 127.434 844 167.76 844L176.521 844Z" fill="white"/>
<path fill-rule="evenodd" clip-rule="evenodd" d="M94.7441 1019L94.7441 938.219L176.523 938.219L176.523 946.874C176.523 986.708 143.832 1019 103.506 1019L94.7441 1019Z" fill="white"/>
<path d="M96.2441 656.719L175.022 656.719L175.022 663.874C175.022 702.862 143.021 734.5 103.506 734.5L96.2441 734.5L96.2441 656.719Z" stroke="white" stroke-width="3"/>
<path fill-rule="evenodd" clip-rule="evenodd" d="M94.7441 749L94.7441 830.778L176.523 830.778L176.523 822.016C176.523 781.69 143.832 749 103.506 749L94.7441 749Z" fill="white"/>
<path fill-rule="evenodd" clip-rule="evenodd" d="M475.24 926L393.462 926L393.462 844.221L402.224 844.221C442.55 844.222 475.24 876.912 475.24 917.238L475.24 926Z" fill="white"/>
<path fill-rule="evenodd" clip-rule="evenodd" d="M483.219 926L564.997 926L564.997 844.222L556.235 844.222C515.909 844.222 483.219 876.912 483.219 917.238L483.219 926Z" fill="white"/>
<path fill-rule="evenodd" clip-rule="evenodd" d="M576.965 844L657.746 844L657.746 925.778L649.091 925.778C609.257 925.778 576.965 893.088 576.965 852.762L576.965 844Z" fill="white"/>
<path fill-rule="evenodd" clip-rule="evenodd" d="M749.496 844L667.718 844L667.718 925.778L676.48 925.778C716.806 925.778 749.496 893.088 749.496 852.762L749.496 844Z" fill="white"/>
<path fill-rule="evenodd" clip-rule="evenodd" d="M749.496 1020L667.718 1020L667.718 938.221L676.48 938.221C716.806 938.222 749.496 970.912 749.496 1011.24L749.496 1020Z" fill="white"/>
<path fill-rule="evenodd" clip-rule="evenodd" d="M577.961 938L659.739 938L659.739 1019.78L650.977 1019.78C610.651 1019.78 577.961 987.088 577.961 946.762L577.961 938Z" fill="white"/>
<path fill-rule="evenodd" clip-rule="evenodd" d="M485.213 938L565.994 938L565.994 1019.78L557.339 1019.78C517.505 1019.78 485.213 987.088 485.213 946.762L485.213 938Z" fill="white"/>
<path d="M394.962 939.5L394.962 1018.28L402.224 1018.28C441.721 1018.28 473.74 986.259 473.74 946.762L473.74 939.5L394.962 939.5Z" stroke="white" stroke-width="3"/>
<path d="M578.464 735.5L578.464 656.722L585.726 656.722C625.223 656.722 657.242 688.741 657.242 728.238L657.242 735.5L578.464 735.5Z" stroke="white" stroke-width="3"/>
<path fill-rule="evenodd" clip-rule="evenodd" d="M666.721 737L748.499 737L748.499 655.222L739.737 655.222C699.411 655.222 666.721 687.912 666.721 728.238L666.721 737Z" fill="white"/>
<path fill-rule="evenodd" clip-rule="evenodd" d="M760.467 655L841.248 655L841.248 736.778L832.593 736.778C792.759 736.778 760.467 704.088 760.467 663.762L760.467 655Z" fill="white"/>
<path fill-rule="evenodd" clip-rule="evenodd" d="M933 655L851.222 655L851.222 736.778L859.984 736.778C900.309 736.778 933 704.088 933 663.762L933 655Z" fill="white"/>
<path d="M852.722 829.5L852.722 750.722L859.983 750.722C899.481 750.722 931.5 782.741 931.5 822.238L931.5 829.5L852.722 829.5Z" stroke="white" stroke-width="3"/>
<path fill-rule="evenodd" clip-rule="evenodd" d="M761.465 749L843.243 749L843.243 830.778L834.481 830.778C794.155 830.778 761.465 798.088 761.465 757.762L761.465 749Z" fill="white"/>
<path d="M475.735 656.5L475.735 735.278L468.474 735.278C428.976 735.278 396.957 703.259 396.957 663.761L396.957 656.5L475.735 656.5Z" stroke="white" stroke-width="3"/>
<path fill-rule="evenodd" clip-rule="evenodd" d="M567.988 655L487.207 655L487.207 736.778L495.862 736.778C535.696 736.778 567.988 704.088 567.988 663.762L567.988 655Z" fill="white"/>
<path fill-rule="evenodd" clip-rule="evenodd" d="M567.988 831L487.207 831L487.207 749.221L495.862 749.221C535.696 749.222 567.988 781.912 567.988 822.238L567.988 831Z" fill="white"/>
<path fill-rule="evenodd" clip-rule="evenodd" d="M397.451 749L478.232 749L478.232 830.778L469.577 830.778C429.743 830.778 397.451 798.088 397.451 757.762L397.451 749Z" fill="white"/>
<path d="M747.996 750.5L747.996 829.278L740.841 829.278C701.852 829.278 670.215 797.276 670.215 757.762L670.215 750.5L747.996 750.5Z" stroke="white" stroke-width="3"/>
<path fill-rule="evenodd" clip-rule="evenodd" d="M658.742 749L576.964 749L576.964 830.778L585.726 830.778C626.052 830.778 658.742 798.088 658.742 757.762L658.742 749Z" fill="white"/>
<path fill-rule="evenodd" clip-rule="evenodd" d="M940.76 90L1022.54 90L1022.54 171.778L1013.78 171.778C973.45 171.778 940.76 139.088 940.76 98.762L940.76 90Z" fill="white"/>
<path fill-rule="evenodd" clip-rule="evenodd" d="M932.781 90L851.003 90L851.003 171.778L859.765 171.778C900.091 171.778 932.781 139.088 932.781 98.762L932.781 90Z" fill="white"/>
<path fill-rule="evenodd" clip-rule="evenodd" d="M839.035 172L758.254 172L758.254 90.2216L766.909 90.2216C806.743 90.2216 839.035 122.912 839.035 163.238L839.035 172Z" fill="white"/>
<path fill-rule="evenodd" clip-rule="evenodd" d="M666.504 172L748.282 172L748.282 90.2216L739.52 90.2216C699.194 90.2216 666.504 122.912 666.504 163.238L666.504 172Z" fill="white"/>
<path fill-rule="evenodd" clip-rule="evenodd" d="M666.504 0L748.282 7.14929e-06L748.282 81.7784L739.52 81.7784C699.194 81.7784 666.504 49.0878 666.504 8.76197L666.504 0Z" fill="white"/>
<path fill-rule="evenodd" clip-rule="evenodd" d="M838.039 82L756.261 82L756.261 0.221617L765.023 0.221618C805.349 0.221622 838.039 32.9122 838.039 73.238L838.039 82Z" fill="white"/>
<path fill-rule="evenodd" clip-rule="evenodd" d="M930.787 82L850.006 82L850.006 0.221617L858.661 0.221618C898.495 0.221622 930.787 32.9122 930.787 73.238L930.787 82Z" fill="white"/>
<path d="M1021.04 80.5L1021.04 1.72169L1013.78 1.72169C974.279 1.72168 942.26 33.7409 942.26 73.2383L942.26 80.5L1021.04 80.5Z" stroke="white" stroke-width="3"/>
<path d="M837.535 272.722L758.757 272.722L758.757 279.983C758.757 319.481 790.776 351.5 830.273 351.5L837.535 351.5L837.535 272.722Z" stroke="white" stroke-width="3"/>
<path fill-rule="evenodd" clip-rule="evenodd" d="M749.279 271L667.501 271L667.501 352.778L676.263 352.778C716.589 352.778 749.279 320.088 749.279 279.762L749.279 271Z" fill="white"/>
<path fill-rule="evenodd" clip-rule="evenodd" d="M655.533 353L574.752 353L574.752 271.222L583.407 271.222C623.241 271.222 655.533 303.912 655.533 344.238L655.533 353Z" fill="white"/>
<path fill-rule="evenodd" clip-rule="evenodd" d="M483 353L564.778 353L564.778 271.222L556.016 271.222C515.691 271.222 483 303.912 483 344.238L483 353Z" fill="white"/>
<path d="M563.279 182.722L484.501 182.722L484.501 189.983C484.501 229.481 516.52 261.5 556.018 261.5L563.279 261.5L563.279 182.722Z" stroke="white" stroke-width="3"/>
<path fill-rule="evenodd" clip-rule="evenodd" d="M654.535 263L572.757 263L572.757 181.222L581.519 181.222C621.845 181.222 654.535 213.912 654.535 254.238L654.535 263Z" fill="white"/>
<path d="M940.265 351.5L940.265 272.722L947.526 272.722C987.024 272.722 1019.04 304.741 1019.04 344.239L1019.04 351.5L940.265 351.5Z" stroke="white" stroke-width="3"/>
<path fill-rule="evenodd" clip-rule="evenodd" d="M848.012 353L928.793 353L928.793 271.222L920.138 271.222C880.304 271.222 848.012 303.912 848.012 344.238L848.012 353Z" fill="white"/>
<path fill-rule="evenodd" clip-rule="evenodd" d="M848.012 181L928.793 181L928.793 262.778L920.138 262.778C880.304 262.778 848.012 230.088 848.012 189.762L848.012 181Z" fill="white"/>
<path fill-rule="evenodd" clip-rule="evenodd" d="M1018.55 263L937.768 263L937.768 181.222L946.423 181.222C986.257 181.222 1018.55 213.912 1018.55 254.238L1018.55 263Z" fill="white"/>
<path d="M667.505 261.5L667.505 182.722L674.767 182.722C714.264 182.722 746.283 214.741 746.283 254.238L746.283 261.5L667.505 261.5Z" stroke="white" stroke-width="3"/>
<path fill-rule="evenodd" clip-rule="evenodd" d="M757.258 263L839.036 263L839.036 181.222L830.274 181.222C789.948 181.222 757.258 213.912 757.258 254.238L757.258 263Z" fill="white"/>
<path fill-rule="evenodd" clip-rule="evenodd" d="M1138.74 82L1138.74 0.221627L1220.52 0.221631L1220.52 8.9836C1220.52 49.3094 1187.83 82 1147.5 82L1138.74 82Z" fill="white"/>
<path fill-rule="evenodd" clip-rule="evenodd" d="M1138.74 90L1138.74 171.778L1220.52 171.778L1220.52 163.016C1220.52 122.691 1187.83 90 1147.5 90L1138.74 90Z" fill="white"/>
<path fill-rule="evenodd" clip-rule="evenodd" d="M1220.52 182L1220.52 262.781L1138.74 262.781L1138.74 254.126C1138.74 214.292 1171.43 182 1211.76 182L1220.52 182Z" fill="white"/>
<path fill-rule="evenodd" clip-rule="evenodd" d="M1220.52 353L1220.52 271.222L1138.74 271.222L1138.74 279.984C1138.74 320.309 1171.43 353 1211.76 353L1220.52 353Z" fill="white"/>
<path fill-rule="evenodd" clip-rule="evenodd" d="M1044 353L1044 271.222L1125.78 271.222L1125.78 279.984C1125.78 320.309 1093.09 353 1052.76 353L1044 353Z" fill="white"/>
<path fill-rule="evenodd" clip-rule="evenodd" d="M1125.78 181L1125.78 262.778L1044 262.778L1044 254.016C1044 213.691 1076.69 181 1117.02 181L1125.78 181Z" fill="white"/>
<path fill-rule="evenodd" clip-rule="evenodd" d="M1125.78 91L1125.78 171.781L1044 171.781L1044 163.126C1044 123.292 1076.69 91 1117.02 91L1125.78 91Z" fill="white"/>
<path d="M1124.28 1.72168L1045.5 1.72168L1045.5 8.98339C1045.5 48.4808 1077.52 80.5 1117.02 80.5L1124.28 80.5L1124.28 1.72168Z" stroke="white" stroke-width="3"/>
<path d="M1332.72 182.722L1411.5 182.722L1411.5 189.983C1411.5 229.481 1379.48 261.5 1339.98 261.5L1332.72 261.5L1332.72 182.722Z" stroke="white" stroke-width="3"/>
<path fill-rule="evenodd" clip-rule="evenodd" d="M1331.22 271L1331.22 352.778L1413 352.778L1413 344.016C1413 303.691 1380.31 271 1339.98 271L1331.22 271Z" fill="white"/>
<path fill-rule="evenodd" clip-rule="evenodd" d="M1413 364L1413 444.781L1331.22 444.781L1331.22 436.126C1331.22 396.292 1363.91 364 1404.24 364L1413 364Z" fill="white"/>
<path fill-rule="evenodd" clip-rule="evenodd" d="M1413 537L1413 455.222L1331.22 455.222L1331.22 463.984C1331.22 504.309 1363.91 537 1404.24 537L1413 537Z" fill="white"/>
<path d="M1237.98 456.722L1316.76 456.722L1316.76 463.983C1316.76 503.481 1284.74 535.5 1245.24 535.5L1237.98 535.5L1237.98 456.722Z" stroke="white" stroke-width="3"/>
<path fill-rule="evenodd" clip-rule="evenodd" d="M1318.26 364L1318.26 445.778L1236.48 445.778L1236.48 437.016C1236.48 396.691 1269.17 364 1309.5 364L1318.26 364Z" fill="white"/>
<path d="M1411.5 80.2783L1332.72 80.2783L1332.72 73.0166C1332.72 33.5192 1364.74 1.5 1404.24 1.5L1411.5 1.5L1411.5 80.2783Z" stroke="white" stroke-width="3"/>
<path fill-rule="evenodd" clip-rule="evenodd" d="M1413 172L1413 91.2189L1331.22 91.2189L1331.22 99.874C1331.22 139.708 1363.91 172 1404.24 172L1413 172Z" fill="white"/>
<path fill-rule="evenodd" clip-rule="evenodd" d="M1236.48 172L1236.48 91.2189L1318.26 91.2189L1318.26 99.874C1318.26 139.708 1285.57 172 1245.24 172L1236.48 172Z" fill="white"/>
<path fill-rule="evenodd" clip-rule="evenodd" d="M1318.26 1L1318.26 81.7811L1236.48 81.7811L1236.48 73.126C1236.48 33.2919 1269.17 0.999998 1309.5 1L1318.26 1Z" fill="white"/>
<path d="M1316.76 351.281L1237.98 351.281L1237.98 344.126C1237.98 305.138 1269.98 273.5 1309.5 273.5L1316.76 273.5L1316.76 351.281Z" stroke="white" stroke-width="3"/>
<path fill-rule="evenodd" clip-rule="evenodd" d="M1318.26 263L1318.26 181.222L1236.48 181.222L1236.48 189.984C1236.48 230.309 1269.17 263 1309.5 263L1318.26 263Z" fill="white"/>
<path fill-rule="evenodd" clip-rule="evenodd" d="M1697.25 455L1697.25 536.778L1615.48 536.778L1615.48 528.016C1615.48 487.691 1648.17 455 1688.49 455L1697.25 455Z" fill="white"/>
<path fill-rule="evenodd" clip-rule="evenodd" d="M1697.25 446L1697.25 364.222L1615.48 364.222L1615.48 372.984C1615.48 413.309 1648.17 446 1688.49 446L1697.25 446Z" fill="white"/>
<path fill-rule="evenodd" clip-rule="evenodd" d="M1615.48 353L1615.48 272.219L1697.25 272.219L1697.25 280.874C1697.25 320.708 1664.56 353 1624.24 353L1615.48 353Z" fill="white"/>
<path fill-rule="evenodd" clip-rule="evenodd" d="M1615.48 181L1615.48 262.778L1697.25 262.778L1697.25 254.016C1697.25 213.691 1664.56 181 1624.24 181L1615.48 181Z" fill="white"/>
<path fill-rule="evenodd" clip-rule="evenodd" d="M1792 181L1792 262.778L1710.22 262.778L1710.22 254.016C1710.22 213.691 1742.91 181 1783.24 181L1792 181Z" fill="white"/>
<path fill-rule="evenodd" clip-rule="evenodd" d="M1710.22 353L1710.22 271.222L1792 271.222L1792 279.984C1792 320.309 1759.31 353 1718.98 353L1710.22 353Z" fill="white"/>
<path fill-rule="evenodd" clip-rule="evenodd" d="M1710.22 445L1710.22 364.219L1792 364.219L1792 372.874C1792 412.708 1759.31 445 1718.98 445L1710.22 445Z" fill="white"/>
<path d="M1711.72 535.278L1790.5 535.278L1790.5 528.017C1790.5 488.519 1758.48 456.5 1718.98 456.5L1711.72 456.5L1711.72 535.278Z" stroke="white" stroke-width="3"/>
<path d="M1503.28 351.278L1424.5 351.278L1424.5 344.017C1424.5 304.519 1456.52 272.5 1496.02 272.5L1503.28 272.5L1503.28 351.278Z" stroke="white" stroke-width="3"/>
<path fill-rule="evenodd" clip-rule="evenodd" d="M1504.78 263L1504.78 181.222L1423 181.222L1423 189.984C1423 230.309 1455.69 263 1496.02 263L1504.78 263Z" fill="white"/>
<path fill-rule="evenodd" clip-rule="evenodd" d="M1423 172L1423 91.2189L1504.78 91.2189L1504.78 99.874C1504.78 139.708 1472.09 172 1431.76 172L1423 172Z" fill="white"/>
<path fill-rule="evenodd" clip-rule="evenodd" d="M1423 0L1423 81.7784L1504.78 81.7784L1504.78 73.0164C1504.78 32.6906 1472.09 2.1457e-06 1431.76 3.82998e-07L1423 0Z" fill="white"/>
<path d="M1598.02 80.2783L1519.24 80.2783L1519.24 73.0166C1519.24 33.5192 1551.26 1.5 1590.76 1.5L1598.02 1.5L1598.02 80.2783Z" stroke="white" stroke-width="3"/>
<path fill-rule="evenodd" clip-rule="evenodd" d="M1517.74 172L1517.74 90.2216L1599.52 90.2216L1599.52 98.9836C1599.52 139.309 1566.83 172 1526.5 172L1517.74 172Z" fill="white"/>
<path d="M1424.5 456.722L1503.28 456.722L1503.28 463.983C1503.28 503.481 1471.26 535.5 1431.76 535.5L1424.5 535.5L1424.5 456.722Z" stroke="white" stroke-width="3"/>
<path fill-rule="evenodd" clip-rule="evenodd" d="M1423 364L1423 444.781L1504.78 444.781L1504.78 436.126C1504.78 396.292 1472.09 364 1431.76 364L1423 364Z" fill="white"/>
<path fill-rule="evenodd" clip-rule="evenodd" d="M1599.52 364L1599.52 444.781L1517.74 444.781L1517.74 436.126C1517.74 396.292 1550.43 364 1590.76 364L1599.52 364Z" fill="white"/>
<path fill-rule="evenodd" clip-rule="evenodd" d="M1517.74 537L1517.74 456.219L1599.52 456.219L1599.52 464.874C1599.52 504.708 1566.83 537 1526.5 537L1517.74 537Z" fill="white"/>
<path d="M1519.24 183.719L1598.02 183.719L1598.02 190.874C1598.02 229.862 1566.02 261.5 1526.5 261.5L1519.24 261.5L1519.24 183.719Z" stroke="white" stroke-width="3"/>
<path fill-rule="evenodd" clip-rule="evenodd" d="M1517.74 271L1517.74 352.778L1599.52 352.778L1599.52 344.016C1599.52 303.691 1566.83 271 1526.5 271L1517.74 271Z" fill="white"/>
</svg>
