<svg width="295" height="369" viewBox="0 0 295 369" fill="none" xmlns="http://www.w3.org/2000/svg">
<path d="M268.169 144.5C268.169 224.305 203.474 289 123.669 289V0C203.474 0 268.169 64.6949 268.169 144.5Z" fill="#B5B0AD"/>
<path d="M294.714 245.633C251.033 258.512 186.236 277.653 131.973 293.758C168.273 289.45 206.686 284.906 233.738 281.711L238.589 298.81L150.254 339.896L204.793 330.627L207.809 348.373L87.2031 368.873L81.8994 351.84L180.051 306.185C156.99 308.915 132.468 311.823 110.108 314.481C88.9239 317 69.6835 319.294 55.4678 321.003C48.3591 321.857 42.5121 322.565 38.3086 323.08C36.2057 323.338 34.522 323.546 33.3008 323.7C32.6893 323.777 32.2034 323.84 31.8438 323.888C31.451 323.94 31.3034 323.961 31.2998 323.962C31.1771 323.982 30.9627 324.014 30.6982 324.039C30.5402 324.054 29.8914 324.119 29.0703 324.051C28.5847 323.997 27.2983 323.724 26.5127 323.456C25.1231 322.766 22.178 319.862 21.125 317.47C20.8024 314.917 21.7814 310.991 22.5703 309.717C23.079 309.09 23.9951 308.198 24.3662 307.9C25.0099 307.412 25.5789 307.122 25.7207 307.049C25.9544 306.929 26.1496 306.84 26.2627 306.791C26.4924 306.691 26.6933 306.613 26.8086 306.569C27.2413 306.406 27.8077 306.217 28.3369 306.045C29.4928 305.668 31.2782 305.109 33.5859 304.398C38.2244 302.97 45.1697 300.867 53.8789 298.251C71.3054 293.016 95.8724 285.698 123.355 277.539C142.851 271.751 163.819 265.541 184.753 259.347C160.637 262.334 136.254 265.358 113.523 268.187C83.4191 271.932 56.2157 275.33 36.3652 277.836C26.4385 279.089 18.3585 280.118 12.6768 280.854C9.83362 281.223 7.60547 281.516 6.05176 281.728C5.27174 281.834 4.6845 281.916 4.2832 281.975C3.60233 282.074 3.88639 282.049 4.33789 281.937L0 264.468C0.62716 264.312 1.45575 264.198 1.6709 264.166C2.16564 264.093 2.82632 264.001 3.62793 263.892C5.23753 263.673 7.50969 263.374 10.3633 263.004C16.0757 262.263 24.1797 261.232 34.1113 259.979C53.9781 257.471 81.1937 254.07 111.301 250.324C171.517 242.832 243.318 233.956 291.067 228.067L294.714 245.633Z" fill="#72C8C1"/>
</svg>
